<?xml version="1.0" encoding="UTF-8"?>
<!DOCTYPE svg PUBLIC "-//W3C//DTD SVG 1.1//EN" "http://www.w3.org/Graphics/SVG/1.1/DTD/svg11.dtd">
<!-- Creator: CorelDRAW -->
<svg xmlns="http://www.w3.org/2000/svg" xml:space="preserve" width="173.397mm" height="173.397mm" version="1.1" style="shape-rendering:geometricPrecision; text-rendering:geometricPrecision; image-rendering:optimizeQuality; fill-rule:evenodd; clip-rule:evenodd"
viewBox="0 0 17339.72 17339.72"
 xmlns:xlink="http://www.w3.org/1999/xlink"
 xmlns:xodm="http://www.corel.com/coreldraw/odm/2003">
 <defs>
  <style type="text/css">
   <![CDATA[
    .fil0 {fill:#2B2A29}
   ]]>
  </style>
 </defs>
 <g id="Слой_x0020_1">
  <metadata id="CorelCorpID_0Corel-Layer"/>
  <g id="_3076851610256">
   <g id="bag.cdr">
    <path class="fil0" d="M13050.32 9438.39l-19.09 -35.47c-359.76,-666.35 -759.75,-1295.48 -1207.95,-1906.22 -249.66,-342.6 -516.44,-672.38 -766.48,-1014.58 172.28,-125.99 385.76,-250.82 431.65,-477.15 50.55,-219.34 -58.72,-426.99 -173.06,-605.88 94.89,-152.06 199.9,-316.16 186.68,-503.6 -1.17,-169.15 -119.39,-302.93 -163.34,-459.27 57.17,-170.72 183.94,-326.26 163.34,-516.03 -3.89,-237.22 -192.89,-402.49 -355.05,-548.71 306.44,-432.44 627.64,-854.36 943.41,-1279.8 121.73,-169.94 257.45,-356.6 245,-576.32 -18.28,-362.05 -310.33,-669.65 -651.77,-762.59 -248.49,-74.66 -509.43,-32.66 -761.81,-7.77 -163.32,31.88 -266.38,-122.89 -382.65,-207.28 -272.22,-241.88 -689.09,-266.77 -1010.7,-115.11 -141.93,55.61 -267.54,168 -423.49,178.11 -167.6,-44.71 -304.1,-161.78 -467.42,-216.6 -309.56,-113.17 -676.26,-44.73 -927.48,167.61 -103.06,78.93 -202.61,199.09 -347.27,174.99 -320.82,-25.27 -661.09,-35.78 -952.36,123.66 -292.82,141.55 -503.6,472.09 -438.26,801.48 53.65,224.38 214.26,399.38 344.16,583.31 272.59,368.27 532.36,745.49 787.86,1126.2 -169.55,119 -349.6,265.6 -376.44,486.09 -52.11,222.05 83.22,423.1 211.56,590.72 -72.73,50.55 -134.95,199.1 -237.99,135.31 -404.06,-195.21 -808.49,-390.82 -1217.97,-575.13 -239.17,-105.4 -467.05,-277.67 -740.83,-264.44 -171.1,-1.96 -340.26,74.66 -448.75,207.27 -144.67,166.44 -155.95,411.04 -98,614.81 80.1,239.16 313.44,374.49 528.88,475.6 419.59,189.39 834.13,392.38 1267.73,548.72 -503.6,398.98 -1030.52,768.02 -1525.96,1177.12 -150.88,127.94 -283.1,302.16 -281.93,509.04 -15.17,285.83 184.72,568.93 468.2,630.77 231.38,57.16 494.67,2.71 663.43,-172.28 128.72,-131.05 231.38,-287.38 379.55,-399 334.04,-260.92 656.42,-536.64 985.03,-804.19 98,-72.33 191.32,-162.55 312.27,-194.82 66.89,26.83 128.33,65.33 191.33,101.49 -685.21,754.04 -1334.25,1544.23 -1898.12,2393.54 -613.26,962.48 -1107.52,2010.11 -1373.51,3123.47 -97.62,456.54 -164.51,922.8 -153.23,1390.62 -3.89,99.95 7.79,208.06 -41.21,299.84 -57.56,105.38 -136.89,195.99 -207.28,292.82 -214.66,285.44 -385.38,603.16 -505.93,939.15 -70,194.43 -103.05,411.42 -47.45,614.03 69.61,225.16 314.6,346.88 538.21,347.66 344.16,-3.5 668.09,-149.33 1009.53,-171.5 192.11,65.72 329.38,228.27 502.05,330.16 511.37,325.48 1089.25,534.71 1674.51,684.43 967.13,233.72 1970.05,338.71 2963.64,262.89 780.48,-47.45 1558.63,-182.79 2298.65,-439.44 368.28,-128.33 726.43,-292.83 1049.59,-512.54 20.48,-13.59 39.76,-26.06 53.79,-36.69 3.71,-2.81 6.59,-5.35 9.36,-7.85l0.29 -0.25 0.02 -0.03 12.59 -10.56 0.04 -0.02c102.59,-86.01 260.43,-216.25 377.52,-256.32 341.44,22.18 665.37,168 1009.53,171.51 223.6,-0.78 468.6,-122.51 538.21,-347.67 55.6,-202.61 22.56,-419.6 -47.44,-614.03 -120.55,-335.99 -291.27,-653.71 -505.94,-939.15 -70.38,-96.82 -149.72,-187.44 -207.27,-292.82 -49,-91.78 -37.32,-199.89 -41.21,-299.83 11.27,-467.82 -55.62,-934.09 -153.23,-1390.63 -224.04,-937.78 -601.53,-1659.58 -989.74,-2520.85zm-5396.98 -8209.24c-292.05,123.28 -617.55,40.43 -915.43,-17.5 83.6,89.82 147.39,200.27 252,268.32 171.49,116.66 366.31,197.17 526.14,331.32 342.61,288.95 558.05,692.6 723.32,1102.09 -43.55,-377.21 -163.33,-747.03 -137.28,-1130.47 0,-179.27 54.83,-384.6 223.23,-476.37 149.71,-61.44 320.83,11.66 418.42,131.82 133,164.11 190.95,373.33 235.28,576.32 59.11,299.04 98.39,601.2 142.33,902.98 57.16,-264.05 126.78,-524.59 206.1,-782.43 80.11,-270.27 158.67,-561.53 370.99,-761.03 94.12,-99.55 245.78,-104.62 370.99,-73.5 169.95,71.55 215.83,279.21 198.72,445.66 -48.22,414.54 -215.44,801.87 -316.94,1203.96 134.94,-214.66 243.83,-447.6 414.55,-637.76 295.55,-366.71 713.6,-592.65 1102.46,-844.26 -14.76,-73.1 -26.43,-146.99 -34.99,-220.87 -254.71,27.22 -518.76,88.28 -770.37,12.05 -217.76,-69.62 -334.82,-288.94 -532.75,-390.44 -132.23,-66.88 -288.17,-31.11 -418.84,19.84 -201.82,80.11 -383.42,238.77 -612.09,226.71 -288.16,5.06 -483.76,-289.72 -778.15,-258.99 -286.99,-25.28 -428.54,275.71 -667.69,372.55zm-87.89 2416.49c222.04,275.32 463.16,654.48 870.3,612.09 -66.1,-233.71 -221.27,-436.71 -418.82,-574.76 -132.99,-92.94 -302.54,-57.94 -451.48,-37.33zm736.92 1.55c163.72,202.61 318.1,428.94 552.6,556.48 96.82,56.79 211.93,49 320.43,51.34 -70,-231.77 -237.22,-421.54 -426.99,-565.05 -129.49,-97.21 -298.66,-62.21 -446.04,-42.77zm712.82 -0.78c161.39,189.78 321.21,387.71 525.76,533.94 106.16,82.43 245,76.6 372.54,82.04 -95.66,-218.92 -223.61,-437.48 -427.77,-570.87 -139.59,-94.49 -314.59,-59.11 -470.53,-45.11zm708.93 -7.38c175.76,189.38 341.04,394.71 554.92,542.87 109.66,83.22 250.44,77.78 381.09,74.67 -70.77,-223.22 -225.54,-412.61 -411.81,-551.05 -150.11,-115.49 -349.99,-75.05 -524.2,-66.49zm755.19 5.45c160.23,174.2 318.1,350.76 455.38,544.81 57.54,-84.38 132.22,-178.88 92.55,-287.37 -77,-219.34 -335.99,-299.45 -547.93,-257.44zm-3321.4 306.81c102.27,199.49 327.82,328.22 552.59,311.89 -77.01,-232.16 -271.04,-390.05 -417.27,-576.32 -87.11,55.61 -194.05,149.33 -135.32,264.43zm-2571.28 354.66c43.18,170.33 194.06,276.5 346.11,344.55 -11.28,-157.5 -16.33,-328.21 -110.45,-461.99 -62.6,-115.49 -280.76,-5.84 -235.66,117.44zm410.27 -75.83c16.34,243.05 164.89,446.82 346.89,597.32 77.77,-248.88 -44.34,-601.59 -346.89,-597.32zm467.44 215.44c-23.34,271.44 181.61,478.71 383.82,625.71 40.05,-261.34 -69.61,-619.1 -383.82,-625.71zm2148.94 190.55c155.94,190.94 325.49,377.61 535.09,510.6 119,78.55 265.23,80.49 402.89,85.55 -117.45,-236.44 -270.27,-476.77 -515.27,-596.15 -133,-66.49 -285.05,-24.49 -422.71,0zm-372.54 -29.94c-52.11,109.28 -127.56,247.71 -41.23,361.27 129.89,170.72 345.71,276.48 561.54,261.72 -98,-260.17 -311.49,-451.11 -520.31,-622.99zm1140.58 23.72c170.32,194.05 336.76,400.93 560.76,536.27 104.6,66.87 232.16,59.1 351.54,64.55 -84,-215.44 -221.66,-411.05 -405.21,-552.6 -145.82,-109.66 -340.26,-63.77 -507.09,-48.22zm753.65 7c171.48,186.28 337.54,386.15 555.7,521.1 103.83,67.27 231.38,66.1 350.76,72.33 -84.77,-248.88 -251.21,-480.27 -491.54,-596.55 -131.44,-64.55 -279.61,-15.55 -414.92,3.12zm770.35 -16.72c150.11,188.21 307.23,380.31 513.71,510.21 97.22,66.5 218.55,74.27 332.51,55.22 -7.01,-198.33 -147.01,-362.05 -294.79,-479.88 -156.32,-123.27 -365.92,-111.61 -551.43,-85.55zm789.43 -9.33c87.89,173.43 179.27,345.32 271.44,516.81 29.94,-104.61 91.77,-215.83 51.34,-325.48 -61.45,-122.51 -202.61,-157.89 -322.78,-191.33zm-4705.81 71.93c-64.95,53.68 -22.95,136.5 5.83,197.95 95.27,178.88 240.71,343.37 442.54,399.76 -26.06,-155.15 -54.05,-320.04 -157.5,-444.87 -70.38,-87.5 -166.04,-190.56 -290.87,-152.84zm495.03 227.89c80.9,200.66 192.51,401.71 383.82,516.43 -30.72,-163.33 -66.49,-334.44 -167.99,-469.76 -66.88,-34.23 -143.88,-35.78 -215.83,-46.67zm738.49 872.25c118.22,235.67 390.43,398.99 656.82,333.67 -109.28,-223.23 -277.28,-432.43 -502.83,-543.66 -120.94,-45.11 -202.99,111.23 -153.99,209.99zm532.76 -216.99c147.39,178.1 303.71,353.1 490.38,491.15 108.1,86.33 251.99,64.94 380.71,62.62 -89.84,-206.5 -218.56,-411.83 -418.43,-526.95 -138.06,-82.04 -303.71,-49.38 -452.66,-26.82zm754.81 8.17c176.55,180.82 334.83,389.26 553.76,521.49 95.66,64.93 209.22,13.21 307.61,-16.34 -99.95,-192.5 -223.6,-387.33 -420.77,-491.93 -134.55,-82.44 -295.93,-28.39 -440.6,-13.22zm764.92 -10.11c146.22,191.72 309.17,376.43 512.16,509.42 101.88,71.95 231.77,43.95 348.04,44.73 -82.05,-218.95 -222.82,-435.16 -444.88,-529.66 -130.66,-61.45 -277.66,-42 -415.32,-24.49zm746.26 6.61c140.39,156.32 280,314.6 434.76,457.31 89.07,85.56 214.67,107.34 330.56,136.11 66.49,-257.43 -129.88,-482.2 -345.32,-589.54 -133.79,-57.16 -281.95,-18.28 -420,-3.88zm-4006.99 472.48c131.44,19.84 265.99,48.62 399.75,28.39 96.44,-36.16 171.11,-111.22 248.89,-176.15 -120.94,-9.73 -241.88,-23.34 -362.43,-12.45 -114.34,8.94 -199.9,94.49 -286.21,160.21zm-330.17 258.22c244.61,34.61 505.54,15.16 709.32,-138.05 -146.61,-24.89 -295.94,-57.17 -444.11,-34.23 -107.32,21.4 -186.65,102.68 -265.21,172.28zm-384.22 309.15c286.22,30.72 589.56,-20.6 817.43,-207.27 -156.72,-9.32 -314.21,-23.33 -470.16,-5.83 -141.15,17.89 -250.82,117.44 -347.27,213.1zm-344.54 288.16c269.88,18.68 567.77,10.51 780.87,-181.21 -159.83,-16.72 -321.21,-36.17 -481.44,-22.95 -130.27,8.17 -218.92,114.34 -299.43,204.16zm-76.6 80.89c-149.72,54.45 -243.84,212.72 -275.33,362.05 17.49,156.33 222.82,181.6 341.82,126 49,-47.84 84.39,-107.33 122.11,-164.5 -138.05,-21.39 -276.1,-44.72 -409.48,-87.11 241.48,-73.11 530.03,3.89 726.81,-191.71 -165.66,-33.45 -337.17,-73.89 -505.93,-44.73zm3643.4 1341.23c-235.66,498.93 -455.38,1004.87 -670.04,1513.14 -172.28,395.87 -296.71,810.42 -459.27,1210.18 23.34,-234.88 87.5,-462.37 133.39,-692.98 87.88,-421.94 147.38,-849.31 233.33,-1271.64 120.55,-617.91 213.1,-1241.29 358.93,-1853.77 -171.88,297.89 -309.54,614.03 -482.98,911.53 -476.38,881.97 -981.93,1748 -1457.14,2630.76 -136.09,243.83 -212.32,513.32 -310.32,773.08 -99.56,264.06 -148.93,543.27 -237.6,810.82 -87.5,268.71 -134.94,547.93 -179.66,826.37 86.72,-260.17 153.22,-527.32 264.05,-778.14 202.99,-435.17 393.54,-878.09 657.2,-1280.97 -129.49,318.88 -238.77,645.92 -337.93,975.31 -122.11,448.37 -286.23,891.3 -315.78,1359.11 62.22,-281.54 144.27,-559.58 267.55,-820.52 131.84,-283.11 223.84,-487.03 352.56,-771.3 -165.22,603.19 -239.04,989.79 -307.06,1673.1 184.72,-712.42 465.88,-1395.69 769.6,-2064.94 -112,482.21 -325.12,936.42 -393.16,1428.74 -44.34,264.06 -127.17,521.09 -145.06,789.81 100.72,-274.54 206.07,-591.99 310.99,-915.85 136.01,-392.32 231.1,-616.72 379.66,-960.48 -213.89,979.19 -288.51,1227.09 -456.93,2145.83 56.38,-187.44 102.66,-377.99 178.1,-559.21 194.84,-449.16 300.53,-739.77 423.01,-1213.43 -28.41,292.77 -45.85,297.92 -65.96,425.11 -112.18,525.1 -202.27,1012.31 -255.94,1538.85 70.46,-287.18 164.04,-543.67 244.22,-833.75 132.02,-479.92 260.93,-955.08 428.93,-1420.96 -91.38,462.37 -178.1,925.92 -272.6,1387.9 -92.55,294.38 -144.27,599.65 -167.99,907.26 51.32,-220.11 121.66,-410.2 194.43,-649.44 143.65,-392.37 142.82,-403.63 253.27,-758.68 61.44,-191.71 86.73,-295.86 167.27,-509.85 -30.34,358.94 -31.27,336.01 -110.6,687.55 -52.11,217 -86.31,346.39 -147.38,652.94 -42.43,209.3 -64.3,317.85 -87.12,587.2 71.17,-215.06 133.49,-378.09 209.99,-645.54 144.52,-467.06 270.29,-868.36 357.39,-1312.85 -21.78,284.66 -55.23,568.53 -89.06,852.04 -45.49,437.09 -229.82,852.02 -204.93,1297.28 61.05,-272.2 166.27,-546.22 236.04,-801.47 97.9,-262.8 76.79,-232.23 239.55,-612.88 -37.07,429.11 -48.83,386.51 -73.74,671.56 -1.57,235.65 -53.03,544.48 -47.58,780.13 35.76,-303.33 123.66,-595.76 208.82,-887.43 93.34,-313.43 111.68,-401.97 217.18,-712.06 -48.25,516.74 -102.58,963.33 -148.72,1582.59 66.9,-105.77 169.15,-520.92 196.75,-642.64 87.89,-374.1 67.51,-321.29 167.01,-713.35 14.53,316.36 8.45,278.72 -4.06,433.75 -39.28,375.66 -19.47,606.38 -24.92,983.98 29.16,-200.28 43.2,-252.88 94.92,-448.88 70.76,-266.39 65.32,-551.43 179.66,-805.76 36.55,401.72 1.55,806.53 12.44,1209.42 100.33,-430.1 136.11,-871.49 231,-1301.97 71.94,379.54 22.93,766.47 36.93,1149.91 72.73,-323.93 120.17,-652.93 157.12,-982.69 9.72,-222.05 18.66,-444.1 48.6,-664.2 64.56,427.76 42.39,862.14 41.61,1293.41 45.89,-327.83 98,-654.49 136.5,-983.08 19.84,-248.51 7.01,-499.33 53.28,-745.49 35.77,189.38 47.84,382.27 88.27,571.25 60.67,-558.81 75.45,-1124.24 38.11,-1685.39 -12.06,-285.83 0,-572.82 -32.27,-857.47 -49,-612.1 -82.06,-1225.76 -158.28,-1835.51 -55.99,943.42 -249.27,1871.28 -403.26,2801.87 -40.06,212.32 -57.95,431.65 -143.89,632.7 -39.66,-285.43 -9.72,-573.99 12.06,-859.42 34.61,-1324.9 193.27,-2645.15 176.94,-3972 -202.23,438.27 -353.5,897.92 -565.43,1331.51zm1475.79 -1205.51c145.06,570.48 264.82,1148.35 327.05,1734.39 56.38,520.71 119.38,1042.19 120.94,1566.41 7.78,570.86 3.1,1141.74 1.94,1712.23 2.73,342.2 -21.39,684.03 -71.16,1022.36 164.89,-549.88 189,-1126.97 233.32,-1695.12 137.27,269.88 110.06,581.76 144.27,874.2 129.12,-579.05 104.23,-1183.37 -3.49,-1763.57 163.33,356.99 254.33,745.87 285.82,1136.3 31.51,-278.83 37.72,-560.76 18.67,-840.76 -20.22,-247.32 -105.39,-482.2 -162.56,-722.14 169.55,250.06 308.39,524.6 371.39,822.08 -12.06,-131.43 -19.84,-263.26 -40.45,-393.14 -31.1,-218.56 -117.05,-425.05 -139.99,-645.15 90.21,101.87 165.66,215.04 235.66,331.71 -48.22,-192.88 -91.77,-388.5 -168.77,-572.43 -379.55,-857.87 -786.32,-1703.67 -1152.64,-2567.37zm-3172.09 872.64c-351.54,482.21 -691.41,972.97 -1016.52,1473.46 -259.38,421.93 -525.76,855.92 -641.27,1342.8 168.78,-280.38 304.89,-589.16 545.22,-818.6 -249.27,510.6 -544.81,1003.7 -696.1,1556.3 120.17,-250.83 174.03,-383.93 312.48,-625.42 138.04,-253.16 413.94,-573.11 580.79,-806.05 -119,203.77 -330.91,666.13 -449.14,870.28 -76.37,245.29 -50.97,116.69 -114.74,307.64 -97.61,301.38 -186.67,605.86 -250.06,916.98 152.06,-352.34 252,-727.98 451.88,-1058.15 133,-230.21 235.27,-478.32 393.16,-694.14 -108.11,291.65 -242.67,573.98 -321.21,876.52 -128.72,486.5 -308.39,962.49 -372.55,1464.13 172.27,-646.7 461.98,-1251.4 772.31,-1841.33 240.33,-428.94 343.38,-913.09 482.21,-1380.14 145.05,-505.93 299.44,-1009.52 484.54,-1502.61 93.34,-241.11 208.44,-473.65 287.78,-720.59 -149.33,213.1 -287.39,434.37 -448.78,638.92zm3950.62 -640.47c256.66,500.47 507.49,1004.45 721.38,1525.17 218,488.03 415.3,986.55 561.59,1500.47 31.95,112.23 61.46,225.18 88.22,338.92 132.6,568.53 287.77,1141.75 275.32,1730.89 85.95,-612.86 5.45,-1232.74 -128.32,-1832.38 180.04,453.42 340.65,919.29 405.2,1404.63 -6.61,-237.62 6.23,-476.38 -21,-713.22 -31.1,-263.65 -132.2,-514.1 -150.1,-779.7 182.38,233.33 262.49,522.28 369.82,793.32 -26.83,-350 -123.65,-692.2 -269.1,-1010.7 -56.07,-122.64 -115.74,-243.37 -178.23,-362.59 -249.93,-476.88 -544.93,-929.41 -835.19,-1382.69 -286.21,-399.37 -529.26,-829.86 -839.59,-1212.12z"/>
   </g>
  </g>
 </g>
</svg>
