<?xml version="1.0" encoding="UTF-8"?>
<!DOCTYPE svg PUBLIC "-//W3C//DTD SVG 1.1//EN" "http://www.w3.org/Graphics/SVG/1.1/DTD/svg11.dtd">
<!-- Creator: CorelDRAW -->
<svg xmlns="http://www.w3.org/2000/svg" xml:space="preserve" width="173.397mm" height="173.397mm" version="1.1" style="shape-rendering:geometricPrecision; text-rendering:geometricPrecision; image-rendering:optimizeQuality; fill-rule:evenodd; clip-rule:evenodd"
viewBox="0 0 17339.72 17339.72"
 xmlns:xlink="http://www.w3.org/1999/xlink"
 xmlns:xodm="http://www.corel.com/coreldraw/odm/2003">
 <defs>
  <style type="text/css">
   <![CDATA[
    .str0 {stroke:#2B2A29;stroke-width:16.93;stroke-miterlimit:22.9256}
    .fil1 {fill:none}
    .fil0 {fill:#2B2A29}
    .fil2 {fill:#FEFEFE}
   ]]>
  </style>
 </defs>
 <g id="Слой_x0020_1">
  <metadata id="CorelCorpID_0Corel-Layer"/>
  <g id="_3076867731456">
   <g>
    <path class="fil0" d="M12192.35 14503.17c-0.06,-0.01 -0.13,0 -0.17,0.08l0.17 -0.08zm-3791.99 -6296.85l0.01 0 -0.01 0zm-873.33 -1308.9l0.22 -3.19 -0.22 3.19zm0.69 -9.58l0.22 -3.19 -0.22 3.19zm4592.48 7680.48l-1.52 -18.96 1.52 18.96zm-14.01 -146.15c-0.6,-4.73 -1.21,-9.2 -1.81,-13.43l1.81 13.43zm-2.14 -15.68c-0.65,-4.46 -1.3,-8.62 -1.94,-12.45l1.94 12.45zm-2.33 -14.7c-0.64,-3.66 -1.27,-7.02 -1.91,-10.04l1.91 10.04zm-2.3 -11.81c-0.59,-2.7 -1.18,-5.13 -1.78,-7.23l1.78 7.23zm-2.28 -8.95c-0.55,-1.79 -1.09,-3.33 -1.64,-4.6l1.64 4.6zm-2.27 -5.94c-0.54,-1.04 -1.08,-1.8 -1.6,-2.29l1.6 2.29zm-2.2 -2.77c-0.55,-0.3 -1.11,-0.3 -1.66,0.03l1.66 -0.03zm-2.26 0.54c-0.52,0.52 -1.04,1.34 -1.55,2.44l1.55 -2.44zm-2.22 4.05c-0.48,1.27 -0.96,2.8 -1.44,4.59l1.44 -4.59zm-2.2 7.68c-0.48,2.09 -0.95,4.45 -1.43,7.09l1.43 -7.09zm-2.15 11.31c-0.49,3.08 -0.98,6.48 -1.48,10.18l1.48 -10.18zm-2.04 14.5c-0.49,4.04 -1,8.44 -1.5,13.18l1.5 -13.18zm-2.17 19.72c-0.49,5.09 -0.99,10.54 -1.49,16.36l1.49 -16.36zm-103.59 149.67l-0.73 -11.87 0.73 11.87zm-14.65 -192.57c-0.57,-5.34 -1.14,-10.41 -1.72,-15.14l1.72 15.14zm-2.24 -19.24c-0.56,-4.44 -1.13,-8.6 -1.69,-12.44l1.69 12.44zm-2.24 -16.06c-0.6,-3.9 -1.21,-7.43 -1.82,-10.6l1.82 10.6zm-2.17 -12.33c-0.63,-3.13 -1.27,-5.87 -1.9,-8.15l1.9 8.15zm-2.26 -9.36c-0.65,-2.16 -1.29,-3.87 -1.94,-5.1l1.94 5.1zm-2.24 -5.61c-0.66,-1.1 -1.32,-1.73 -1.98,-1.82l1.98 1.82zm-2.27 -1.8c-0.66,0.05 -1.33,0.61 -2.01,1.74l2.01 -1.74zm-2.27 2.24c-0.69,1.3 -1.38,3.15 -2.05,5.61l2.05 -5.61zm-2.24 6.33c-0.72,2.69 -1.44,6.01 -2.16,10.03l2.16 -10.03zm-2.28 10.71c-0.73,4.15 -1.47,9 -2.2,14.58l2.2 -14.58zm-2.31 15.51c-0.74,5.76 -1.48,12.28 -2.23,19.59l2.23 -19.59zm-2.26 19.73c-0.74,7.29 -1.49,15.34 -2.24,24.23l2.24 -24.23zm-2.38 25.86c-0.74,8.92 -1.49,18.6 -2.23,29.15l2.23 -29.15zm-2.28 29.93c-0.76,10.79 -1.51,22.43 -2.28,34.98l2.28 -34.98zm-2.46 37.85c-0.75,12.42 -1.49,25.7 -2.26,39.9l2.26 -39.9zm-105.06 -146.8c-0.88,-13.15 -1.71,-25.53 -2.55,-37.14l2.55 37.14zm-2.68 -39.16c-0.84,-11.74 -1.67,-22.73 -2.46,-32.92l2.46 32.92zm-2.79 -37.17c-0.74,-9.46 -1.46,-18.24 -2.15,-26.37l2.15 26.37zm-2.23 -27.2c-0.74,-8.65 -1.47,-16.51 -2.17,-23.69l2.17 23.69zm-2.45 -26.57c-0.65,-6.54 -1.28,-12.45 -1.88,-17.76l1.88 17.76zm-2.05 -19.25c-0.61,-5.14 -1.19,-9.69 -1.75,-13.67l1.75 13.67zm-1.97 -15.28c-0.59,-4.07 -1.16,-7.46 -1.72,-10.26l1.72 10.26zm-1.86 -10.91c-0.54,-2.62 -1.05,-4.64 -1.56,-6.11l1.56 6.11zm-1.7 -6.54c-0.49,-1.34 -0.98,-2.12 -1.43,-2.39l1.43 2.39zm-1.58 -2.49c-0.48,-0.17 -0.93,0.19 -1.37,1.15l1.37 -1.15zm-1.41 1.19c-0.45,1 -0.89,2.62 -1.32,4.76l1.32 -4.76zm-1.4 5.21c-0.41,2.16 -0.81,4.84 -1.19,8.01l1.19 -8.01zm-1.21 8.24c-0.38,3.19 -0.74,6.88 -1.1,11.04l1.1 -11.04zm-1.18 12.07c-0.36,4.32 -0.71,9.09 -1.04,14.33l1.04 -14.33zm-1.04 14.39c-0.33,5.31 -0.65,11.13 -0.96,17.33l0.96 -17.33zm-1 18.33c-0.92,18.88 -1.75,41.67 -2.5,67.61l2.5 -67.61zm-2.52 68.51c-0.76,26.56 -1.45,56.38 -2.07,88.56l2.07 -88.56zm-296.72 312.24l-2.78 -32.55 2.78 32.55zm-61.79 -801.58c-0.17,-0.32 -0.36,-0.54 -0.53,-0.71l0.53 0.71zm-1.02 -1.04c-0.17,-0.04 -0.34,0.02 -0.51,0.12l0.51 -0.12zm-1 0.56c-0.17,0.24 -0.33,0.58 -0.5,0.93l0.5 -0.93zm-186.33 316.65c-1.3,-13.1 -2.61,-26.1 -3.96,-38.98l3.96 38.98zm-186.88 479.26l-0.36 -6.14 0.36 6.14zm-5.52 -92.5c-2.02,-32.55 -4.1,-64.92 -6.3,-96.8l6.3 96.8zm-146.36 -318.63c-0.51,17.83 -0.96,35.91 -1.38,54.14l1.38 -54.14zm-662.34 417.28l-1.69 -18.24 1.69 18.24zm-2992.99 0l-1.23 -30.67 1.23 30.67zm-275.14 -1252.3c-6.26,31.61 -12.4,63.03 -18.44,94.3l18.44 -94.3zm-43.68 227.56c-3.7,19.97 -7.35,39.86 -10.96,59.73l10.96 -59.73zm-517.39 639.12c-2.71,14.97 -5.38,29.91 -8,44.81l8 -44.81zm-35.2 207.89c-2.28,14.49 -4.52,28.96 -6.74,43.45l6.74 -43.45zm-124.08 177.73l0.04 -2 -0.04 2zm1.61 -56.54c0.62,-18.59 1.34,-37.2 2.16,-55.86l-2.16 55.86zm-152.25 56.54l0.24 -4.77 -0.24 4.77zm29.26 -557.24c0.04,-4.71 0.07,-9.2 0.05,-13.23l-0.05 13.23zm0.05 -13.5c-0.02,-4.15 -0.09,-7.8 -0.19,-11.21l0.19 11.21zm-0.25 -13.21c-0.11,-3.24 -0.24,-6.22 -0.41,-8.77l0.41 8.77zm-0.44 -9.19c-0.18,-2.52 -0.39,-4.58 -0.63,-6.43l0.63 6.43zm-0.81 -7.68c-0.25,-1.66 -0.51,-3.11 -0.81,-4.15l0.81 4.15zm-0.86 -4.3c-0.31,-1.06 -0.67,-1.7 -1.05,-2.15l1.05 2.15zm-1.34 -2.4c-0.38,-0.28 -0.77,-0.36 -1.2,-0.08l1.2 0.08zm-1.26 -0.06c-0.44,0.32 -0.93,1.01 -1.44,1.9l1.44 -1.9zm-1.84 2.65c-0.46,0.93 -0.96,2.06 -1.47,3.45l1.47 -3.45zm-1.66 3.93c-0.56,1.57 -1.14,3.48 -1.75,5.54l1.75 -5.54zm-2.24 7.24c-0.59,2.11 -1.21,4.38 -1.84,6.94l1.84 -6.94zm-2.01 7.59c-0.64,2.61 -1.31,5.52 -2,8.55l2 -8.55zm-169.84 586.17l0.87 -19.02 -0.87 19.02zm12.49 -456.84c-0.14,-0.01 -0.28,0.02 -0.43,0.1l0.43 -0.1zm-110.45 74.93c-1.07,1.34 -2.17,3.07 -3.3,5.11l3.3 -5.11zm-3.51 5.51c-1.1,2.03 -2.24,4.38 -3.39,7.04l3.39 -7.04zm-3.5 7.3c-1.17,2.73 -2.37,5.75 -3.59,9.09l3.59 -9.09zm-3.8 9.64c-1.17,3.23 -2.36,6.75 -3.57,10.51l3.57 -10.51zm-4.06 12.04c-1.2,3.78 -2.42,7.82 -3.66,12.11l3.66 -12.11zm-3.86 12.79c-1.33,4.63 -2.69,9.53 -4.07,14.71l4.07 -14.71zm-4.11 14.86c-1.27,4.8 -2.56,9.82 -3.87,15.05l3.87 -15.05zm-4.56 17.83c-1.34,5.42 -2.7,11.05 -4.07,16.9l4.07 -16.9zm-4.18 17.34c-1.41,6.03 -2.84,12.26 -4.28,18.71l4.28 -18.71zm-9.11 40.78c-1.57,7.29 -3.14,14.79 -4.73,22.49l4.73 -22.49zm-101.03 19.5c-0.12,-0.74 -0.28,-1.34 -0.44,-1.85l0.44 1.85zm-0.58 -2.23c-0.19,-0.49 -0.38,-0.89 -0.61,-1.1l0.61 1.1zm-0.7 -1.14c-0.22,-0.17 -0.45,-0.19 -0.71,-0.11l0.71 0.11zm-0.89 -0.04c-0.28,0.15 -0.58,0.45 -0.91,0.9l0.91 -0.9zm-1.11 1.2c-0.29,0.45 -0.61,1.02 -0.94,1.7l0.94 -1.7zm-1.16 2.16c-0.39,0.85 -0.81,1.89 -1.25,3.07l1.25 -3.07zm-111.93 150.68c0.03,-0.05 0.04,0.01 0.04,0.21l-0.04 -0.21zm6032.79 1744.23c0.24,-1.83 0.48,-3.65 0.76,-5.46l-0.76 5.46zm-6152.72 -1670.54l110.17 0 0 -0.01 0.64 -5.06 0.01 -0.13 0.03 -0.27 0.57 -4.46 0.58 -4.68 0.57 -4.48 0.54 -4.28 0.32 -2.54 0.21 -1.57 0.5 -3.92 0.47 -3.72 0.46 -3.56 0.02 -0.16 0.83 -6.38 0.39 -3.02 0.38 -2.82 0.34 -2.66 0.27 -2 0.06 -0.48 0.32 -2.31 0.28 -2.14 0.28 -1.97 0.24 -1.81 0.1 -0.72 0.14 -0.92 0.21 -1.47 0.19 -1.31 0.17 -1.15 0.14 -1 0.02 -0.12 0.12 -0.72 0.11 -0.68 0.09 -0.53 0.02 -0.11 0.14 -0.53c0.03,-0.04 0.04,0.02 0.04,0.21l-0.01 0.38 -0.03 0.5 -0.05 0.64 -0.06 0.77 -0.09 0.92 -0.02 0.3 -0.08 0.75 -0.12 1.19 -0.13 1.31 -0.16 1.44 -0.16 1.52 0 0.05 -0.19 1.7 -0.2 1.82 -0.21 1.95 -0.23 2.07 -0.14 1.26 -0.1 0.93 -0.27 2.31 -0.27 2.43 -0.3 2.54 -0.31 2.65 -0.05 0.49 -0.26 2.27 -0.34 2.88 -0.35 2.98 -0.36 3.09 -0.29 2.44 -0.09 0.75 -0.39 3.3 -0.41 3.41 -0.43 3.5 -0.43 3.59 -0.15 1.27 -0.3 2.42 -0.45 3.8 -0.48 3.88 -0.48 3.98 72.87 0 1.03 -5.61 3.4 -18.55 3.26 -17.7 2.83 -15.24 1.59 -8.52 1.13 -5.99 2.61 -13.78 0.42 -2.18 2.09 -10.89 1.8 -9.26 0.61 -3.1 2.31 -11.68 1.56 -7.8 0.64 -3.18 1.91 -9.4 0.19 -0.93 2.01 -9.66 0.94 -4.48 0.97 -4.53 1.82 -8.38 0.12 -0.56 1.61 -7.2 1.07 -4.72 0.24 -1.01 1.86 -7.94 0.35 -1.44 0.18 -0.73 1.67 -6.68 0.38 -1.52 0.25 -0.95 1.29 -4.8 0.13 -0.47 0.65 -2.28 1.52 -5.11 0.02 -0.08c0.52,-1.62 1.02,-3.04 1.47,-4.31l0.23 -0.64c0.45,-1.19 0.86,-2.21 1.25,-3.07l0.22 -0.46c0.34,-0.69 0.65,-1.25 0.94,-1.7l0.2 -0.3c0.33,-0.45 0.63,-0.75 0.91,-0.9l0.18 -0.07c0.26,-0.08 0.49,-0.06 0.71,0.11l0.09 0.04c0.22,0.21 0.42,0.61 0.61,1.1l0.14 0.38c0.16,0.51 0.32,1.11 0.44,1.85l0.13 0.87 0.22 1.95 0.12 1.29 0.19 3.59 0.02 0.66 0.07 3.99 0.01 0.77 0 0.77 -0.04 4.68 0 0.7 -0.06 2.69 -0.12 4.31 -0.01 0.24 -0.18 4.85 -0.02 0.53 -0.17 3.89 -0.03 0.75 -0.28 5.47 -0.03 0.64 -0.28 5.12 -0.09 1.33 -0.28 4.7 -0.4 6.29 -0.12 1.8 -0.33 4.76 -0.41 5.82 -0.08 0.97 -0.52 7.02 -0.56 7.24 -0.6 7.46 -0.01 0.16 -0.61 7.49 -0.39 4.7 -0.28 3.13c-0.89,10.58 -1.87,21.6 -2.91,32.99l-0.26 2.96 -0.53 5.63 -0.75 8.08 -0.06 0.64 -0.84 8.82 -0.42 4.53 -0.42 4.39 -0.88 9 -0.08 0.83 -0.8 8.26 -0.6 6.13 -0.3 3 -0.92 9.19 -0.92 9.24 70.95 0 1.17 -6.79 0.37 -2.09 1.55 -8.84 1.53 -8.8 1.55 -8.74 0.13 -0.83 1.4 -7.89 1.53 -8.65 1.54 -8.6 0.64 -3.62 0.89 -4.94 1.53 -8.5 1.53 -8.44 1.14 -6.29 0.38 -2.09 1.52 -8.31 1.51 -8.25 1.52 -8.17 0.11 -0.64 1.4 -7.46 1.5 -8.03 1.5 -7.95 0.6 -3.22 0.89 -4.66 1.49 -7.78 1.48 -7.71 0.3 -1.53 1.19 -6.09 1.47 -7.53 1.47 -7.42 1.45 -7.34 0.09 -0.47 0.52 -2.56 3.73 -18.39 0.56 -2.71c1.59,-7.7 3.16,-15.2 4.73,-22.49l0.39 -1.84 4.1 -18.72 0.08 -0.34 0.06 -0.3 0.2 -0.87 4.28 -18.71 0.11 -0.44c1.37,-5.86 2.73,-11.47 4.07,-16.9l0.3 -1.23 0.39 -1.55c1.3,-5.22 2.6,-10.28 3.87,-15.05l0.04 -0.15c1.38,-5.18 2.74,-10.08 4.07,-14.71l0.2 -0.68c1.25,-4.3 2.46,-8.32 3.66,-12.11l0.49 -1.53c1.22,-3.76 2.4,-7.28 3.57,-10.51l0.1 -0.25 0.01 -0.04 0.1 -0.26c1.22,-3.33 2.42,-6.37 3.59,-9.09l0.11 -0.26c1.15,-2.66 2.28,-5 3.39,-7.04l0.21 -0.4c1.12,-2.04 2.23,-3.77 3.3,-5.11l-0.19 3.32 -0.19 3.44 -0.21 3.55 -0.21 3.65 -0.07 1.06 -0.15 2.7 -0.24 3.88 -0.23 3.97 -0.25 4.07 -0.14 2.36 -0.12 1.82 -0.25 4.28 -0.28 4.38 -0.27 4.49 -0.23 3.87 -0.05 0.69 -0.29 4.68 -0.3 4.76 -0.3 4.85 -0.31 4.95 -0.04 0.67 -0.28 4.38 -0.32 5.12 -0.33 5.22 -0.33 5.3 -0.15 2.22 -0.2 3.16 -0.35 5.47 -0.35 5.55 -0.36 5.63 -0.25 3.98 -0.12 1.74 -0.37 5.78 -0.38 5.87 -0.38 5.94 -0.38 5.9 0 0.12 -0.4 6.09 -0.39 6.16 -0.41 6.23 -0.41 6.3 -0.1 1.67 -0.31 4.69 -0.41 6.43 -0.43 6.5 -0.42 6.56 -0.23 3.61 -0.19 3.01 -0.44 6.69 -0.44 6.75 -0.43 6.8 -0.37 5.67 -0.09 1.18 -0.44 6.91 -0.46 6.97 -0.45 7.02 -0.46 7.07 -0.05 0.8 -0.41 6.33 -0.47 7.16 -0.46 7.22 -0.47 7.27 -0.19 2.87 -0.28 4.43 -0.48 7.35 -0.48 7.39 -0.47 7.44 -0.33 5.06 -0.16 2.42 -0.48 7.5 -0.49 7.56 -0.49 7.58 -0.46 7.32 -0.02 0.29 -0.5 7.66 -0.49 7.68 -0.49 7.71 -0.5 7.74 69.55 0 4.24 -35.9 2.09 -17.51 2 -16.71 4.99 -41.46 1.14 -9.33 5.15 -42.07 1.05 -8.49 0.65 -5.19 4.72 -37.68 2.18 -17.08 3.08 -23.98 2.97 -22.61 2.52 -18.97 2.64 -19.4 2.18 -15.74 2.28 -16.17 2.39 -16.4 1.43 -9.61 2.07 -13.48 0.28 -1.69 1.67 -10.5 1.83 -10.95 0.07 -0.45 1.55 -8.85 0.08 -0.39 1.59 -8.51 0.08 -0.39 1.28 -6.29 0.13 -0.63 1.37 -6.15 1.13 -4.54 0.62 -2.14c0.55,-1.89 1.06,-3.49 1.55,-4.66l0.53 -1.12c0.44,-0.86 0.88,-1.48 1.26,-1.7 0.15,-0.08 0.29,-0.11 0.43,-0.1 0.37,0.05 0.72,0.39 1.03,1.08l0.31 0.84c0.29,0.92 0.54,2.16 0.78,3.71l0.24 1.85c0.22,1.86 0.4,4.08 0.56,6.6l0.12 1.91c0.15,2.92 0.27,6.23 0.36,9.88l0.06 2.46 0.09 6.7 0.04 8.08 0 0.54 -0.04 7.69 0 0.6 -0.1 9.54 -0.16 9.96 0 0.28 -0.22 10.89 -0.18 7.53 -0.44 16.15 -0.06 2.3 -0.33 10.43 -0.43 13.29 -0.03 1.11 -0.15 4.11 -0.81 22.64 -0.02 0.31 -0.57 14.82 -0.51 13.36 -0.09 1.91 -0.64 15.71 -0.52 12.41 -0.16 3.7 -0.71 16.49 -0.49 11.23 -0.24 5.61 -0.76 17.17 -0.43 9.83 -0.35 7.63 -0.81 17.74 -0.38 8.29 -0.44 9.71 -0.84 18.21 -0.29 6.57 -0.55 11.85 -0.86 18.59 -0.21 4.74 -0.65 13.99 -0.87 18.84 -0.13 2.83 -0.74 16.11 -0.87 18.95 0 0.07 81.96 0 2.6 -19.58 0.29 -2.18 2.32 -17.49 1.6 -12 1.04 -7.74 2.65 -19.78 0.28 -2.1 2.38 -17.71 1.6 -11.94 1.06 -7.85 2.68 -19.76 0.26 -1.99 2.41 -17.71 1.6 -11.74 1.08 -7.87 2.67 -19.5 0.26 -1.85 2.42 -17.51 1.57 -11.4 1.09 -7.8 2.65 -19.01 0.23 -1.7 2.41 -17.09 2.62 -18.55 2.61 -18.28 0.21 -1.54 2.37 -16.45 2.55 -17.67 2.53 -17.33 4.8 -32.37 0.17 -1.13 2.43 -16.13 0.18 -1.18 2.23 -14.5 1.34 -8.75 1 -6.46 2.32 -14.7 0.15 -0.99 2.11 -13.18 1.26 -7.78 0.96 -5.84 2.17 -13.05 0.13 -0.8 0.72 -4.21 2.09 -12.22 0.33 -1.9 0.9 -5.11 1.99 -11.14 0.11 -0.63 2.27 -12.15 1.01 -5.31 1.73 -8.78 0.48 -2.36 0.09 -0.46 0.5 -2.38 1.7 -7.93 0.67 -3.06c0.68,-3.03 1.36,-5.94 2,-8.55l0.07 -0.3 0.1 -0.35c0.63,-2.57 1.25,-4.83 1.84,-6.94l0.49 -1.7c0.61,-2.07 1.19,-3.97 1.75,-5.54l0.05 -0.16 0.14 -0.32c0.51,-1.39 1.01,-2.52 1.47,-3.45l0.4 -0.75c0.51,-0.89 1,-1.58 1.44,-1.9l0.06 -0.02c0.42,-0.27 0.82,-0.2 1.2,0.08l0.29 0.25c0.38,0.43 0.74,1.09 1.05,2.15l0.05 0.15c0.3,1.05 0.57,2.49 0.81,4.15l0.18 1.25c0.24,1.85 0.45,3.92 0.63,6.43l0.02 0.15 0.01 0.27c0.18,2.56 0.3,5.53 0.41,8.77l0.06 2c0.1,3.4 0.17,7.07 0.19,11.21l0 0.2 0 0.07c0.02,4.01 -0.01,8.53 -0.05,13.23l-0.06 4.65 -0.25 13.12 -0.04 2.2 0 0.21 -0.09 3.13 -0.43 14.44 -0.26 7.57 -0.76 19.88 -0.01 0.18 -1.17 25.77 -0.14 2.84 -1.45 28.9 -0.02 0.11 -1.67 30.32 -0.19 3.37 -0.69 11.93 -1.51 25.12 -0.4 6.63 -0.4 6.61 -3.12 51.68 -0.38 6.33 -0.37 6.29 -0.16 2.6 -0.21 3.65 -0.37 6.23 -3.54 60.6 -0.29 4.94 -0.05 0.95 -0.34 5.87 -2.28 40.19 -0.32 5.63 -0.32 5.59 -0.31 5.58 -0.61 11.04 -0.31 5.47 -0.29 5.45 -0.3 5.42 -0.29 5.39 -0.3 5.36 -0.29 5.33 -0.28 5.31 -0.29 5.27 -0.28 5.24 -0.29 5.23 -0.27 5.18 -0.2 3.59 -0.08 1.57 -0.27 5.14 -0.27 5.09 -0.26 5.08 -0.27 5.05 -0.26 5.02 -0.52 9.95 -0.25 4.93 -0.26 4.9 -0.25 4.88 -0.24 4.85 -0.49 9.62 -0.24 4.75 0 0.02 89.23 0 0.52 -3.25 1.41 -8.8 1.92 -12.12 1.94 -12.2 0.6 -3.73 1.34 -8.54 1.96 -12.33 1.96 -12.39 0.67 -4.22 1.3 -8.23 1.97 -12.51 1.99 -12.57 0.75 -4.71 1.24 -7.9 1.99 -12.65 2 -12.7 0.83 -5.21 1.18 -7.53 2.01 -12.78 2.02 -12.81 0.9 -5.69 1.12 -7.13 2.03 -12.87 2.03 -12.88 0.98 -6.17 1.05 -6.74 2.04 -12.91 2.05 -12.92 1.04 -6.64 1 -6.31 2.05 -12.93 2.05 -12.94 1.12 -7.1 0.93 -5.85 2.05 -12.93 2.05 -12.94 1.21 -7.52 0.86 -5.39 2.06 -12.9 2.05 -12.88 1.28 -7.94 0.78 -4.92 2.06 -12.83 2.07 -12.8 1.34 -8.35 0.72 -4.43 2.05 -12.73 2.06 -12.7 1.42 -8.71 2.7 -16.56 2.05 -12.55 1.48 -9.04 0.57 -3.47 2.05 -12.45 2.05 -12.39 1.55 -9.34 0.49 -2.99 2.05 -12.26 3.64 -21.8 0.43 -2.51 2.03 -12.05 2.02 -11.96 1.67 -9.82 0.35 -2.05 5.76 -33.51 0.28 -1.59 3.99 -22.93 1.78 -10.13 0.21 -1.18 0.31 -1.75 5.32 -29.87 0.16 -0.88 0.13 -0.77 5.79 -31.84 0.06 -0.37 5.79 -31.06 -1.91 14.33 -1.75 13.29 -0.12 0.94 -1.85 14.12 -1.58 12.19 -0.23 1.85 -1.79 13.94 -1.41 11.1 -0.35 2.74 -1.73 13.75 -1.25 10.05 -0.45 3.6 -1.67 13.58 -1.1 9.04 -0.54 4.44 -1.62 13.39 -0.96 8.06 -0.62 5.25 -1.57 13.24 -0.82 7.08 -0.7 6.07 -1.5 13.07 -0.71 6.14 -0.77 6.86 -1.45 12.91 -0.58 5.22 -0.84 7.63 -1.39 12.77 -0.47 4.33 -0.05 0.51 -2.18 20.49 -0.36 3.45 -0.95 9.12 -1.28 12.5 -1.12 11.11 -0.14 1.32 -1.24 12.38 -0.17 1.75 -1.02 10.55 -1.19 12.26 -0.08 0.93 -1.06 11.26 -1.13 12.15 -0.01 0.11 -1.09 11.97 -1.02 11.36 -0.05 0.68 -1.05 11.98 -0.89 10.48 -0.12 1.45 -1 11.89 -0.79 9.61 -0.18 2.23 -0.94 11.79 -0.69 8.77 -0.23 2.98 -0.89 11.72 -0.07 1.03 -0.79 10.63 -0.85 11.65 -0.51 7.11 -0.31 4.48 -0.79 11.57 -0.43 6.32 -0.34 5.2 -0.74 11.51 -0.35 5.53 -0.37 5.94 -0.69 11.45 -0.61 10.27 -0.06 1.15 -0.65 11.39 -0.22 3.98 -0.1 1.73 -0.9 17.01 -0.16 3.22 -0.41 8.11 -0.55 11.31 -0.53 11.3 -0.5 11.28c-0.82,18.67 -1.54,37.27 -2.16,55.86l-0.02 0.71 -0.7 22 0 0.28 -0.58 21.19 -0.03 1.13 -0.24 9.23 -0.04 1.93 0 0.07 97.79 0 0.36 -2.6 1.72 -12.27 1.87 -13.37 0.21 -1.49 2.11 -14.84 1.34 -9.26 2.95 -20.38 0.76 -5.17 3.61 -24.43 0.17 -1.1 3.34 -22.08 0.51 -3.44 0.46 -2.95 0.14 -0.9c2.21,-14.49 4.46,-28.96 6.74,-43.45l0.58 -3.69 0.19 -1.18 3.89 -24.33 0.05 -0.37 2.4 -14.8 1.69 -10.35 0.73 -4.44 2.44 -14.81 1.05 -6.29 3.52 -20.96 0.4 -2.4 0.37 -2.22 2.15 -12.62 2.23 -12.99 0.33 -1.86 2.58 -14.88 1.56 -8.93 1.04 -5.96c2.62,-14.9 5.29,-29.84 8,-44.81l0.13 -0.74 2.59 -14.24 2.12 -11.63 0.62 -3.38 2.79 -15.04 1.39 -7.52 0.32 -1.69 3.93 -20.95 0.65 -3.4 4.66 -24.49 0.32 -1.65 0.15 -0.76 0.2 -1.05 4.73 -24.44 0.96 -4.96 2.99 -15.28 1.21 -6.12 1.82 -9.2 3.06 -15.37 0.38 -1.92 0.83 -4.12 4.53 -22.5 0.47 -2.33 3.16 -15.5 1.83 -8.94 1.37 -6.62 3.22 -15.61 0.97 -4.68 2.29 -10.98 3.29 -15.71 0.08 -0.39 3.25 -15.38 2.52 -11.87 0.84 -3.96 3.4 -15.89 1.62 -7.57 1.81 -8.37 3.47 -16.01 0.7 -3.22 0.31 -1.41 5.77 -26.38 0.26 -1.22 3.59 -16.21 0.16 -0.72 3.46 -15.56 3.64 -16.35 1.38 -6.15 2.32 -10.28 3.73 -16.5 0.37 -1.64 3.39 -14.93 3.14 -13.73 0.67 -2.92 5.89 -25.59 0.09 -0.38 1.75 -7.58 3.92 -16.9 1.08 -4.65 2.88 -12.32 4.01 -17.07 -2.41 18.25 -1.46 11.09 -0.91 7.01 -2.33 17.94 -0.52 3.99 -1.76 13.82 -1.89 14.76 -0.35 2.89 -2.2 17.53 -0.98 7.78 -1.18 9.6 -2.12 17.25 -0.12 1.01 -1.95 16.11 -1.36 11.4 -0.67 5.6 -1.99 16.86 -1.93 16.64 -0.02 0.22 -1.9 16.51 -1.87 16.52 -0.92 8.29 -0.9 8.11 -1.79 16.29 -0.2 1.89 -1.53 14.29 -1.25 11.72 -0.45 4.36 -1.66 15.98 -0.56 5.41 -0.34 3.34 -2.03 20.16 -0.2 1.99 -0.08 0.76 -1.54 15.7 -0.86 8.81 -0.64 6.8 -1.46 15.52 -0.26 2.71 -1.17 12.73 -1.1 12.09 -0.29 3.27 -1.34 15.28 -0.53 6.07 -0.26 3.17 -1.79 21.11 -0.01 0.16 -1.22 14.92 -0.75 9.34 -0.44 5.67 -1.15 14.94 -0.27 3.48 -0.84 11.41 -0.92 12.54 -0.17 2.3 -1.04 14.77 -0.46 6.74 -0.54 7.99 -0.98 14.69 -0.06 1 -1.21 19.18 -0.27 4.4 -0.28 4.66 -0.85 14.56 -0.69 12.1 -0.31 5.65 -0.61 11.28 -0.75 14.48 -0.38 7.44 -0.34 7.01 -0.68 14.41 -0.08 1.83 -0.56 12.58 -0.46 10.62 -0.14 3.77 -0.58 14.37 -0.42 11.38 -0.12 2.99 -0.48 13.81 -0.02 0.54 -0.47 14.36 -0.25 8.23 -0.18 6.12 -0.4 14.35 -0.08 2.67 -0.08 3.42 -0.43 17.6 -0.05 2.13 -0.06 2.91 -0.31 14.38 -0.11 5.88 -0.15 8.51 -0.24 14.4 -0.01 0.3 -0.19 14.14 -0.1 9.13 -0.05 5.32 -0.14 14.47 -0.03 3.55 -0.08 10.96 -0.06 12.44 0 2.1 -0.04 14.58 87.98 0 1.66 -13 0.87 -6.69 2.56 -19.65 0.34 -2.6 2.25 -17 2.61 -19.56 2.64 -19.53 0.2 -1.54 2.46 -17.95 1.48 -10.74 1.22 -8.71 2.73 -19.43 0.06 -0.49 2.7 -18.91c4.61,-32.3 9.34,-64.53 14.22,-96.68l2.94 -19.27 5.97 -38.55 3.04 -19.27 2.8 -17.62 0.27 -1.64 2.5 -15.59 0.61 -3.68 3.14 -19.26 3.17 -19.27 2.41 -14.56 0.79 -4.72 3.25 -19.29 0.74 -4.41 2.54 -14.89 0.53 -3.07 2.79 -16.25 3.35 -19.34 0.58 -3.38 2.81 -15.98 2.21 -12.54 1.21 -6.84 3.47 -19.41 0.41 -2.33 3.1 -17.1 3.54 -19.46 3.58 -19.5 0.23 -1.3 3.4 -18.24 1.96 -10.55 1.7 -9.02 3.7 -19.62 0.04 -0.24 3.71 -19.42 3.19 -16.68 0.59 -3.02 3.67 -18.94 0.15 -0.81 3.88 -19.81 1.68 -8.57 2.23 -11.29 3.57 -18.01 0.38 -1.91 4 -19.97 1.52 -7.55 2.53 -12.48 3.47 -17.09 0.61 -3.02 4.14 -20.16 1.34 -6.54 2.84 -13.69 3.35 -16.17 0.86 -4.14 4.27 -20.38 1.16 -5.51 5.47 -25.86 0.92 -4.33 1.13 -5.3 4.41 -20.61 0.95 -4.46 3.5 -16.24 3.1 -14.31 1.41 -6.49 4.54 -20.87 0.74 -3.39 3.86 -17.58 2.95 -13.37 1.71 -7.7 4.7 -21.16 0.51 -2.29 4.24 -18.98 2.78 -12.39 2.02 -8.97 4.85 -21.47 0.26 -1.16 4.64 -20.41 2.6 -11.41 2.36 -10.28 5 -21.8 -3.04 23.46 -1.09 8.4 -1.9 14.83 -2.12 16.62 -0.81 6.4 -2.87 22.81 -0.23 1.85 -2.57 20.75 -1.23 9.93 -1.52 12.48 -2.17 17.84 -0.52 4.36 -2.63 22.03 -0.42 3.58 -2.15 18.26 -1.32 11.37 -0.07 0.53 -3.29 28.77 -0.29 2.48 -2.39 21.32 -0.58 5.2 -1.76 15.96 -1.38 12.73 -0.03 0.35 -2.8 26 -0.22 2.07 -0.07 0.71c-1.78,16.75 -3.47,33.34 -5.13,49.82l-0.56 5.47 -0.64 6.39 -2 20.3 -0.08 0.95 -2.49 26 -0.32 3.4 -2.31 24.99 -0.03 0.25 -2.18 24.37 -0.22 2.54 -1.49 17.17 -0.31 3.62 -1.09 12.84 -0.26 3.14 -1.38 16.61 -0.23 2.92 -1.54 19.42 -0.88 11.29 -1.3 17.12 -0.15 1.95 -0.61 8.25 -1.3 17.9 -0.09 1.3 -1.34 19.12 -0.38 5.58 -0.28 4.19 -1.3 19.82 -0.19 2.91 -1.53 24.51 -0.01 0.25 -1.45 24.65 -0.16 2.76 -1.12 20.2 -0.2 3.72 -0.27 4.99 -0.96 18.79 -0.08 1.78 -0.83 16.98 -0.17 3.6 -0.53 11.58 -0.16 3.55 -0.66 15.28 -0.15 3.44 -0.76 18.7 -0.13 3.31 -0.57 15.4 -0.03 0.77 -0.6 17.26 -0.02 0.67 -0.55 16.79 -0.07 1.92 -0.55 18.7 -0.14 4.84 -0.11 4.67 -0.47 17.97 -0.07 2.85 -0.17 7.15 -0.4 18.38 0 0.39 -0.36 18.81 -0.02 1.14 -0.22 13.67 -0.12 8.19 -0.2 14.71 -0.21 18.92 -0.1 10.63 -0.07 8.34 -0.06 8.02 -0.05 11.02 -0.01 2.98 -0.05 16.1 -0.02 19.17 0 2.73 0.03 16.49 0.03 9.7 0.02 3.07 0.11 19.17 0.02 4.1 0.02 2.66 0.17 19.47 0.04 4.38 0.18 15.18 0.15 11.5 0.12 8.17 0.14 9.2 0.14 9.49 0.02 1.08 71.54 0 1.06 -8.91 1.95 -16.17 1.99 -16.36 1.05 -8.65 2.92 -23.76 0.15 -1.19 3.1 -24.87 0.78 -6.25 2.35 -18.57 1.73 -13.64 1.43 -11.13 2.72 -20.99 0.49 -3.72 3.22 -24.66 0.48 -3.65 2.78 -20.96 1.47 -10.99 1.83 -13.58 0.56 -4.13 2.77 -20.39 3.36 -24.48 0.15 -1.1 3.25 -23.35 1.17 -8.41 2.26 -16.01 2.22 -15.67 1.25 -8.72 3.3 -22.94 0.2 -1.41 3.54 -24.34 0.86 -5.85 2.73 -18.46 1.94 -13.1 1.67 -11.19 3.05 -20.35 0.59 -3.93 3.7 -24.26 0.5 -3.33 3.23 -20.92 3.76 -24.25 2.78 -17.82 1.02 -6.42 3.84 -24.24 0.13 -0.82 3.75 -23.43 1.3 -8.05 2.62 -16.19 2.5 -15.31 1.47 -8.94 3.71 -22.57 0.29 -1.69 4.04 -24.27 0.93 -5.58 3.15 -18.72 2.18 -12.83 5.39 -31.59 0.72 -4.22 4.21 -24.36 0.53 -3.06 3.72 -21.32 1.82 -10.36 2.47 -14.05 3.13 -17.68 1.21 -6.77 4.38 -24.48 0.1 -0.55 4.33 -23.98 1.43 -7.88 0.58 -3.19c3.6,-19.87 7.26,-39.77 10.96,-59.73l0.19 -1.03 0.37 -1.99 4.62 -24.71 1 -5.39 3.64 -19.38 2.42 -12.81 2.27 -12 3.87 -20.28 0.88 -4.6 4.79 -24.94 0.55 -2.85 0.64 -3.28c6.04,-31.28 12.18,-62.69 18.44,-94.3l0.06 -0.27 4.97 -25.01 1.57 -7.86 3.51 -17.53 3.12 -15.48 2.01 -9.97 4.69 -23.18 0.49 -2.36 5.23 -25.62 1.08 -5.31 4.19 -20.41 2.69 -13.04 2.64 -12.78 4.33 -20.83 1.06 -5.08 5.42 -26.01 0.57 -2.7 4.92 -23.41 2.22 -10.54 3.31 -15.68 3.91 -18.45 1.68 -7.88 5.64 -26.44 -3.28 28.04 -0.46 4.02 -3.66 31.74 -2.23 19.57 -1.35 11.86 -1.73 15.45 -0.24 2.22 -2.56 22.92 -0.21 1.95 -2.14 19.42 -0.82 7.45 -2.49 23.1 -0.38 3.55 -2.81 26.45 -0.04 0.29 -2.71 25.96 -0.43 4.07 -0.55 5.41 -2.49 24.37 -1.83 18.09 -1.14 11.44 -1.41 14.26 -1.47 15.05 -1.02 10.48 -1.77 18.61 -2.68 28.57 -0.03 0.32 -0.29 3.07 -2.29 25.06 -0.04 0.55 -2.18 24.38 -0.36 4.13 -1.8 20.64 -0.65 7.68 -1.43 16.99 -0.93 11.19 -0.32 3.93 -1.4 17.12 -0.57 6.95 -0.77 9.76 -1.42 18.1 -1.9 24.91 -0.21 2.83 -0.2 2.69 -1.77 24.12 -0.05 0.79 -1.65 23.25 -0.3 4.26 -0.35 5.15 -1.39 20.68 -0.11 1.56 -1.06 16.19 -0.16 2.59 -1.03 16.26 -0.32 4.97 -0.89 14.52 -0.55 9.24 -1.04 17.92 -0.02 0.3 -1.16 20.62 -0.35 6.17 -0.12 2.38 -1.25 23.62 -0.05 1.05 -1.13 22.56 -0.23 4.45 -0.91 19.13 -0.36 7.85 -0.23 5.44 -0.9 20.66 -0.07 1.7 -0.97 23.89 -0.16 3.79 -0.87 23.24 -0.12 2.96 -0.6 17.5 -0.3 8.68 -0.06 2.1 -0.74 23.58 -0.04 1.31 -0.64 22.32 -0.12 4.71 -0.49 18.93 -0.06 2.76 -0.33 13.9 -0.16 7.04 -0.24 11.59 -0.08 3.99 -0.32 17.39 -0.12 5.82 -0.15 8.75 -0.28 18.54 -0.08 5.31 -0.27 22.06 -0.02 1.87 -0.24 23.99 -0.01 1.6 -0.16 22.49 -0.03 5.09 -0.07 19.08 0 0.71 -0.04 17.05 -0.01 6.51 0 12.17 0.02 12.21 0.02 5.52 0.05 16.95 0.01 2.01 0.11 19.39 0.03 5.22 0.19 23.06 0.01 1.66 0.27 24.86 0.03 1.93 0.3 23.07 0 0.04 0.3 18.86 0.09 6.24 0.16 9.25 0.3 16.05 0.25 12.98 0.08 3.61 0.39 18.03 0.16 7.6 0.21 8.87 0.5 20.61 0.14 5.18 0.66 24.52 0.04 1.46 0.46 15.61 0.3 10.56 36.6 0 3.3 -29.4 0.18 -1.53 3.51 -30.85 0.28 -2.36 3.28 -28.43 0.72 -6.22 2.87 -24.5 1.19 -10.07 2.44 -20.59 0.08 -0.7 2.82 -23.57 0.76 -6.32 2.15 -17.72 1.55 -12.81 2.63 -21.52 1.11 -8.96 3.14 -25.31 0.64 -5.12 3.66 -29.09 0.16 -1.28 3.86 -30.33 0.31 -2.53 3.57 -27.74 0.82 -6.33 3.11 -23.9 1.32 -10.12 2.65 -20.07 1.84 -13.91 2.17 -16.23 8.12 -60.2 3.44 -25.2 0.67 -4.84 4.01 -28.95 0.15 -1.06 4.19 -29.99 0.38 -2.71 3.85 -27.24 0.92 -6.49 3.35 -23.45 4.3 -29.92 2.02 -13.99 2.32 -15.91 2.6 -17.75 1.79 -12.13 3.17 -21.5 1.25 -8.37 3.76 -25.25 0.69 -4.6 4.37 -29.01 0.12 -0.85 4.54 -29.84 3.86 -25.19 0.71 -4.65 1.02 -6.67 3.58 -23.17 1.62 -10.42 3.03 -19.42 3.83 -24.43 0.85 -5.41 2.83 -17.94 1.89 -11.91 3.46 -21.71 1.3 -8.15 4.08 -25.47 0.71 -4.4 4.74 -29.24 0.11 -0.64 4.86 -29.9 0.52 -3.13 4.4 -26.79 1.13 -6.89 3.82 -23.03 1.76 -10.68 3.22 -19.28 2.42 -14.46 2.6 -15.52 3.08 -18.26 1.99 -11.76 3.73 -22.05 1.37 -7.99 4.41 -25.86 0.72 -4.22 5.1 -29.67 0.08 -0.44 5.21 -30.15 0.58 -3.36 4.68 -26.82 1.24 -7.18 4.04 -23.04 5.33 -30.28 2.62 -14.83 2.74 -15.49 3.33 -18.67 2.08 -11.7 4.03 -22.54 1.4 -7.88 4.75 -26.42 0.73 -4.05 5.48 -30.32 0.04 -0.21 5.56 -30.6 0.66 -3.64 4.93 -27.01 1.37 -7.52 4.27 -23.2 2.09 -11.4 3.57 -19.38 2.83 -15.3 2.87 -15.55 3.58 -19.24 2.18 -11.68 5.78 -31 5.08 -27.16 0.74 -3.91 5.86 -31.15 -2.81 33.05 -0.29 3.49 -2.44 29.34 -0.58 6.93 -2.1 25.68 -0.84 10.33 -1.77 22.08 -1.09 13.66 -1.46 18.53 -1.32 16.96 -1.17 15.04 -1.55 20.22 -0.88 11.58 -1.75 23.44 -0.61 8.18 -0.27 3.73 -2.02 27.7 -2.14 29.8 -0.1 1.47 -2.3 32.92 -1.99 29.12 -0.33 5.07 -1.72 25.71 -0.54 8.3 -1.44 22.35 -1.78 28.32 -0.28 4.45 -1.27 20.62 -0.45 7.47 -1.06 17.8 -0.73 12.44 -0.27 4.71 -1.39 24.08 -0.07 1.33 -1.35 24.01 -0.32 6 -1.45 27.09 -0.15 2.81 -1.54 29.8 -0.03 0.34 -1.46 29.37 -0.16 3.48 -1.24 26.14 -0.31 6.6 -0.24 5.32 -1.19 26.38 -0.04 0.94 -0.85 19.77 -0.54 12.8 -0.16 4 -1.15 28.27 -0.02 0.39 -1.07 28.31 -0.15 3.92 -0.38 10.34 -0.79 22.01 -0.24 7.22 -0.83 25.07 -0.13 4.13 -0.87 28.13 -0.03 1.03 -0.84 29.14 -0.06 2.05 -0.71 27.06 -0.13 5.13 -0.07 2.97 -0.68 28.75 -0.01 0.46 -0.45 20.9 -0.23 11.27 -0.11 5.77 -0.45 23.9 -0.1 5.69 -0.35 21.56 -0.13 7.44 -0.16 11.67 -0.28 20.55 -0.11 8.58 -0.26 23.65 -0.05 5.51 -0.24 26.77 -0.02 2.42 -0.18 29.22 -0.01 0.67 -0.11 28.6 -0.01 3.77 -0.05 25.55 0 6.89 0 4.03 0.04 24.46 0 4.03 0.06 19.43 0.05 13.16 0.04 7.26 0.1 17.12 0.13 17.16 0.03 4.41 0.17 19.52 0.03 2.74 0.2 18.74 0.61 48.33 0.46 29.25 0.01 0.73 0.54 30.09 0.05 2.45 0.68 33.43 0.55 24.66 0.02 0.99 0.57 23.62 0.22 9 0.65 24.65 0.13 5.06 0.7 24.62 0.11 3.87 0.56 18.85 0.37 12.04 0.32 9.85 0.61 18.78 0.07 2.43 0.88 25.66 0.19 5.55 1.05 29.14 0.08 2.25 1.21 31.57 0.04 1.08 0.8 20.11 0.43 10.52 0 0.04 32.26 0c5.23,-50.89 10.56,-101.67 15.99,-152.38l0.19 -1.84c9.45,-88.14 19.22,-176.03 29.25,-263.73l2.94 -25.68 1.41 -12.16 8.17 -70.26 0.63 -5.35c4.42,-37.67 8.88,-75.31 13.4,-112.93l0.04 -0.34 0.58 -4.86 3.97 -32.88 0.99 -8.23 3.59 -29.47c4.6,-37.7 9.23,-75.38 13.91,-113.05l2.71 -21.79 1.99 -15.87 3.15 -25.18 1.58 -12.46 3.59 -28.57 1.16 -9.07 4.05 -31.95 0.73 -5.69 9.64 -75.24 0.14 -1.09 4.72 -36.52c4.86,-37.45 9.74,-74.88 14.67,-112.31l0.07 -0.52 1.92 -14.62 3.05 -22.97 2.38 -18.02 2.6 -19.59 2.84 -21.4 2.17 -16.2 3.31 -24.79 1.72 -12.82 3.78 -28.18 1.27 -9.44 4.26 -31.56 0.81 -6.05 4.74 -34.95 0.36 -2.67 5.12 -37.63 0.1 -0.72 5.04 -36.91 0.56 -4.12 4.6 -33.52 1.03 -7.51 4.15 -30.15 5.11 -37.01 0.09 -0.65 1.97 -14.3 3.24 -23.38 2.45 -17.69 2.78 -19.99 2.93 -21.09 2.32 -16.61 3.43 -24.5 1.84 -13.22 3.91 -27.9 1.37 -9.83 4.39 -31.32 0.91 -6.43 4.89 -34.73 0.43 -3.03 5.33 -37.79 0.04 -0.37 5.3 -37.43 0.53 -3.77 4.83 -34.06 1.02 -7.18 4.34 -30.67 1.52 -10.59 3.88 -27.28 1.99 -14 3.4 -23.89 2.49 -17.43 2.92 -20.49 2.98 -20.86 2.44 -17.09 3.47 -24.29 1.96 -13.68 3.97 -27.73 1.47 -10.27 4.48 -31.18 0.97 -6.85 4.97 -34.63 0.5 -3.43 5.46 -38.09c-34.85,801.83 -44.52,1508.29 -0.68,2311.48 87.76,-947.91 199.19,-1890.81 291.37,-2837.87 5.94,837.52 17.48,1636.86 73.96,2473.96 73.66,-918.45 151.79,-1836.63 223.47,-2755.17 32.76,834.54 76.45,1649.59 141.75,2482.49 73.79,-950.38 139.33,-1901.99 203.07,-2853.09 49.88,861.8 111.16,1711.99 185.25,2572.04 69.82,-767.74 87.12,-2770.83 122.56,-4001.05l-3359.75 5025.18zm2610.84 -7991.18c14.67,-77.81 29.18,-155.64 43.42,-233.46 10.83,117.51 22.84,234.13 36.43,350.4l182.58 267.32c43.79,-258.52 85.16,-517.15 125.81,-775.68 49.88,367.32 111.17,729.68 185.26,1096.25 85.86,-402.4 140.6,-803.18 199.01,-1206.3 62.8,403.21 137.46,802.01 230.46,1204.21 64.17,-344.47 110.69,-688.19 158.9,-1033.04 33.84,218.43 68.87,435.99 107.48,653.5l236.17 -352.12c4.78,-43.93 9.42,-87.91 13.96,-131.94l16 87.27 2616.44 -3901.15 -6866.37 0 2714.45 3974.74zm2157.5 7991.18l4.08 0 0.72 -10.3 1.69 -24.68 0.74 -10.68 1.65 -24.24 0.75 -11.06 1.6 -23.82 0.77 -11.45 1.56 -23.41 0.78 -11.82 1.51 -22.99 0.81 -12.21 1.47 -22.58 0.81 -12.57 1.42 -22.18 2.21 -34.71 0.84 -13.33 1.34 -21.36 0.85 -13.71 1.29 -20.95 0.87 -14.08 1.25 -20.54 0.88 -14.47 0.21 -3.59 1.88 -31.38 1.17 -19.74 0.89 -15.22 1.13 -19.34 0.91 -15.59 1.09 -18.94 0.91 -15.97 1.97 -34.89 1.01 -18.15 0.92 -16.72 0.99 -17.74 0.93 -17.1 0.93 -17.36 0.94 -17.48 0.9 -16.96 0.94 -17.85 0.87 -16.57 0.94 -18.23 0.82 -16.2 0.94 -18.6 1.64 -32.64 0.11 -2.14 0.76 -15.41 0.94 -19.36 0.73 -15.02 0.95 -19.74 0.7 -14.63 0.94 -20.13 0.67 -14.24 0.94 -20.51 0.63 -13.86 0.93 -20.89 0.61 -13.47 0.94 -21.27 0.57 -13.09 0.93 -21.65 1.47 -34.75 0.52 -12.31 0.92 -22.43 0.48 -11.93 0.91 -22.82 1.37 -34.75 0.43 -11.16 0.9 -23.61 0.4 -10.77 0.89 -23.99 0.38 -10.39 0.88 -24.38 0.36 -10.01 0.87 -24.77 0.32 -9.63 0.86 -25.17 0.31 -9.25 0.84 -25.56 0.29 -8.87 0.82 -25.95 0.27 -8.48 0.81 -26.36 0.25 -8.11 0.79 -26.74 0.23 -7.72 0.77 -27.16 0.22 -7.34 0.76 -27.55 0.19 -6.96 0.74 -27.96 0.17 -6.57 0.72 -28.36 0.15 -6.2 0.7 -28.76 0.14 -5.82 0.68 -29.16 0.12 -5.44 0.66 -29.58 0.12 -5.04 0.62 -30 0.71 -34.9 0 -0.17 0.08 -4.27 0.58 -30.83 0.08 -3.89 0.55 -31.24 0.06 -3.51 0.53 -31.67 0.05 -3.12 0.5 -32.08 0.04 -2.73 0.47 -32.51 0.03 -2.35 0.43 -32.93 0.03 -1.95 0.41 -33.37 0.02 -1.56 0.37 -33.79 0.02 -1.18 0.34 -34.23 0 -0.78 0.3 -34.66 0.01 -0.39 0.27 -35.1 3.85 34.61 0.6 5.49 3.22 29.12 1.2 10.98 2.59 23.62 1.8 16.48 1.97 18.12 2.39 21.97 1.36 12.62 2.95 27.47 0.76 7.14 3.53 32.94 0.18 1.65 3.66 34.59 0.41 3.84 3.24 30.75 0.99 9.34 2.64 25.25 1.54 14.82 2.07 19.77 2.1 20.31 1.47 14.28 2.67 25.8 0.9 8.78 3.2 31.29 0.34 3.29 3.51 34.58 0.22 2.2 3.28 32.38 0.77 7.69 2.71 26.89 1.32 13.18 2.14 21.4 1.86 18.67 1.58 15.92 2.39 24.15 1.03 10.42 2.92 29.64 0.49 4.94 3.38 34.57 0.05 0.56 3.32 34.02 0.58 6.04 2.78 28.53 1.11 11.54 2.22 23.04 1.64 17.02 1.68 17.55 2.15 22.52 1.16 12.06 2.66 28 0.63 6.57 3.17 33.49 0.1 1.09 3.26 34.58 0.41 4.4 2.84 30.17 0.93 9.89 2.3 24.69 1.44 15.37 1.79 19.2 1.94 20.86 1.26 13.72 2.45 26.35 0.76 8.22 2.93 31.84 0.25 2.74 3.17 34.58 0.26 2.75 2.92 31.82 0.75 8.25 2.4 26.34 1.25 13.73 1.89 20.85 1.74 19.22 1.4 15.36 2.23 24.72 0.9 9.87 2.72 30.2 0.4 4.38 3.11 34.59 0.09 1.11 3.01 33.47 0.59 6.61 2.51 27.99 1.07 12.09 2.01 22.5 1.57 17.58 1.52 17.01 2.05 23.07 1.03 11.52 2.54 28.58 0.53 6.02 3.02 34.07 0.04 0.53 3.07 34.6 0.43 4.96 2.63 29.64 0.92 10.46 2.13 24.14 1.41 15.96 1.65 18.66 1.88 21.44 1.16 13.17 2.37 26.93 0.68 7.68 2.86 32.44 0.19 2.17 3.04 34.62 0.3 3.32 2.75 31.3 0.77 8.81 2.27 25.81 1.26 14.31 1.78 20.32 1.74 19.82 1.3 14.81 2.13 24.09 0.11 1.22 0.81 9.28 0 0.05 53.63 0 0.54 -8.99 1.08 -18.15 0.85 -14.45 0.75 -12.66 1.17 -19.89 0.41 -7.21 1.46 -25.32 0.1 -1.75 1.54 -27.05 0.21 -3.69 1.31 -23.35 0.51 -9.12 0.99 -17.89 0.79 -14.56 0.68 -12.44 1.09 -19.98 0.37 -7.01 1.35 -25.39 0.09 -1.58 1.42 -26.95 0.2 -3.85 1.18 -23.1 0.48 -9.26 0.9 -17.66 0.74 -14.69 0.61 -12.24 0.99 -20.09 0.33 -6.81 1.24 -25.51 0.06 -1.4 1.29 -26.89 0.19 -4.01 1.07 -22.87 0.43 -9.42 0.81 -17.46 0.66 -14.83 0.54 -12.05 0.91 -20.24 0.29 -6.63 1.11 -25.64 0.05 -1.23 1.14 -26.86 0.18 -4.18 0.95 -22.68 0.39 -9.59 1.3 -32.27 0.47 -11.88 0.8 -20.4 0.25 -6.46 0.98 -25.81 0.04 -1.05 1 -26.87 0.16 -4.36 0.8 -22.52 0.35 -9.77 0.6 -17.11 0.52 -15.18 0.4 -11.71 0.69 -20.6 0.21 -6.29 0.84 -26.03 0.03 -0.87 0.85 -26.92 0.13 -4.53 0.68 -22.39 0.3 -9.96 0.49 -16.98 0.44 -15.38 0.33 -11.56 0.57 -20.83 0.17 -6.13 0.68 -26.27 0.02 -0.71 0.69 -26.99 0.12 -4.72 0.54 -22.27 0.23 -10.18 0.39 -16.86 0.35 -15.61 0.25 -11.42 0.46 -21.08 0.12 -5.98 0.53 -26.54 0.01 -0.54 0.52 -27.1 0.09 -4.92 0.4 -22.2 0.18 -10.4 0.28 -16.75 0.26 -15.86 0.17 -11.31 0.32 -21.35 0.08 -5.83 0.37 -26.87 0.01 -0.36 0.34 -27.24 0.06 -5.13 0.26 -22.14 0.11 -10.63 0.17 -16.68 0.15 -16.13 0.11 -11.19 0.18 -21.67 0.04 -5.69 0.19 -27.22 0 -0.18 0.17 -27.42 0.02 -5.34 0.1 -22.12 0.05 -10.89 0.06 -16.6 0.04 -16.45 0.03 -11.08 0.04 -22.02 0 -5.55 0.01 -27.6c59.75,494.97 107.79,982.96 150.67,1479.57l0.39 4.5 0.4 4.49 0.38 4.47 0.39 4.45 0.38 4.42 1.9 21.88 0.38 4.32 0.38 4.3 0.37 4.28 0.15 1.69 0.22 2.58 0.38 4.25 0.37 4.22 0.37 4.21 0.37 4.19 0.37 4.17 1.46 16.51 0.36 4.08 0.36 4.07 0.36 4.04 0.29 3.22 0.07 0.81 0.36 4.01 0.36 4 0.35 3.97 0.36 3.96 0.35 3.94 0.36 3.93 0.35 3.9 0.35 3.88 0.35 3.87 0.34 3.86 0.35 3.83 0.34 3.82 0.35 3.79 0.06 0.8 0.28 2.99 0.35 3.76 0.34 3.76 0.34 3.72 0.33 3.71 0.34 3.7 0.34 3.68 0.34 3.66 0.33 3.65 0.34 3.63 0.32 3.61 0.34 3.59 0.33 3.58 0.33 3.56 0.32 3.54 0.33 3.53 0.33 3.52 0.33 3.49 0.32 3.47 0.32 3.46 0.3 3.14 0.02 0.31 0.33 3.43 0.32 3.4 0.31 3.4 67.85 0 0.09 -7.54 0.05 -4.4 0.03 -3.18 0.09 -7.6 0.08 -7.63 0.09 -7.67 0.03 -1.95 0.05 -5.75 0.09 -7.72 0.08 -7.75 0.09 -7.19 0 -0.58 0.18 -15.62 0.08 -7.84 0.06 -4.7 0.04 -3.17 0.09 -7.88 0.58 -47.15 0 -0.48 0.11 -7.98 0.1 -7.99 0.11 -8 0.07 -4.9 0.38 -27.15 0.05 -2.28 0.44 -29.45 0 -0.35 0.4 -24.04 0.1 -5.02 0.47 -26.93 0.06 -2.38 0.1 -5.57 0.16 -7.95 0.16 -7.93 0.16 -7.69 0 -0.23 0.17 -7.9 0.35 -15.75 0.11 -5.06 0.07 -2.79c0.42,-18.24 0.88,-36.31 1.38,-54.14l0 -0.11 0.82 -27.78 0.07 -2.58 0.24 -7.51 0.25 -7.47 0.24 -7.43 0.08 -2.43 0.17 -4.96 0.8 -21.95c46.7,-1240.28 3.7,-1177.49 122.91,120.73l2.44 27.23 0.15 1.8 0 0.06 2.21 25.98 0.31 3.68 0.16 1.95 1.84 22.76 0.44 5.63 0.01 0.1 2.36 30.78 0.31 4.05 1.72 23.55 0.27 3.75 2.24 31.76 0.02 0.24c2.19,31.87 4.28,64.25 6.3,96.8l0.04 0.36 1.87 30.68 0.09 1.65 0.28 4.49 1.46 24.59 0.21 3.67 0.15 2.49 0.36 6.14 0.7 12.29 0.1 1.75 0.26 4.39 0.32 5.67 0.03 0.48 94.03 0 2.43 -51.94c20.03,-433.13 -46.09,-1748.22 86.11,-472.45 1.35,12.89 2.66,25.88 3.96,38.98l0.1 1.04 3.74 38.55 0.2 2.12 0.55 5.88 2.24 24.08 0.74 8.07 0.3 3.2 0.44 4.88 2.9 32.52 0.38 4.31 0.34 3.85 0.71 8.19 1.4 16.4 0.71 8.23 0.12 1.41 0.57 6.82 0.7 8.25 0.69 8.26 1.36 16.54 0.54 6.59 0.14 1.7 1.34 16.61 0.67 8.3 0.66 8.32 0.62 7.71 0.04 0.61 0.65 8.34 0.65 8.33 1.3 16.68 0.63 8.34 0.05 0.5 0.59 7.85 0.63 8.35 0.64 8.34 0.62 8.36 0.63 8.34 0.12 1.61 0.5 6.74 0.61 8.35 0.62 8.34 0.61 8.35 1.22 16.66 0.59 8.34 0.6 8.32 0.59 8.32 0.59 8.32 0.28 3.79 0.32 4.51 0.58 8.3 0.58 8.29 0.58 8.28 0.57 8.27 1 14.22 0.15 2.29 0.57 8.24 109.57 0 0.09 -2.53 0.09 -2.54 0.09 -2.54 0.03 -0.77 0.07 -1.78 0.08 -2.54 0.1 -2.55 0.09 -2.56 0.1 -2.56 0.08 -2.57 0.1 -2.57 0.09 -2.58 0.09 -2.58 0.09 -2.59 0.1 -2.59 0.64 -18.27 0.1 -2.63 0.46 -13.22 0.1 -2.65 0.09 -2.67 0.1 -2.66 0.09 -2.68 0.1 -2.68 0.09 -2.68 0.06 -1.77 0.04 -0.92 0.08 -2.69 0.1 -2.7 0.09 -2.71 0.1 -2.71 0.09 -2.7 1.53 -44.12 0.09 -2.81 0.1 -2.8 0.09 -2.81 0.1 -2.81 0.2 -5.66 0.09 -2.84 0.1 -2.83 0.09 -2.84 1.75 -51.13 0.03 -0.83 1.66 -47.85 0.05 -1.6 1.58 -44.71 0.08 -2.27 1.5 -41.67 0.09 -2.87 1.42 -38.76 0.12 -3.38 1.35 -35.96 0.15 -3.83 1.28 -33.26 0.15 -4.21 1.22 -30.65 0.18 -4.51 1.15 -28.18 0.19 -4.74 1.1 -25.8 0.21 -4.91 1.04 -23.51 0.22 -5.02 1 -21.33 0.24 -5.06 0.94 -19.24 0.26 -5.03 0.89 -17.27 0.09 -1.58 0.86 -15.32 0.25 -4.41 0.81 -13.74 0.29 -4.69 0.85 -12.89 0.23 -3.36 0.83 -11.66 0.23 -2.88 0.69 -8.64 0.43 -5.01 0.54 -5.73 0.48 -4.99 0.58 -5.27 0.44 -3.69 0.5 -3.8 0.53 -3.65 0.51 -2.92 0.5 -2.54 0.46 -1.96 0.54 -1.9 0.49 -1.21c0.17,-0.37 0.33,-0.69 0.5,-0.93 0.17,-0.22 0.32,-0.34 0.49,-0.44 0.17,-0.1 0.34,-0.16 0.51,-0.12 0.17,0.04 0.32,0.16 0.49,0.33 0.17,0.18 0.36,0.39 0.53,0.71l0.44 0.99 0.57 1.63 0.45 1.63 0.57 2.5 0.42 2.13 0.64 3.65 0.39 2.44 0.63 4.46 0.42 3.18 0.68 5.56 0.38 3.3 0.74 7.01 0.28 2.61 0.76 7.87 0.48 5.24 0.24 2.48 0.65 7.54 0.15 1.74 0.73 8.85 0.3 3.49 0.46 5.83 0.73 9.47 0.96 12.85 0.28 3.65 0.44 6.18 0.83 11.47 0.44 6.27 0.86 12.5 0.43 6.33 0.92 13.53 0.42 6.31 0.98 14.59 0.41 6.28 1.03 15.64 0.4 6.19 1.09 16.7 0.39 6.06 1.15 17.76 0.38 5.89 1.22 18.84 0.37 5.69 1.28 19.9 0.36 5.45 1.36 20.97 0.34 5.17 1.44 22.04 0.33 4.86 1.52 23.11 0.29 4.51 1.62 24.17 0.28 4.14 1.7 25.23 0.26 3.75 1.8 26.26 0.24 3.33 1.9 27.28 0.21 2.89 2.01 28.31 0.17 2.42 2.12 29.31 0.15 1.93 2.23 30.3 0.11 1.42 2.37 31.27 0.06 0.9 2.5 32.22 0.03 0.36 2.6 32.96 0.02 0.19 2.69 33.11 0.06 0.76 2.73 32.84 0.12 1.34 1.88 22.07 0.9 10.48 102.3 0 0.29 -26.3 0.26 -24.63 0.01 -1.45 0.27 -25.86 0.08 -8.62 0.17 -16.96 0.18 -18.43 0.07 -6.86 0.24 -24.95 0.03 -2.95 0.21 -21.65 0.12 -12.43 0.11 -11.78 0.23 -21.5 0.02 -2.29 0.25 -23.34 0.08 -6.79 0.18 -16.07 0.17 -15.41 0.35 -28.74 0.04 -1.7 0.26 -19.53 0.14 -9.8 0.17 -10.84 0.27 -17.3 0.04 -2.7 0.35 -19.34 0.1 -4.83 0.02 -0.89 0.48 -23.05 0.05 -2.32 0.41 -17.14 0.14 -5.5 0.01 -0.69 0.43 -15.7 0.07 -2.15c0.29,-9.84 0.61,-19.27 0.95,-28.14l0.56 -13.85 0.54 -11.61 0.09 -1.99c0.81,-15.99 1.72,-29.65 2.75,-40.7l0.16 -1.64c9.41,-97.03 29.26,18.75 75.84,557.95l0.9 10.43 0 0.04 100.61 0 0.14 -8.75 0.11 -8.14 1.02 -66.47 0.02 -0.84 1.14 -72.16 0.11 -6.37 0.26 -15.21 0.23 -12.78 0.04 -2.18 0.53 -29.06 0.05 -1.72c0.62,-32.19 1.31,-62 2.07,-88.56l0.02 -0.9c0.74,-25.92 1.57,-48.74 2.5,-67.61l0.04 -1c0.31,-6.22 0.63,-12.02 0.96,-17.33l0 -0.06c0.34,-5.25 0.68,-10 1.04,-14.33l0.08 -1.03c0.35,-4.13 0.72,-7.86 1.1,-11.04l0.02 -0.23c0.39,-3.19 0.78,-5.84 1.19,-8.01l0.08 -0.45c0.43,-2.14 0.87,-3.76 1.32,-4.76l0.04 -0.04c0.44,-0.96 0.89,-1.32 1.37,-1.15l0.15 0.1c0.45,0.26 0.94,1.04 1.43,2.39l0.14 0.43c0.51,1.47 1.02,3.5 1.56,6.11l0.14 0.65c0.55,2.78 1.13,6.22 1.72,10.26l0.22 1.61c0.57,3.99 1.14,8.5 1.75,13.67l0.17 1.49c0.61,5.29 1.23,11.25 1.88,17.76l0.28 2.88c0.7,7.2 1.42,15.01 2.17,23.69l0.08 0.83 2.15 26.37 0.23 2.83 0.1 1.42 2.46 32.92 0.13 2.02 2.55 37.14 0.17 2.44 0.34 5.17 2.64 41.13 0.21 3.41 0.22 3.4 0.21 3.41 0.21 3.38 0.21 3.4 0.21 3.37 0.41 6.75 0.22 3.36 0.41 6.72 0.2 3.34 0.21 3.34 0.2 3.34 0.2 3.33 0.1 1.46 0.11 1.86 0.2 3.32 0.21 3.31 0.2 3.31 0.2 3.3 0.2 3.3 0.2 3.29 0.39 6.57 0.2 3.28 0.2 3.27 0.19 3.25 0.2 3.26 0.19 3.26 0.21 3.24 0.16 2.87 0.03 0.37 0.19 3.24 0.19 3.22 0.2 3.23 0.19 3.21 0.19 3.22 0.19 3.2 0.19 3.21 0.19 3.19 0.18 3.19 0.19 3.19 0.19 3.18 0.19 3.17 0.18 3.16 0.19 3.17 0.37 6.31 0.18 3.14 0.18 3.14 0.19 3.13 0.18 3.13 0.18 3.13 0.18 3.11 0.18 3.12 0.18 3.1 0.18 3.1 0.18 3.1 0.18 3.08 0.18 3.09 0.18 3.08 0.1 1.81 0.22 3.64 0.03 0.69 0.35 6.02 0 0.1 83.65 0 0.67 -13.02 2.95 -55.89c0.77,-14.23 1.52,-27.44 2.26,-39.9l0.1 -1.81 0.03 -0.46 0.05 -0.6c0.76,-12.52 1.52,-24.22 2.28,-34.98l0.05 -0.78c0.74,-10.53 1.49,-20.26 2.23,-29.15l0.06 -0.64 0.08 -0.99c0.74,-8.84 1.5,-16.97 2.24,-24.23l0.03 -0.14c0.75,-7.32 1.49,-13.82 2.23,-19.59l0.11 -0.93c0.73,-5.58 1.47,-10.43 2.2,-14.58l0.12 -0.68c0.72,-4.02 1.44,-7.34 2.16,-10.03l0.19 -0.72c0.68,-2.48 1.36,-4.31 2.05,-5.61l0.26 -0.5c0.67,-1.13 1.35,-1.69 2.01,-1.74l0.29 -0.02c0.65,0.09 1.32,0.72 1.98,1.82l0.3 0.51c0.65,1.24 1.29,2.95 1.94,5.1l0.36 1.21c0.63,2.28 1.27,5.01 1.9,8.15l0.35 1.73c0.61,3.16 1.22,6.72 1.82,10.6l0.55 3.62c0.57,3.86 1.12,7.98 1.69,12.44l0.52 4.1c0.58,4.76 1.14,9.79 1.72,15.14l0.47 4.31 1.67 16.8 0.81 8.83 1.41 16.01 0.7 8.37 0.04 0.48 0.74 9.16 0.74 9.42 0.74 9.69 1.48 20.11 0.23 3.24 0.5 7.18 1.41 20.64 0.06 0.89 0.21 3.07 0.52 8.02 0.73 11.29 0.73 11.49 0.73 11.7 0.08 1.42 0.65 10.45 94.08 0 0.01 -0.31 1.3 -27.21 0.78 -15.31 1.3 -23.58 0.65 -10.78 1.39 -21.71 0.63 -8.99 1.39 -18.44 0.57 -6.98c0.5,-5.83 1,-11.26 1.49,-16.36l0.67 -6.54c0.5,-4.73 1.01,-9.15 1.5,-13.18l0.56 -4.32c0.5,-3.74 0.99,-7.09 1.48,-10.18l0.72 -4.22c0.48,-2.64 0.95,-5.01 1.43,-7.09l0.76 -3.09c0.48,-1.79 0.96,-3.33 1.44,-4.59l0.67 -1.61c0.51,-1.11 1.03,-1.92 1.55,-2.44 0.2,-0.19 0.4,-0.39 0.6,-0.51 0.55,-0.32 1.1,-0.34 1.66,-0.03 0.19,0.11 0.4,0.29 0.6,0.48 0.52,0.5 1.07,1.25 1.6,2.29l0.63 1.34c0.55,1.28 1.09,2.8 1.64,4.6l0.5 1.72c0.6,2.11 1.19,4.52 1.78,7.23l0.39 1.77c0.64,3.02 1.27,6.38 1.91,10.04l0.39 2.25c0.65,3.85 1.29,7.98 1.94,12.45l0.33 2.25c0.6,4.2 1.21,8.72 1.81,13.43l0.67 5.36 1.6 13.52 0.58 5.14 1.8 16.82 0.2 1.86 0.26 2.51 1.64 16.65 0.4 4.16 0.16 1.74 1.9 20.83 0.22 2.53 0.59 6.81 1.65 19.3 0.06 0.66 0.76 9.3 0.8 10.03 0.72 8.93 0.12 1.47 71.94 0 -0.07 -3.83 -0.08 -3.71 -0.07 -3.62 -0.03 -1.16 -0.04 -2.35 -0.07 -3.41 -0.06 -3.3 -0.04 -2.51 -0.01 -0.67 -0.06 -3.08 -0.05 -2.96 -0.04 -2.86 -0.01 -0.7 -0.03 -2.04 -0.04 -2.64 -0.03 -2.51 -0.02 -1.75 0 -0.66 -0.02 -2.29 -0.01 -2.18 -0.01 -2.05 0 -1.94 0.01 -1.82 0.01 -1.71 0 -1.06 0.01 -0.51 0.03 -1.46 0.03 -1.34 0.09 -2.31 0.05 -0.97 0.18 -1.96 0.02 -0.2 0.1 -0.46c0.05,-0.26 0.11,-0.43 0.18,-0.52 0.05,-0.08 0.11,-0.1 0.17,-0.08 0.07,0.02 0.14,0.11 0.24,0.3l0.25 0.69 0.32 1.24 0.01 0.07 0.18 0.85 0.05 0.27 0.34 1.86 0.21 1.27 0.23 1.41 0.16 1.05 0.07 0.49 0.24 1.69 0.27 1.83 0.26 1.98 0.05 0.36 0.24 1.75 0.28 2.27 0.31 2.4 0.21 1.64 0.11 0.91 0.33 2.69 0.34 2.85 0.36 2.99 0.04 0.37 0.33 2.78 0.38 3.29 0.4 3.45 0.24 2.08 0.17 1.51 0.43 3.75 0.43 3.9 0.37 3.28 0.09 0.77 0.02 0.21 0.44 4 0.49 4.37 104.48 0 -3394.91 -4971.13c66.62,1232.98 160.39,3185.91 234.92,3942.09 64.17,-808.18 110.69,-1614.62 158.89,-2423.73 62.73,950 129.52,1892.9 215.74,2841.27 63.42,-816.29 105.93,-1625.98 141.88,-2443.73 70.95,906.35 139.53,1810.87 221.91,2716.39 59.43,-808.74 96.32,-1598.38 115.65,-2408.98l4.08 42.92 0.03 0.39 4.03 42.53 0.08 0.79 3.96 42.13 0.11 1.18 3.92 41.74 0.15 1.57 3.86 41.36 0.19 1.95 3.81 40.97 0.22 2.35 3.76 40.58 0.26 2.74 3.71 40.18 0.3 3.14 3.65 39.79 0.33 3.53 3.62 39.39 0.36 3.93 3.57 39.01 0.39 4.31 3.53 38.61 0.43 4.71 3.47 38.23 0.46 5.1 3.44 37.83 0.5 5.49 3.38 37.44 0.53 5.88 3.34 37.06 0.57 6.27 3.3 36.66 0.61 6.67 3.25 36.26 0.63 7.06 3.21 35.87 0.67 7.46 3.17 35.48 0.71 7.85 3.13 35.09 0.73 8.23 3.1 34.71 0.76 8.62 3.06 34.32 0.79 9.02 3.01 33.91 0.84 9.41 2.97 33.53 0.87 9.8 2.94 33.13 0.9 10.21 2.89 32.74 0.93 10.59 2.87 32.35 0.96 10.97 2.83 31.96 1 11.38 2.78 31.57 1.04 11.76 2.75 31.17 1.07 12.17 2.71 30.78 1.1 12.54 2.68 30.4 1.14 12.94 2.65 30 1.17 13.33 2.6 29.61 1.22 13.73 2.57 29.2 1.23 14.13 2.54 28.82 1.28 14.51 2.51 28.43 1.31 14.91 2.47 28.03 1.35 15.29 2.44 27.65 1.39 15.69 2.4 27.25 1.41 16.08 2.38 26.86 1.45 16.48 2.35 26.47 1.49 16.85 2.31 26.08 1.52 17.26 2.28 25.68 1.57 17.65 2.24 25.29 1.6 18.04 2.22 24.9 1.64 18.43 2.17 24.51 1.68 18.82 2.15 24.12 1.72 19.22 2.12 23.72 1.75 19.6 2.09 23.33 1.79 20 2.06 22.94 1.83 20.39 2.03 22.55 1.87 20.78 2 22.15 1.92 21.17 1.96 21.77 1.95 21.56 1.93 21.37 2 21.96 1.91 20.98 2.04 22.34 1.87 20.59 2.07 22.74 1.85 20.2 2.12 23.13 1.82 19.79 2.15 23.52 1.79 19.42 2.21 23.91 1.76 19.02 2.24 24.3 1.73 18.63 2.3 24.69 0.71 7.66 0.98 10.53 0 0.05zm-6439.81 2238.11l10014.22 0c518.49,0 942.69,-424.21 942.69,-942.69 0,-518.49 -424.2,-942.69 -942.69,-942.69l-66.71 0c-8.33,-43.55 -26.2,-86.77 -54.36,-128.01l-4230.38 -6194.5 4159.39 -6221.2c22.52,-33.69 38.2,-68.63 47.51,-103.96l144.55 0c518.49,0 942.69,-424.21 942.69,-942.69 0,-518.49 -424.2,-942.7 -942.69,-942.7l-10014.22 0c-518.49,0 -942.7,424.21 -942.7,942.7 0,518.48 424.21,942.69 942.7,942.69l131.55 0c5.35,19.12 12.46,37.77 21.23,55.84 9.75,26.75 23.26,53.14 40.76,78.76l4223.39 6184.27 -4152.05 6190.8 -0.19 0.27c-31.01,42.05 -52.48,88.51 -62.18,137.73l-202.51 0c-518.49,0 -942.7,424.2 -942.7,942.69 0,518.48 424.21,942.69 942.7,942.69zm113.97 -16247.56l4618.38 0c110.67,0 201.22,90.55 201.22,201.22l0 0.01c0,110.67 -90.55,201.21 -201.22,201.21l-4618.38 0c-110.67,0 -201.22,-90.54 -201.22,-201.21l0 -0.01c0,-110.67 90.55,-201.22 201.22,-201.22z"/>
    <path id="_1" class="fil1 str0" d="M12192.35 14503.17c-0.06,-0.01 -0.13,0 -0.17,0.08m-3791.82 -6296.93l0.01 0m-873.34 -1308.9l0.22 -3.19m0.47 -6.39l0.22 -3.19m4592.26 7683.67l-1.52 -18.96m-12.49 -127.19c-0.6,-4.73 -1.21,-9.2 -1.81,-13.43m-0.33 -2.25c-0.65,-4.46 -1.3,-8.62 -1.94,-12.45m-0.39 -2.25c-0.64,-3.66 -1.27,-7.02 -1.91,-10.04m-0.39 -1.77c-0.59,-2.7 -1.18,-5.13 -1.78,-7.23m-0.5 -1.72c-0.55,-1.79 -1.09,-3.33 -1.64,-4.6m-0.63 -1.34c-0.54,-1.04 -1.08,-1.8 -1.6,-2.29m-0.6 -0.48c-0.55,-0.3 -1.11,-0.3 -1.66,0.03m-0.6 0.51c-0.52,0.52 -1.04,1.34 -1.55,2.44m-0.67 1.61c-0.48,1.27 -0.96,2.8 -1.44,4.59m-0.76 3.09c-0.48,2.09 -0.95,4.45 -1.43,7.09m-0.72 4.22c-0.49,3.08 -0.98,6.48 -1.48,10.18m-0.56 4.32c-0.49,4.04 -1,8.44 -1.5,13.18m-0.67 6.54c-0.49,5.09 -0.99,10.54 -1.49,16.36m-102.1 133.31l-0.73 -11.87m-13.92 -180.7c-0.57,-5.34 -1.14,-10.41 -1.72,-15.14m-0.52 -4.1c-0.56,-4.44 -1.13,-8.6 -1.69,-12.44m-0.55 -3.62c-0.6,-3.9 -1.21,-7.43 -1.82,-10.6m-0.35 -1.73c-0.63,-3.13 -1.27,-5.87 -1.9,-8.15m-0.36 -1.21c-0.65,-2.16 -1.29,-3.87 -1.94,-5.1m-0.3 -0.51c-0.66,-1.1 -1.32,-1.73 -1.98,-1.82m-0.29 0.02c-0.66,0.05 -1.33,0.61 -2.01,1.74m-0.26 0.5c-0.69,1.3 -1.38,3.15 -2.05,5.61m-0.19 0.72c-0.72,2.69 -1.44,6.01 -2.16,10.03m-0.12 0.68c-0.73,4.15 -1.47,9 -2.2,14.58m-0.11 0.93c-0.74,5.76 -1.48,12.28 -2.23,19.59m-0.03 0.14c-0.74,7.29 -1.49,15.34 -2.24,24.23m-0.14 1.63c-0.74,8.92 -1.49,18.6 -2.23,29.15m-0.05 0.78c-0.76,10.79 -1.51,22.43 -2.28,34.98m-0.18 2.87c-0.75,12.42 -1.49,25.7 -2.26,39.9m-102.8 -186.7c-0.88,-13.15 -1.71,-25.53 -2.55,-37.14m-0.13 -2.02c-0.84,-11.74 -1.67,-22.73 -2.46,-32.92m-0.33 -4.25c-0.74,-9.46 -1.46,-18.24 -2.15,-26.37m-0.08 -0.83c-0.74,-8.65 -1.47,-16.51 -2.17,-23.69m-0.28 -2.88c-0.65,-6.54 -1.28,-12.45 -1.88,-17.76m-0.17 -1.49c-0.61,-5.14 -1.19,-9.69 -1.75,-13.67m-0.22 -1.61c-0.59,-4.07 -1.16,-7.46 -1.72,-10.26m-0.14 -0.65c-0.54,-2.62 -1.05,-4.64 -1.56,-6.11m-0.14 -0.43c-0.49,-1.34 -0.98,-2.12 -1.43,-2.39m-0.15 -0.1c-0.48,-0.17 -0.93,0.19 -1.37,1.15m-0.04 0.04c-0.45,1 -0.89,2.62 -1.32,4.76m-0.08 0.45c-0.41,2.16 -0.81,4.84 -1.19,8.01m-0.02 0.23c-0.38,3.19 -0.74,6.88 -1.1,11.04m-0.08 1.03c-0.36,4.32 -0.71,9.09 -1.04,14.33m0 0.06c-0.33,5.31 -0.65,11.13 -0.96,17.33m-0.04 1c-0.92,18.88 -1.75,41.67 -2.5,67.61m-0.02 0.9c-0.76,26.56 -1.45,56.38 -2.07,88.56m-294.65 223.68l-2.78 -32.55m-59.01 -769.03c-0.17,-0.32 -0.36,-0.54 -0.53,-0.71m-0.49 -0.33c-0.17,-0.04 -0.34,0.02 -0.51,0.12m-0.49 0.44c-0.17,0.24 -0.33,0.58 -0.5,0.93m-185.83 315.72c-1.3,-13.1 -2.61,-26.1 -3.96,-38.98m-182.92 518.24l-0.36 -6.14m-5.16 -86.36c-2.02,-32.55 -4.1,-64.92 -6.3,-96.8m-140.06 -221.83c-0.51,17.83 -0.96,35.91 -1.38,54.14m-660.96 363.14l-1.69 -18.24m-2991.3 18.24l-1.23 -30.67m-273.91 -1221.63c-6.26,31.61 -12.4,63.03 -18.44,94.3m-25.24 133.26c-3.7,19.97 -7.35,39.86 -10.96,59.73m-506.43 579.39c-2.71,14.97 -5.38,29.91 -8,44.81m-27.2 163.08c-2.28,14.49 -4.52,28.96 -6.74,43.45m-117.34 134.28l0.04 -2m1.57 -54.54c0.62,-18.59 1.34,-37.2 2.16,-55.86m-154.41 112.4l0.24 -4.77m29.02 -552.47c0.04,-4.71 0.07,-9.2 0.05,-13.23m0 -0.27c-0.02,-4.15 -0.09,-7.8 -0.19,-11.21m-0.06 -2c-0.11,-3.24 -0.24,-6.22 -0.41,-8.77m-0.03 -0.42c-0.18,-2.52 -0.39,-4.58 -0.63,-6.43m-0.18 -1.25c-0.25,-1.66 -0.51,-3.11 -0.81,-4.15m-0.05 -0.15c-0.31,-1.06 -0.67,-1.7 -1.05,-2.15m-0.29 -0.25c-0.38,-0.28 -0.77,-0.36 -1.2,-0.08m-0.06 0.02c-0.44,0.32 -0.93,1.01 -1.44,1.9m-0.4 0.75c-0.46,0.93 -0.96,2.06 -1.47,3.45m-0.19 0.48c-0.56,1.57 -1.14,3.48 -1.75,5.54m-0.49 1.7c-0.59,2.11 -1.21,4.38 -1.84,6.94m-0.17 0.65c-0.64,2.61 -1.31,5.52 -2,8.55m-167.84 577.62l0.87 -19.02m11.62 -437.82c-0.14,-0.01 -0.28,0.02 -0.43,0.1m-110.02 74.83c-1.07,1.34 -2.17,3.07 -3.3,5.11m-0.21 0.4c-1.1,2.03 -2.24,4.38 -3.39,7.04m-0.11 0.26c-1.17,2.73 -2.37,5.75 -3.59,9.09m-0.21 0.55c-1.17,3.23 -2.36,6.75 -3.57,10.51m-0.49 1.53c-1.2,3.78 -2.42,7.82 -3.66,12.11m-0.2 0.68c-1.33,4.63 -2.69,9.53 -4.07,14.71m-0.04 0.15c-1.27,4.8 -2.56,9.82 -3.87,15.05m-0.69 2.78c-1.34,5.42 -2.7,11.05 -4.07,16.9m-0.11 0.44c-1.41,6.03 -2.84,12.26 -4.28,18.71m-4.83 22.07c-1.57,7.29 -3.14,14.79 -4.73,22.49m-96.3 -2.99c-0.12,-0.74 -0.28,-1.34 -0.44,-1.85m-0.14 -0.38c-0.19,-0.49 -0.38,-0.89 -0.61,-1.1m-0.09 -0.04c-0.22,-0.17 -0.45,-0.19 -0.71,-0.11m-0.18 0.07c-0.28,0.15 -0.58,0.45 -0.91,0.9m-0.2 0.3c-0.29,0.45 -0.61,1.02 -0.94,1.7m-0.22 0.46c-0.39,0.85 -0.81,1.89 -1.25,3.07m-110.68 147.61c0.03,-0.05 0.04,0.01 0.04,0.21m6032.75 1744.02c0.24,-1.83 0.48,-3.65 0.76,-5.46m-6153.48 -1665.08l110.17 0 0 -0.01 0.64 -5.06 0.01 -0.13 0.03 -0.27 0.57 -4.46 0.58 -4.68 0.57 -4.48 0.54 -4.28 0.32 -2.54 0.21 -1.57 0.5 -3.92 0.47 -3.72 0.46 -3.56 0.02 -0.16 0.83 -6.38 0.39 -3.02 0.38 -2.82 0.34 -2.66 0.27 -2 0.06 -0.48 0.32 -2.31 0.28 -2.14 0.28 -1.97 0.24 -1.81 0.1 -0.72 0.14 -0.92 0.21 -1.47 0.19 -1.31 0.17 -1.15 0.14 -1 0.02 -0.12 0.12 -0.72 0.11 -0.68 0.09 -0.53 0.02 -0.11 0.14 -0.53c0.03,-0.04 0.04,0.02 0.04,0.21l-0.01 0.38 -0.03 0.5 -0.05 0.64 -0.06 0.77 -0.09 0.92 -0.02 0.3 -0.08 0.75 -0.12 1.19 -0.13 1.31 -0.16 1.44 -0.16 1.52 0 0.05 -0.19 1.7 -0.2 1.82 -0.21 1.95 -0.23 2.07 -0.14 1.26 -0.1 0.93 -0.27 2.31 -0.27 2.43 -0.3 2.54 -0.31 2.65 -0.05 0.49 -0.26 2.27 -0.34 2.88 -0.35 2.98 -0.36 3.09 -0.29 2.44 -0.09 0.75 -0.39 3.3 -0.41 3.41 -0.43 3.5 -0.43 3.59 -0.15 1.27 -0.3 2.42 -0.45 3.8 -0.48 3.88 -0.48 3.98 72.87 0 1.03 -5.61 3.4 -18.55 3.26 -17.7 2.83 -15.24 1.59 -8.52 1.13 -5.99 2.61 -13.78 0.42 -2.18 2.09 -10.89 1.8 -9.26 0.61 -3.1 2.31 -11.68 1.56 -7.8 0.64 -3.18 1.91 -9.4 0.19 -0.93 2.01 -9.66 0.94 -4.48 0.97 -4.53 1.82 -8.38 0.12 -0.56 1.61 -7.2 1.07 -4.72 0.24 -1.01 1.86 -7.94 0.35 -1.44 0.18 -0.73 1.67 -6.68 0.38 -1.52 0.25 -0.95 1.29 -4.8 0.13 -0.47 0.65 -2.28 1.52 -5.11 0.02 -0.08c0.52,-1.62 1.02,-3.04 1.47,-4.31l0.23 -0.64c0.45,-1.19 0.86,-2.21 1.25,-3.07l0.22 -0.46c0.34,-0.69 0.65,-1.25 0.94,-1.7l0.2 -0.3c0.33,-0.45 0.63,-0.75 0.91,-0.9l0.18 -0.07c0.26,-0.08 0.49,-0.06 0.71,0.11l0.09 0.04c0.22,0.21 0.42,0.61 0.61,1.1l0.14 0.38c0.16,0.51 0.32,1.11 0.44,1.85l0.13 0.87 0.22 1.95 0.12 1.29 0.19 3.59 0.02 0.66 0.07 3.99 0.01 0.77 0 0.77 -0.04 4.68 0 0.7 -0.06 2.69 -0.12 4.31 -0.01 0.24 -0.18 4.85 -0.02 0.53 -0.17 3.89 -0.03 0.75 -0.28 5.47 -0.03 0.64 -0.28 5.12 -0.09 1.33 -0.28 4.7 -0.4 6.29 -0.12 1.8 -0.33 4.76 -0.41 5.82 -0.08 0.97 -0.52 7.02 -0.56 7.24 -0.6 7.46 -0.01 0.16 -0.61 7.49 -0.39 4.7 -0.28 3.13c-0.89,10.58 -1.87,21.6 -2.91,32.99l-0.26 2.96 -0.53 5.63 -0.75 8.08 -0.06 0.64 -0.84 8.82 -0.42 4.53 -0.42 4.39 -0.88 9 -0.08 0.83 -0.8 8.26 -0.6 6.13 -0.3 3 -0.92 9.19 -0.92 9.24 70.95 0 1.17 -6.79 0.37 -2.09 1.55 -8.84 1.53 -8.8 1.55 -8.74 0.13 -0.83 1.4 -7.89 1.53 -8.65 1.54 -8.6 0.64 -3.62 0.89 -4.94 1.53 -8.5 1.53 -8.44 1.14 -6.29 0.38 -2.09 1.52 -8.31 1.51 -8.25 1.52 -8.17 0.11 -0.64 1.4 -7.46 1.5 -8.03 1.5 -7.95 0.6 -3.22 0.89 -4.66 1.49 -7.78 1.48 -7.71 0.3 -1.53 1.19 -6.09 1.47 -7.53 1.47 -7.42 1.45 -7.34 0.09 -0.47 0.52 -2.56 3.73 -18.39 0.56 -2.71c1.59,-7.7 3.16,-15.2 4.73,-22.49l0.39 -1.84 4.1 -18.72 0.08 -0.34 0.06 -0.3 0.2 -0.87 4.28 -18.71 0.11 -0.44c1.37,-5.86 2.73,-11.47 4.07,-16.9l0.3 -1.23 0.39 -1.55c1.3,-5.22 2.6,-10.28 3.87,-15.05l0.04 -0.15c1.38,-5.18 2.74,-10.08 4.07,-14.71l0.2 -0.68c1.25,-4.3 2.46,-8.32 3.66,-12.11l0.49 -1.53c1.22,-3.76 2.4,-7.28 3.57,-10.51l0.1 -0.25 0.01 -0.04 0.1 -0.26c1.22,-3.33 2.42,-6.37 3.59,-9.09l0.11 -0.26c1.15,-2.66 2.28,-5 3.39,-7.04l0.21 -0.4c1.12,-2.04 2.23,-3.77 3.3,-5.11l-0.19 3.32 -0.19 3.44 -0.21 3.55 -0.21 3.65 -0.07 1.06 -0.15 2.7 -0.24 3.88 -0.23 3.97 -0.25 4.07 -0.14 2.36 -0.12 1.82 -0.25 4.28 -0.28 4.38 -0.27 4.49 -0.23 3.87 -0.05 0.69 -0.29 4.68 -0.3 4.76 -0.3 4.85 -0.31 4.95 -0.04 0.67 -0.28 4.38 -0.32 5.12 -0.33 5.22 -0.33 5.3 -0.15 2.22 -0.2 3.16 -0.35 5.47 -0.35 5.55 -0.36 5.63 -0.25 3.98 -0.12 1.74 -0.37 5.78 -0.38 5.87 -0.38 5.94 -0.38 5.9 0 0.12 -0.4 6.09 -0.39 6.16 -0.41 6.23 -0.41 6.3 -0.1 1.67 -0.31 4.69 -0.41 6.43 -0.43 6.5 -0.42 6.56 -0.23 3.61 -0.19 3.01 -0.44 6.69 -0.44 6.75 -0.43 6.8 -0.37 5.67 -0.09 1.18 -0.44 6.91 -0.46 6.97 -0.45 7.02 -0.46 7.07 -0.05 0.8 -0.41 6.33 -0.47 7.16 -0.46 7.22 -0.47 7.27 -0.19 2.87 -0.28 4.43 -0.48 7.35 -0.48 7.39 -0.47 7.44 -0.33 5.06 -0.16 2.42 -0.48 7.5 -0.49 7.56 -0.49 7.58 -0.46 7.32 -0.02 0.29 -0.5 7.66 -0.49 7.68 -0.49 7.71 -0.5 7.74 69.55 0 4.24 -35.9 2.09 -17.51 2 -16.71 4.99 -41.46 1.14 -9.33 5.15 -42.07 1.05 -8.49 0.65 -5.19 4.72 -37.68 2.18 -17.08 3.08 -23.98 2.97 -22.61 2.52 -18.97 2.64 -19.4 2.18 -15.74 2.28 -16.17 2.39 -16.4 1.43 -9.61 2.07 -13.48 0.28 -1.69 1.67 -10.5 1.83 -10.95 0.07 -0.45 1.55 -8.85 0.08 -0.39 1.59 -8.51 0.08 -0.39 1.28 -6.29 0.13 -0.63 1.37 -6.15 1.13 -4.54 0.62 -2.14c0.55,-1.89 1.06,-3.49 1.55,-4.66l0.53 -1.12c0.44,-0.86 0.88,-1.48 1.26,-1.7 0.15,-0.08 0.29,-0.11 0.43,-0.1 0.37,0.05 0.72,0.39 1.03,1.08l0.31 0.84c0.29,0.92 0.54,2.16 0.78,3.71l0.24 1.85c0.22,1.86 0.4,4.08 0.56,6.6l0.12 1.91c0.15,2.92 0.27,6.23 0.36,9.88l0.06 2.46 0.09 6.7 0.04 8.08 0 0.54 -0.04 7.69 0 0.6 -0.1 9.54 -0.16 9.96 0 0.28 -0.22 10.89 -0.18 7.53 -0.44 16.15 -0.06 2.3 -0.33 10.43 -0.43 13.29 -0.03 1.11 -0.15 4.11 -0.81 22.64 -0.02 0.31 -0.57 14.82 -0.51 13.36 -0.09 1.91 -0.64 15.71 -0.52 12.41 -0.16 3.7 -0.71 16.49 -0.49 11.23 -0.24 5.61 -0.76 17.17 -0.43 9.83 -0.35 7.63 -0.81 17.74 -0.38 8.29 -0.44 9.71 -0.84 18.21 -0.29 6.57 -0.55 11.85 -0.86 18.59 -0.21 4.74 -0.65 13.99 -0.87 18.84 -0.13 2.83 -0.74 16.11 -0.87 18.95 0 0.07 81.96 0 2.6 -19.58 0.29 -2.18 2.32 -17.49 1.6 -12 1.04 -7.74 2.65 -19.78 0.28 -2.1 2.38 -17.71 1.6 -11.94 1.06 -7.85 2.68 -19.76 0.26 -1.99 2.41 -17.71 1.6 -11.74 1.08 -7.87 2.67 -19.5 0.26 -1.85 2.42 -17.51 1.57 -11.4 1.09 -7.8 2.65 -19.01 0.23 -1.7 2.41 -17.09 2.62 -18.55 2.61 -18.28 0.21 -1.54 2.37 -16.45 2.55 -17.67 2.53 -17.33 4.8 -32.37 0.17 -1.13 2.43 -16.13 0.18 -1.18 2.23 -14.5 1.34 -8.75 1 -6.46 2.32 -14.7 0.15 -0.99 2.11 -13.18 1.26 -7.78 0.96 -5.84 2.17 -13.05 0.13 -0.8 0.72 -4.21 2.09 -12.22 0.33 -1.9 0.9 -5.11 1.99 -11.14 0.11 -0.63 2.27 -12.15 1.01 -5.31 1.73 -8.78 0.48 -2.36 0.09 -0.46 0.5 -2.38 1.7 -7.93 0.67 -3.06c0.68,-3.03 1.36,-5.94 2,-8.55l0.07 -0.3 0.1 -0.35c0.63,-2.57 1.25,-4.83 1.84,-6.94l0.49 -1.7c0.61,-2.07 1.19,-3.97 1.75,-5.54l0.05 -0.16 0.14 -0.32c0.51,-1.39 1.01,-2.52 1.47,-3.45l0.4 -0.75c0.51,-0.89 1,-1.58 1.44,-1.9l0.06 -0.02c0.42,-0.27 0.82,-0.2 1.2,0.08l0.29 0.25c0.38,0.43 0.74,1.09 1.05,2.15l0.05 0.15c0.3,1.05 0.57,2.49 0.81,4.15l0.18 1.25c0.24,1.85 0.45,3.92 0.63,6.43l0.02 0.15 0.01 0.27c0.18,2.56 0.3,5.53 0.41,8.77l0.06 2c0.1,3.4 0.17,7.07 0.19,11.21l0 0.2 0 0.07c0.02,4.01 -0.01,8.53 -0.05,13.23l-0.06 4.65 -0.25 13.12 -0.04 2.2 0 0.21 -0.09 3.13 -0.43 14.44 -0.26 7.57 -0.76 19.88 -0.01 0.18 -1.17 25.77 -0.14 2.84 -1.45 28.9 -0.02 0.11 -1.67 30.32 -0.19 3.37 -0.69 11.93 -1.51 25.12 -0.4 6.63 -0.4 6.61 -3.12 51.68 -0.38 6.33 -0.37 6.29 -0.16 2.6 -0.21 3.65 -0.37 6.23 -3.54 60.6 -0.29 4.94 -0.05 0.95 -0.34 5.87 -2.28 40.19 -0.32 5.63 -0.32 5.59 -0.31 5.58 -0.61 11.04 -0.31 5.47 -0.29 5.45 -0.3 5.42 -0.29 5.39 -0.3 5.36 -0.29 5.33 -0.28 5.31 -0.29 5.27 -0.28 5.24 -0.29 5.23 -0.27 5.18 -0.2 3.59 -0.08 1.57 -0.27 5.14 -0.27 5.09 -0.26 5.08 -0.27 5.05 -0.26 5.02 -0.52 9.95 -0.25 4.93 -0.26 4.9 -0.25 4.88 -0.24 4.85 -0.49 9.62 -0.24 4.75 0 0.02 89.23 0 0.52 -3.25 1.41 -8.8 1.92 -12.12 1.94 -12.2 0.6 -3.73 1.34 -8.54 1.96 -12.33 1.96 -12.39 0.67 -4.22 1.3 -8.23 1.97 -12.51 1.99 -12.57 0.75 -4.71 1.24 -7.9 1.99 -12.65 2 -12.7 0.83 -5.21 1.18 -7.53 2.01 -12.78 2.02 -12.81 0.9 -5.69 1.12 -7.13 2.03 -12.87 2.03 -12.88 0.98 -6.17 1.05 -6.74 2.04 -12.91 2.05 -12.92 1.04 -6.64 1 -6.31 2.05 -12.93 2.05 -12.94 1.12 -7.1 0.93 -5.85 2.05 -12.93 2.05 -12.94 1.21 -7.52 0.86 -5.39 2.06 -12.9 2.05 -12.88 1.28 -7.94 0.78 -4.92 2.06 -12.83 2.07 -12.8 1.34 -8.35 0.72 -4.43 2.05 -12.73 2.06 -12.7 1.42 -8.71 2.7 -16.56 2.05 -12.55 1.48 -9.04 0.57 -3.47 2.05 -12.45 2.05 -12.39 1.55 -9.34 0.49 -2.99 2.05 -12.26 3.64 -21.8 0.43 -2.51 2.03 -12.05 2.02 -11.96 1.67 -9.82 0.35 -2.05 5.76 -33.51 0.28 -1.59 3.99 -22.93 1.78 -10.13 0.21 -1.18 0.31 -1.75 5.32 -29.87 0.16 -0.88 0.13 -0.77 5.79 -31.84 0.06 -0.37 5.79 -31.06 -1.91 14.33 -1.75 13.29 -0.12 0.94 -1.85 14.12 -1.58 12.19 -0.23 1.85 -1.79 13.94 -1.41 11.1 -0.35 2.74 -1.73 13.75 -1.25 10.05 -0.45 3.6 -1.67 13.58 -1.1 9.04 -0.54 4.44 -1.62 13.39 -0.96 8.06 -0.62 5.25 -1.57 13.24 -0.82 7.08 -0.7 6.07 -1.5 13.07 -0.71 6.14 -0.77 6.86 -1.45 12.91 -0.58 5.22 -0.84 7.63 -1.39 12.77 -0.47 4.33 -0.05 0.51 -2.18 20.49 -0.36 3.45 -0.95 9.12 -1.28 12.5 -1.12 11.11 -0.14 1.32 -1.24 12.38 -0.17 1.75 -1.02 10.55 -1.19 12.26 -0.08 0.93 -1.06 11.26 -1.13 12.15 -0.01 0.11 -1.09 11.97 -1.02 11.36 -0.05 0.68 -1.05 11.98 -0.89 10.48 -0.12 1.45 -1 11.89 -0.79 9.61 -0.18 2.23 -0.94 11.79 -0.69 8.77 -0.23 2.98 -0.89 11.72 -0.07 1.03 -0.79 10.63 -0.85 11.65 -0.51 7.11 -0.31 4.48 -0.79 11.57 -0.43 6.32 -0.34 5.2 -0.74 11.51 -0.35 5.53 -0.37 5.94 -0.69 11.45 -0.61 10.27 -0.06 1.15 -0.65 11.39 -0.22 3.98 -0.1 1.73 -0.9 17.01 -0.16 3.22 -0.41 8.11 -0.55 11.31 -0.53 11.3 -0.5 11.28c-0.82,18.67 -1.54,37.27 -2.16,55.86l-0.02 0.71 -0.7 22 0 0.28 -0.58 21.19 -0.03 1.13 -0.24 9.23 -0.04 1.93 0 0.07 97.79 0 0.36 -2.6 1.72 -12.27 1.87 -13.37 0.21 -1.49 2.11 -14.84 1.34 -9.26 2.95 -20.38 0.76 -5.17 3.61 -24.43 0.17 -1.1 3.34 -22.08 0.51 -3.44 0.46 -2.95 0.14 -0.9c2.21,-14.49 4.46,-28.96 6.74,-43.45l0.58 -3.69 0.19 -1.18 3.89 -24.33 0.05 -0.37 2.4 -14.8 1.69 -10.35 0.73 -4.44 2.44 -14.81 1.05 -6.29 3.52 -20.96 0.4 -2.4 0.37 -2.22 2.15 -12.62 2.23 -12.99 0.33 -1.86 2.58 -14.88 1.56 -8.93 1.04 -5.96c2.62,-14.9 5.29,-29.84 8,-44.81l0.13 -0.74 2.59 -14.24 2.12 -11.63 0.62 -3.38 2.79 -15.04 1.39 -7.52 0.32 -1.69 3.93 -20.95 0.65 -3.4 4.66 -24.49 0.32 -1.65 0.15 -0.76 0.2 -1.05 4.73 -24.44 0.96 -4.96 2.99 -15.28 1.21 -6.12 1.82 -9.2 3.06 -15.37 0.38 -1.92 0.83 -4.12 4.53 -22.5 0.47 -2.33 3.16 -15.5 1.83 -8.94 1.37 -6.62 3.22 -15.61 0.97 -4.68 2.29 -10.98 3.29 -15.71 0.08 -0.39 3.25 -15.38 2.52 -11.87 0.84 -3.96 3.4 -15.89 1.62 -7.57 1.81 -8.37 3.47 -16.01 0.7 -3.22 0.31 -1.41 5.77 -26.38 0.26 -1.22 3.59 -16.21 0.16 -0.72 3.46 -15.56 3.64 -16.35 1.38 -6.15 2.32 -10.28 3.73 -16.5 0.37 -1.64 3.39 -14.93 3.14 -13.73 0.67 -2.92 5.89 -25.59 0.09 -0.38 1.75 -7.58 3.92 -16.9 1.08 -4.65 2.88 -12.32 4.01 -17.07 -2.41 18.25 -1.46 11.09 -0.91 7.01 -2.33 17.94 -0.52 3.99 -1.76 13.82 -1.89 14.76 -0.35 2.89 -2.2 17.53 -0.98 7.78 -1.18 9.6 -2.12 17.25 -0.12 1.01 -1.95 16.11 -1.36 11.4 -0.67 5.6 -1.99 16.86 -1.93 16.64 -0.02 0.22 -1.9 16.51 -1.87 16.52 -0.92 8.29 -0.9 8.11 -1.79 16.29 -0.2 1.89 -1.53 14.29 -1.25 11.72 -0.45 4.36 -1.66 15.98 -0.56 5.41 -0.34 3.34 -2.03 20.16 -0.2 1.99 -0.08 0.76 -1.54 15.7 -0.86 8.81 -0.64 6.8 -1.46 15.52 -0.26 2.71 -1.17 12.73 -1.1 12.09 -0.29 3.27 -1.34 15.28 -0.53 6.07 -0.26 3.17 -1.79 21.11 -0.01 0.16 -1.22 14.92 -0.75 9.34 -0.44 5.67 -1.15 14.94 -0.27 3.48 -0.84 11.41 -0.92 12.54 -0.17 2.3 -1.04 14.77 -0.46 6.74 -0.54 7.99 -0.98 14.69 -0.06 1 -1.21 19.18 -0.27 4.4 -0.28 4.66 -0.85 14.56 -0.69 12.1 -0.31 5.65 -0.61 11.28 -0.75 14.48 -0.38 7.44 -0.34 7.01 -0.68 14.41 -0.08 1.83 -0.56 12.58 -0.46 10.62 -0.14 3.77 -0.58 14.37 -0.42 11.38 -0.12 2.99 -0.48 13.81 -0.02 0.54 -0.47 14.36 -0.25 8.23 -0.18 6.12 -0.4 14.35 -0.08 2.67 -0.08 3.42 -0.43 17.6 -0.05 2.13 -0.06 2.91 -0.31 14.38 -0.11 5.88 -0.15 8.51 -0.24 14.4 -0.01 0.3 -0.19 14.14 -0.1 9.13 -0.05 5.32 -0.14 14.47 -0.03 3.55 -0.08 10.96 -0.06 12.44 0 2.1 -0.04 14.58 87.98 0 1.66 -13 0.87 -6.69 2.56 -19.65 0.34 -2.6 2.25 -17 2.61 -19.56 2.64 -19.53 0.2 -1.54 2.46 -17.95 1.48 -10.74 1.22 -8.71 2.73 -19.43 0.06 -0.49 2.7 -18.91c4.61,-32.3 9.34,-64.53 14.22,-96.68l2.94 -19.27 5.97 -38.55 3.04 -19.27 2.8 -17.62 0.27 -1.64 2.5 -15.59 0.61 -3.68 3.14 -19.26 3.17 -19.27 2.41 -14.56 0.79 -4.72 3.25 -19.29 0.74 -4.41 2.54 -14.89 0.53 -3.07 2.79 -16.25 3.35 -19.34 0.58 -3.38 2.81 -15.98 2.21 -12.54 1.21 -6.84 3.47 -19.41 0.41 -2.33 3.1 -17.1 3.54 -19.46 3.58 -19.5 0.23 -1.3 3.4 -18.24 1.96 -10.55 1.7 -9.02 3.7 -19.62 0.04 -0.24 3.71 -19.42 3.19 -16.68 0.59 -3.02 3.67 -18.94 0.15 -0.81 3.88 -19.81 1.68 -8.57 2.23 -11.29 3.57 -18.01 0.38 -1.91 4 -19.97 1.52 -7.55 2.53 -12.48 3.47 -17.09 0.61 -3.02 4.14 -20.16 1.34 -6.54 2.84 -13.69 3.35 -16.17 0.86 -4.14 4.27 -20.38 1.16 -5.51 5.47 -25.86 0.92 -4.33 1.13 -5.3 4.41 -20.61 0.95 -4.46 3.5 -16.24 3.1 -14.31 1.41 -6.49 4.54 -20.87 0.74 -3.39 3.86 -17.58 2.95 -13.37 1.71 -7.7 4.7 -21.16 0.51 -2.29 4.24 -18.98 2.78 -12.39 2.02 -8.97 4.85 -21.47 0.26 -1.16 4.64 -20.41 2.6 -11.41 2.36 -10.28 5 -21.8 -3.04 23.46 -1.09 8.4 -1.9 14.83 -2.12 16.62 -0.81 6.4 -2.87 22.81 -0.23 1.85 -2.57 20.75 -1.23 9.93 -1.52 12.48 -2.17 17.84 -0.52 4.36 -2.63 22.03 -0.42 3.58 -2.15 18.26 -1.32 11.37 -0.07 0.53 -3.29 28.77 -0.29 2.48 -2.39 21.32 -0.58 5.2 -1.76 15.96 -1.38 12.73 -0.03 0.35 -2.8 26 -0.22 2.07 -0.07 0.71c-1.78,16.75 -3.47,33.34 -5.13,49.82l-0.56 5.47 -0.64 6.39 -2 20.3 -0.08 0.95 -2.49 26 -0.32 3.4 -2.31 24.99 -0.03 0.25 -2.18 24.37 -0.22 2.54 -1.49 17.17 -0.31 3.62 -1.09 12.84 -0.26 3.14 -1.38 16.61 -0.23 2.92 -1.54 19.42 -0.88 11.29 -1.3 17.12 -0.15 1.95 -0.61 8.25 -1.3 17.9 -0.09 1.3 -1.34 19.12 -0.38 5.58 -0.28 4.19 -1.3 19.82 -0.19 2.91 -1.53 24.51 -0.01 0.25 -1.45 24.65 -0.16 2.76 -1.12 20.2 -0.2 3.72 -0.27 4.99 -0.96 18.79 -0.08 1.78 -0.83 16.98 -0.17 3.6 -0.53 11.58 -0.16 3.55 -0.66 15.28 -0.15 3.44 -0.76 18.7 -0.13 3.31 -0.57 15.4 -0.03 0.77 -0.6 17.26 -0.02 0.67 -0.55 16.79 -0.07 1.92 -0.55 18.7 -0.14 4.84 -0.11 4.67 -0.47 17.97 -0.07 2.85 -0.17 7.15 -0.4 18.38 0 0.39 -0.36 18.81 -0.02 1.14 -0.22 13.67 -0.12 8.19 -0.2 14.71 -0.21 18.92 -0.1 10.63 -0.07 8.34 -0.06 8.02 -0.05 11.02 -0.01 2.98 -0.05 16.1 -0.02 19.17 0 2.73 0.03 16.49 0.03 9.7 0.02 3.07 0.11 19.17 0.02 4.1 0.02 2.66 0.17 19.47 0.04 4.38 0.18 15.18 0.15 11.5 0.12 8.17 0.14 9.2 0.14 9.49 0.02 1.08 71.54 0 1.06 -8.91 1.95 -16.17 1.99 -16.36 1.05 -8.65 2.92 -23.76 0.15 -1.19 3.1 -24.87 0.78 -6.25 2.35 -18.57 1.73 -13.64 1.43 -11.13 2.72 -20.99 0.49 -3.72 3.22 -24.66 0.48 -3.65 2.78 -20.96 1.47 -10.99 1.83 -13.58 0.56 -4.13 2.77 -20.39 3.36 -24.48 0.15 -1.1 3.25 -23.35 1.17 -8.41 2.26 -16.01 2.22 -15.67 1.25 -8.72 3.3 -22.94 0.2 -1.41 3.54 -24.34 0.86 -5.85 2.73 -18.46 1.94 -13.1 1.67 -11.19 3.05 -20.35 0.59 -3.93 3.7 -24.26 0.5 -3.33 3.23 -20.92 3.76 -24.25 2.78 -17.82 1.02 -6.42 3.84 -24.24 0.13 -0.82 3.75 -23.43 1.3 -8.05 2.62 -16.19 2.5 -15.31 1.47 -8.94 3.71 -22.57 0.29 -1.69 4.04 -24.27 0.93 -5.58 3.15 -18.72 2.18 -12.83 5.39 -31.59 0.72 -4.22 4.21 -24.36 0.53 -3.06 3.72 -21.32 1.82 -10.36 2.47 -14.05 3.13 -17.68 1.21 -6.77 4.38 -24.48 0.1 -0.55 4.33 -23.98 1.43 -7.88 0.58 -3.19c3.6,-19.87 7.26,-39.77 10.96,-59.73l0.19 -1.03 0.37 -1.99 4.62 -24.71 1 -5.39 3.64 -19.38 2.42 -12.81 2.27 -12 3.87 -20.28 0.88 -4.6 4.79 -24.94 0.55 -2.85 0.64 -3.28c6.04,-31.28 12.18,-62.69 18.44,-94.3l0.06 -0.27 4.97 -25.01 1.57 -7.86 3.51 -17.53 3.12 -15.48 2.01 -9.97 4.69 -23.18 0.49 -2.36 5.23 -25.62 1.08 -5.31 4.19 -20.41 2.69 -13.04 2.64 -12.78 4.33 -20.83 1.06 -5.08 5.42 -26.01 0.57 -2.7 4.92 -23.41 2.22 -10.54 3.31 -15.68 3.91 -18.45 1.68 -7.88 5.64 -26.44 -3.28 28.04 -0.46 4.02 -3.66 31.74 -2.23 19.57 -1.35 11.86 -1.73 15.45 -0.24 2.22 -2.56 22.92 -0.21 1.95 -2.14 19.42 -0.82 7.45 -2.49 23.1 -0.38 3.55 -2.81 26.45 -0.04 0.29 -2.71 25.96 -0.43 4.07 -0.55 5.41 -2.49 24.37 -1.83 18.09 -1.14 11.44 -1.41 14.26 -1.47 15.05 -1.02 10.48 -1.77 18.61 -2.68 28.57 -0.03 0.32 -0.29 3.07 -2.29 25.06 -0.04 0.55 -2.18 24.38 -0.36 4.13 -1.8 20.64 -0.65 7.68 -1.43 16.99 -0.93 11.19 -0.32 3.93 -1.4 17.12 -0.57 6.95 -0.77 9.76 -1.42 18.1 -1.9 24.91 -0.21 2.83 -0.2 2.69 -1.77 24.12 -0.05 0.79 -1.65 23.25 -0.3 4.26 -0.35 5.15 -1.39 20.68 -0.11 1.56 -1.06 16.19 -0.16 2.59 -1.03 16.26 -0.32 4.97 -0.89 14.52 -0.55 9.24 -1.04 17.92 -0.02 0.3 -1.16 20.62 -0.35 6.17 -0.12 2.38 -1.25 23.62 -0.05 1.05 -1.13 22.56 -0.23 4.45 -0.91 19.13 -0.36 7.85 -0.23 5.44 -0.9 20.66 -0.07 1.7 -0.97 23.89 -0.16 3.79 -0.87 23.24 -0.12 2.96 -0.6 17.5 -0.3 8.68 -0.06 2.1 -0.74 23.58 -0.04 1.31 -0.64 22.32 -0.12 4.71 -0.49 18.93 -0.06 2.76 -0.33 13.9 -0.16 7.04 -0.24 11.59 -0.08 3.99 -0.32 17.39 -0.12 5.82 -0.15 8.75 -0.28 18.54 -0.08 5.31 -0.27 22.06 -0.02 1.87 -0.24 23.99 -0.01 1.6 -0.16 22.49 -0.03 5.09 -0.07 19.08 0 0.71 -0.04 17.05 -0.01 6.51 0 12.17 0.02 12.21 0.02 5.52 0.05 16.95 0.01 2.01 0.11 19.39 0.03 5.22 0.19 23.06 0.01 1.66 0.27 24.86 0.03 1.93 0.3 23.07 0 0.04 0.3 18.86 0.09 6.24 0.16 9.25 0.3 16.05 0.25 12.98 0.08 3.61 0.39 18.03 0.16 7.6 0.21 8.87 0.5 20.61 0.14 5.18 0.66 24.52 0.04 1.46 0.46 15.61 0.3 10.56 36.6 0 3.3 -29.4 0.18 -1.53 3.51 -30.85 0.28 -2.36 3.28 -28.43 0.72 -6.22 2.87 -24.5 1.19 -10.07 2.44 -20.59 0.08 -0.7 2.82 -23.57 0.76 -6.32 2.15 -17.72 1.55 -12.81 2.63 -21.52 1.11 -8.96 3.14 -25.31 0.64 -5.12 3.66 -29.09 0.16 -1.28 3.86 -30.33 0.31 -2.53 3.57 -27.74 0.82 -6.33 3.11 -23.9 1.32 -10.12 2.65 -20.07 1.84 -13.91 2.17 -16.23 8.12 -60.2 3.44 -25.2 0.67 -4.84 4.01 -28.95 0.15 -1.06 4.19 -29.99 0.38 -2.71 3.85 -27.24 0.92 -6.49 3.35 -23.45 4.3 -29.92 2.02 -13.99 2.32 -15.91 2.6 -17.75 1.79 -12.13 3.17 -21.5 1.25 -8.37 3.76 -25.25 0.69 -4.6 4.37 -29.01 0.12 -0.85 4.54 -29.84 3.86 -25.19 0.71 -4.65 1.02 -6.67 3.58 -23.17 1.62 -10.42 3.03 -19.42 3.83 -24.43 0.85 -5.41 2.83 -17.94 1.89 -11.91 3.46 -21.71 1.3 -8.15 4.08 -25.47 0.71 -4.4 4.74 -29.24 0.11 -0.64 4.86 -29.9 0.52 -3.13 4.4 -26.79 1.13 -6.89 3.82 -23.03 1.76 -10.68 3.22 -19.28 2.42 -14.46 2.6 -15.52 3.08 -18.26 1.99 -11.76 3.73 -22.05 1.37 -7.99 4.41 -25.86 0.72 -4.22 5.1 -29.67 0.08 -0.44 5.21 -30.15 0.58 -3.36 4.68 -26.82 1.24 -7.18 4.04 -23.04 5.33 -30.28 2.62 -14.83 2.74 -15.49 3.33 -18.67 2.08 -11.7 4.03 -22.54 1.4 -7.88 4.75 -26.42 0.73 -4.05 5.48 -30.32 0.04 -0.21 5.56 -30.6 0.66 -3.64 4.93 -27.01 1.37 -7.52 4.27 -23.2 2.09 -11.4 3.57 -19.38 2.83 -15.3 2.87 -15.55 3.58 -19.24 2.18 -11.68 5.78 -31 5.08 -27.16 0.74 -3.91 5.86 -31.15 -2.81 33.05 -0.29 3.49 -2.44 29.34 -0.58 6.93 -2.1 25.68 -0.84 10.33 -1.77 22.08 -1.09 13.66 -1.46 18.53 -1.32 16.96 -1.17 15.04 -1.55 20.22 -0.88 11.58 -1.75 23.44 -0.61 8.18 -0.27 3.73 -2.02 27.7 -2.14 29.8 -0.1 1.47 -2.3 32.92 -1.99 29.12 -0.33 5.07 -1.72 25.71 -0.54 8.3 -1.44 22.35 -1.78 28.32 -0.28 4.45 -1.27 20.62 -0.45 7.47 -1.06 17.8 -0.73 12.44 -0.27 4.71 -1.39 24.08 -0.07 1.33 -1.35 24.01 -0.32 6 -1.45 27.09 -0.15 2.81 -1.54 29.8 -0.03 0.34 -1.46 29.37 -0.16 3.48 -1.24 26.14 -0.31 6.6 -0.24 5.32 -1.19 26.38 -0.04 0.94 -0.85 19.77 -0.54 12.8 -0.16 4 -1.15 28.27 -0.02 0.39 -1.07 28.31 -0.15 3.92 -0.38 10.34 -0.79 22.01 -0.24 7.22 -0.83 25.07 -0.13 4.13 -0.87 28.13 -0.03 1.03 -0.84 29.14 -0.06 2.05 -0.71 27.06 -0.13 5.13 -0.07 2.97 -0.68 28.75 -0.01 0.46 -0.45 20.9 -0.23 11.27 -0.11 5.77 -0.45 23.9 -0.1 5.69 -0.35 21.56 -0.13 7.44 -0.16 11.67 -0.28 20.55 -0.11 8.58 -0.26 23.65 -0.05 5.51 -0.24 26.77 -0.02 2.42 -0.18 29.22 -0.01 0.67 -0.11 28.6 -0.01 3.77 -0.05 25.55 0 6.89 0 4.03 0.04 24.46 0 4.03 0.06 19.43 0.05 13.16 0.04 7.26 0.1 17.12 0.13 17.16 0.03 4.41 0.17 19.52 0.03 2.74 0.2 18.74 0.61 48.33 0.46 29.25 0.01 0.73 0.54 30.09 0.05 2.45 0.68 33.43 0.55 24.66 0.02 0.99 0.57 23.62 0.22 9 0.65 24.65 0.13 5.06 0.7 24.62 0.11 3.87 0.56 18.85 0.37 12.04 0.32 9.85 0.61 18.78 0.07 2.43 0.88 25.66 0.19 5.55 1.05 29.14 0.08 2.25 1.21 31.57 0.04 1.08 0.8 20.11 0.43 10.52 0 0.04 32.26 0c5.23,-50.89 10.56,-101.67 15.99,-152.38l0.19 -1.84c9.45,-88.14 19.22,-176.03 29.25,-263.73l2.94 -25.68 1.41 -12.16 8.17 -70.26 0.63 -5.35c4.42,-37.67 8.88,-75.31 13.4,-112.93l0.04 -0.34 0.58 -4.86 3.97 -32.88 0.99 -8.23 3.59 -29.47c4.6,-37.7 9.23,-75.38 13.91,-113.05l2.71 -21.79 1.99 -15.87 3.15 -25.18 1.58 -12.46 3.59 -28.57 1.16 -9.07 4.05 -31.95 0.73 -5.69 9.64 -75.24 0.14 -1.09 4.72 -36.52c4.86,-37.45 9.74,-74.88 14.67,-112.31l0.07 -0.52 1.92 -14.62 3.05 -22.97 2.38 -18.02 2.6 -19.59 2.84 -21.4 2.17 -16.2 3.31 -24.79 1.72 -12.82 3.78 -28.18 1.27 -9.44 4.26 -31.56 0.81 -6.05 4.74 -34.95 0.36 -2.67 5.12 -37.63 0.1 -0.72 5.04 -36.91 0.56 -4.12 4.6 -33.52 1.03 -7.51 4.15 -30.15 5.11 -37.01 0.09 -0.65 1.97 -14.3 3.24 -23.38 2.45 -17.69 2.78 -19.99 2.93 -21.09 2.32 -16.61 3.43 -24.5 1.84 -13.22 3.91 -27.9 1.37 -9.83 4.39 -31.32 0.91 -6.43 4.89 -34.73 0.43 -3.03 5.33 -37.79 0.04 -0.37 5.3 -37.43 0.53 -3.77 4.83 -34.06 1.02 -7.18 4.34 -30.67 1.52 -10.59 3.88 -27.28 1.99 -14 3.4 -23.89 2.49 -17.43 2.92 -20.49 2.98 -20.86 2.44 -17.09 3.47 -24.29 1.96 -13.68 3.97 -27.73 1.47 -10.27 4.48 -31.18 0.97 -6.85 4.97 -34.63 0.5 -3.43 5.46 -38.09c-34.85,801.83 -44.52,1508.29 -0.68,2311.48 87.76,-947.91 199.19,-1890.81 291.37,-2837.87 5.94,837.52 17.48,1636.86 73.96,2473.96 73.66,-918.45 151.79,-1836.63 223.47,-2755.17 32.76,834.54 76.45,1649.59 141.75,2482.49 73.79,-950.38 139.33,-1901.99 203.07,-2853.09 49.88,861.8 111.16,1711.99 185.25,2572.04 69.82,-767.74 87.12,-2770.83 122.56,-4001.05l-3359.75 5025.18zm2610.84 -7991.18c14.67,-77.81 29.18,-155.64 43.42,-233.46 10.83,117.51 22.84,234.13 36.43,350.4l182.58 267.32c43.79,-258.52 85.16,-517.15 125.81,-775.68 49.88,367.32 111.17,729.68 185.26,1096.25 85.86,-402.4 140.6,-803.18 199.01,-1206.3 62.8,403.21 137.46,802.01 230.46,1204.21 64.17,-344.47 110.69,-688.19 158.9,-1033.04 33.84,218.43 68.87,435.99 107.48,653.5l236.17 -352.12c4.78,-43.93 9.42,-87.91 13.96,-131.94l16 87.27 2616.44 -3901.15 -6866.37 0 2714.45 3974.74zm2157.5 7991.18l4.08 0 0.72 -10.3 1.69 -24.68 0.74 -10.68 1.65 -24.24 0.75 -11.06 1.6 -23.82 0.77 -11.45 1.56 -23.41 0.78 -11.82 1.51 -22.99 0.81 -12.21 1.47 -22.58 0.81 -12.57 1.42 -22.18 2.21 -34.71 0.84 -13.33 1.34 -21.36 0.85 -13.71 1.29 -20.95 0.87 -14.08 1.25 -20.54 0.88 -14.47 0.21 -3.59 1.88 -31.38 1.17 -19.74 0.89 -15.22 1.13 -19.34 0.91 -15.59 1.09 -18.94 0.91 -15.97 1.97 -34.89 1.01 -18.15 0.92 -16.72 0.99 -17.74 0.93 -17.1 0.93 -17.36 0.94 -17.48 0.9 -16.96 0.94 -17.85 0.87 -16.57 0.94 -18.23 0.82 -16.2 0.94 -18.6 1.64 -32.64 0.11 -2.14 0.76 -15.41 0.94 -19.36 0.73 -15.02 0.95 -19.74 0.7 -14.63 0.94 -20.13 0.67 -14.24 0.94 -20.51 0.63 -13.86 0.93 -20.89 0.61 -13.47 0.94 -21.27 0.57 -13.09 0.93 -21.65 1.47 -34.75 0.52 -12.31 0.92 -22.43 0.48 -11.93 0.91 -22.82 1.37 -34.75 0.43 -11.16 0.9 -23.61 0.4 -10.77 0.89 -23.99 0.38 -10.39 0.88 -24.38 0.36 -10.01 0.87 -24.77 0.32 -9.63 0.86 -25.17 0.31 -9.25 0.84 -25.56 0.29 -8.87 0.82 -25.95 0.27 -8.48 0.81 -26.36 0.25 -8.11 0.79 -26.74 0.23 -7.72 0.77 -27.16 0.22 -7.34 0.76 -27.55 0.19 -6.96 0.74 -27.96 0.17 -6.57 0.72 -28.36 0.15 -6.2 0.7 -28.76 0.14 -5.82 0.68 -29.16 0.12 -5.44 0.66 -29.58 0.12 -5.04 0.62 -30 0.71 -34.9 0 -0.17 0.08 -4.27 0.58 -30.83 0.08 -3.89 0.55 -31.24 0.06 -3.51 0.53 -31.67 0.05 -3.12 0.5 -32.08 0.04 -2.73 0.47 -32.51 0.03 -2.35 0.43 -32.93 0.03 -1.95 0.41 -33.37 0.02 -1.56 0.37 -33.79 0.02 -1.18 0.34 -34.23 0 -0.78 0.3 -34.66 0.01 -0.39 0.27 -35.1 3.85 34.61 0.6 5.49 3.22 29.12 1.2 10.98 2.59 23.62 1.8 16.48 1.97 18.12 2.39 21.97 1.36 12.62 2.95 27.47 0.76 7.14 3.53 32.94 0.18 1.65 3.66 34.59 0.41 3.84 3.24 30.75 0.99 9.34 2.64 25.25 1.54 14.82 2.07 19.77 2.1 20.31 1.47 14.28 2.67 25.8 0.9 8.78 3.2 31.29 0.34 3.29 3.51 34.58 0.22 2.2 3.28 32.38 0.77 7.69 2.71 26.89 1.32 13.18 2.14 21.4 1.86 18.67 1.58 15.92 2.39 24.15 1.03 10.42 2.92 29.64 0.49 4.94 3.38 34.57 0.05 0.56 3.32 34.02 0.58 6.04 2.78 28.53 1.11 11.54 2.22 23.04 1.64 17.02 1.68 17.55 2.15 22.52 1.16 12.06 2.66 28 0.63 6.57 3.17 33.49 0.1 1.09 3.26 34.58 0.41 4.4 2.84 30.17 0.93 9.89 2.3 24.69 1.44 15.37 1.79 19.2 1.94 20.86 1.26 13.72 2.45 26.35 0.76 8.22 2.93 31.84 0.25 2.74 3.17 34.58 0.26 2.75 2.92 31.82 0.75 8.25 2.4 26.34 1.25 13.73 1.89 20.85 1.74 19.22 1.4 15.36 2.23 24.72 0.9 9.87 2.72 30.2 0.4 4.38 3.11 34.59 0.09 1.11 3.01 33.47 0.59 6.61 2.51 27.99 1.07 12.09 2.01 22.5 1.57 17.58 1.52 17.01 2.05 23.07 1.03 11.52 2.54 28.58 0.53 6.02 3.02 34.07 0.04 0.53 3.07 34.6 0.43 4.96 2.63 29.64 0.92 10.46 2.13 24.14 1.41 15.96 1.65 18.66 1.88 21.44 1.16 13.17 2.37 26.93 0.68 7.68 2.86 32.44 0.19 2.17 3.04 34.62 0.3 3.32 2.75 31.3 0.77 8.81 2.27 25.81 1.26 14.31 1.78 20.32 1.74 19.82 1.3 14.81 2.13 24.09 0.11 1.22 0.81 9.28 0 0.05 53.63 0 0.54 -8.99 1.08 -18.15 0.85 -14.45 0.75 -12.66 1.17 -19.89 0.41 -7.21 1.46 -25.32 0.1 -1.75 1.54 -27.05 0.21 -3.69 1.31 -23.35 0.51 -9.12 0.99 -17.89 0.79 -14.56 0.68 -12.44 1.09 -19.98 0.37 -7.01 1.35 -25.39 0.09 -1.58 1.42 -26.95 0.2 -3.85 1.18 -23.1 0.48 -9.26 0.9 -17.66 0.74 -14.69 0.61 -12.24 0.99 -20.09 0.33 -6.81 1.24 -25.51 0.06 -1.4 1.29 -26.89 0.19 -4.01 1.07 -22.87 0.43 -9.42 0.81 -17.46 0.66 -14.83 0.54 -12.05 0.91 -20.24 0.29 -6.63 1.11 -25.64 0.05 -1.23 1.14 -26.86 0.18 -4.18 0.95 -22.68 0.39 -9.59 1.3 -32.27 0.47 -11.88 0.8 -20.4 0.25 -6.46 0.98 -25.81 0.04 -1.05 1 -26.87 0.16 -4.36 0.8 -22.52 0.35 -9.77 0.6 -17.11 0.52 -15.18 0.4 -11.71 0.69 -20.6 0.21 -6.29 0.84 -26.03 0.03 -0.87 0.85 -26.92 0.13 -4.53 0.68 -22.39 0.3 -9.96 0.49 -16.98 0.44 -15.38 0.33 -11.56 0.57 -20.83 0.17 -6.13 0.68 -26.27 0.02 -0.71 0.69 -26.99 0.12 -4.72 0.54 -22.27 0.23 -10.18 0.39 -16.86 0.35 -15.61 0.25 -11.42 0.46 -21.08 0.12 -5.98 0.53 -26.54 0.01 -0.54 0.52 -27.1 0.09 -4.92 0.4 -22.2 0.18 -10.4 0.28 -16.75 0.26 -15.86 0.17 -11.31 0.32 -21.35 0.08 -5.83 0.37 -26.87 0.01 -0.36 0.34 -27.24 0.06 -5.13 0.26 -22.14 0.11 -10.63 0.17 -16.68 0.15 -16.13 0.11 -11.19 0.18 -21.67 0.04 -5.69 0.19 -27.22 0 -0.18 0.17 -27.42 0.02 -5.34 0.1 -22.12 0.05 -10.89 0.06 -16.6 0.04 -16.45 0.03 -11.08 0.04 -22.02 0 -5.55 0.01 -27.6c59.75,494.97 107.79,982.96 150.67,1479.57l0.39 4.5 0.4 4.49 0.38 4.47 0.39 4.45 0.38 4.42 1.9 21.88 0.38 4.32 0.38 4.3 0.37 4.28 0.15 1.69 0.22 2.58 0.38 4.25 0.37 4.22 0.37 4.21 0.37 4.19 0.37 4.17 1.46 16.51 0.36 4.08 0.36 4.07 0.36 4.04 0.29 3.22 0.07 0.81 0.36 4.01 0.36 4 0.35 3.97 0.36 3.96 0.35 3.94 0.36 3.93 0.35 3.9 0.35 3.88 0.35 3.87 0.34 3.86 0.35 3.83 0.34 3.82 0.35 3.79 0.06 0.8 0.28 2.99 0.35 3.76 0.34 3.76 0.34 3.72 0.33 3.71 0.34 3.7 0.34 3.68 0.34 3.66 0.33 3.65 0.34 3.63 0.32 3.61 0.34 3.59 0.33 3.58 0.33 3.56 0.32 3.54 0.33 3.53 0.33 3.52 0.33 3.49 0.32 3.47 0.32 3.46 0.3 3.14 0.02 0.31 0.33 3.43 0.32 3.4 0.31 3.4 67.85 0 0.09 -7.54 0.05 -4.4 0.03 -3.18 0.09 -7.6 0.08 -7.63 0.09 -7.67 0.03 -1.95 0.05 -5.75 0.09 -7.72 0.08 -7.75 0.09 -7.19 0 -0.58 0.18 -15.62 0.08 -7.84 0.06 -4.7 0.04 -3.17 0.09 -7.88 0.58 -47.15 0 -0.48 0.11 -7.98 0.1 -7.99 0.11 -8 0.07 -4.9 0.38 -27.15 0.05 -2.28 0.44 -29.45 0 -0.35 0.4 -24.04 0.1 -5.02 0.47 -26.93 0.06 -2.38 0.1 -5.57 0.16 -7.95 0.16 -7.93 0.16 -7.69 0 -0.23 0.17 -7.9 0.35 -15.75 0.11 -5.06 0.07 -2.79c0.42,-18.24 0.88,-36.31 1.38,-54.14l0 -0.11 0.82 -27.78 0.07 -2.58 0.24 -7.51 0.25 -7.47 0.24 -7.43 0.08 -2.43 0.17 -4.96 0.8 -21.95c46.7,-1240.28 3.7,-1177.49 122.91,120.73l2.44 27.23 0.15 1.8 0 0.06 2.21 25.98 0.31 3.68 0.16 1.95 1.84 22.76 0.44 5.63 0.01 0.1 2.36 30.78 0.31 4.05 1.72 23.55 0.27 3.75 2.24 31.76 0.02 0.24c2.19,31.87 4.28,64.25 6.3,96.8l0.04 0.36 1.87 30.68 0.09 1.65 0.28 4.49 1.46 24.59 0.21 3.67 0.15 2.49 0.36 6.14 0.7 12.29 0.1 1.75 0.26 4.39 0.32 5.67 0.03 0.48 94.03 0 2.43 -51.94c20.03,-433.13 -46.09,-1748.22 86.11,-472.45 1.35,12.89 2.66,25.88 3.96,38.98l0.1 1.04 3.74 38.55 0.2 2.12 0.55 5.88 2.24 24.08 0.74 8.07 0.3 3.2 0.44 4.88 2.9 32.52 0.38 4.31 0.34 3.85 0.71 8.19 1.4 16.4 0.71 8.23 0.12 1.41 0.57 6.82 0.7 8.25 0.69 8.26 1.36 16.54 0.54 6.59 0.14 1.7 1.34 16.61 0.67 8.3 0.66 8.32 0.62 7.71 0.04 0.61 0.65 8.34 0.65 8.33 1.3 16.68 0.63 8.34 0.05 0.5 0.59 7.85 0.63 8.35 0.64 8.34 0.62 8.36 0.63 8.34 0.12 1.61 0.5 6.74 0.61 8.35 0.62 8.34 0.61 8.35 1.22 16.66 0.59 8.34 0.6 8.32 0.59 8.32 0.59 8.32 0.28 3.79 0.32 4.51 0.58 8.3 0.58 8.29 0.58 8.28 0.57 8.27 1 14.22 0.15 2.29 0.57 8.24 109.57 0 0.09 -2.53 0.09 -2.54 0.09 -2.54 0.03 -0.77 0.07 -1.78 0.08 -2.54 0.1 -2.55 0.09 -2.56 0.1 -2.56 0.08 -2.57 0.1 -2.57 0.09 -2.58 0.09 -2.58 0.09 -2.59 0.1 -2.59 0.64 -18.27 0.1 -2.63 0.46 -13.22 0.1 -2.65 0.09 -2.67 0.1 -2.66 0.09 -2.68 0.1 -2.68 0.09 -2.68 0.06 -1.77 0.04 -0.92 0.08 -2.69 0.1 -2.7 0.09 -2.71 0.1 -2.71 0.09 -2.7 1.53 -44.12 0.09 -2.81 0.1 -2.8 0.09 -2.81 0.1 -2.81 0.2 -5.66 0.09 -2.84 0.1 -2.83 0.09 -2.84 1.75 -51.13 0.03 -0.83 1.66 -47.85 0.05 -1.6 1.58 -44.71 0.08 -2.27 1.5 -41.67 0.09 -2.87 1.42 -38.76 0.12 -3.38 1.35 -35.96 0.15 -3.83 1.28 -33.26 0.15 -4.21 1.22 -30.65 0.18 -4.51 1.15 -28.18 0.19 -4.74 1.1 -25.8 0.21 -4.91 1.04 -23.51 0.22 -5.02 1 -21.33 0.24 -5.06 0.94 -19.24 0.26 -5.03 0.89 -17.27 0.09 -1.58 0.86 -15.32 0.25 -4.41 0.81 -13.74 0.29 -4.69 0.85 -12.89 0.23 -3.36 0.83 -11.66 0.23 -2.88 0.69 -8.64 0.43 -5.01 0.54 -5.73 0.48 -4.99 0.58 -5.27 0.44 -3.69 0.5 -3.8 0.53 -3.65 0.51 -2.92 0.5 -2.54 0.46 -1.96 0.54 -1.9 0.49 -1.21c0.17,-0.37 0.33,-0.69 0.5,-0.93 0.17,-0.22 0.32,-0.34 0.49,-0.44 0.17,-0.1 0.34,-0.16 0.51,-0.12 0.17,0.04 0.32,0.16 0.49,0.33 0.17,0.18 0.36,0.39 0.53,0.71l0.44 0.99 0.57 1.63 0.45 1.63 0.57 2.5 0.42 2.13 0.64 3.65 0.39 2.44 0.63 4.46 0.42 3.18 0.68 5.56 0.38 3.3 0.74 7.01 0.28 2.61 0.76 7.87 0.48 5.24 0.24 2.48 0.65 7.54 0.15 1.74 0.73 8.85 0.3 3.49 0.46 5.83 0.73 9.47 0.96 12.85 0.28 3.65 0.44 6.18 0.83 11.47 0.44 6.27 0.86 12.5 0.43 6.33 0.92 13.53 0.42 6.31 0.98 14.59 0.41 6.28 1.03 15.64 0.4 6.19 1.09 16.7 0.39 6.06 1.15 17.76 0.38 5.89 1.22 18.84 0.37 5.69 1.28 19.9 0.36 5.45 1.36 20.97 0.34 5.17 1.44 22.04 0.33 4.86 1.52 23.11 0.29 4.51 1.62 24.17 0.28 4.14 1.7 25.23 0.26 3.75 1.8 26.26 0.24 3.33 1.9 27.28 0.21 2.89 2.01 28.31 0.17 2.42 2.12 29.31 0.15 1.93 2.23 30.3 0.11 1.42 2.37 31.27 0.06 0.9 2.5 32.22 0.03 0.36 2.6 32.96 0.02 0.19 2.69 33.11 0.06 0.76 2.73 32.84 0.12 1.34 1.88 22.07 0.9 10.48 102.3 0 0.29 -26.3 0.26 -24.63 0.01 -1.45 0.27 -25.86 0.08 -8.62 0.17 -16.96 0.18 -18.43 0.07 -6.86 0.24 -24.95 0.03 -2.95 0.21 -21.65 0.12 -12.43 0.11 -11.78 0.23 -21.5 0.02 -2.29 0.25 -23.34 0.08 -6.79 0.18 -16.07 0.17 -15.41 0.35 -28.74 0.04 -1.7 0.26 -19.53 0.14 -9.8 0.17 -10.84 0.27 -17.3 0.04 -2.7 0.35 -19.34 0.1 -4.83 0.02 -0.89 0.48 -23.05 0.05 -2.32 0.41 -17.14 0.14 -5.5 0.01 -0.69 0.43 -15.7 0.07 -2.15c0.29,-9.84 0.61,-19.27 0.95,-28.14l0.56 -13.85 0.54 -11.61 0.09 -1.99c0.81,-15.99 1.72,-29.65 2.75,-40.7l0.16 -1.64c9.41,-97.03 29.26,18.75 75.84,557.95l0.9 10.43 0 0.04 100.61 0 0.14 -8.75 0.11 -8.14 1.02 -66.47 0.02 -0.84 1.14 -72.16 0.11 -6.37 0.26 -15.21 0.23 -12.78 0.04 -2.18 0.53 -29.06 0.05 -1.72c0.62,-32.19 1.31,-62 2.07,-88.56l0.02 -0.9c0.74,-25.92 1.57,-48.74 2.5,-67.61l0.04 -1c0.31,-6.22 0.63,-12.02 0.96,-17.33l0 -0.06c0.34,-5.25 0.68,-10 1.04,-14.33l0.08 -1.03c0.35,-4.13 0.72,-7.86 1.1,-11.04l0.02 -0.23c0.39,-3.19 0.78,-5.84 1.19,-8.01l0.08 -0.45c0.43,-2.14 0.87,-3.76 1.32,-4.76l0.04 -0.04c0.44,-0.96 0.89,-1.32 1.37,-1.15l0.15 0.1c0.45,0.26 0.94,1.04 1.43,2.39l0.14 0.43c0.51,1.47 1.02,3.5 1.56,6.11l0.14 0.65c0.55,2.78 1.13,6.22 1.72,10.26l0.22 1.61c0.57,3.99 1.14,8.5 1.75,13.67l0.17 1.49c0.61,5.29 1.23,11.25 1.88,17.76l0.28 2.88c0.7,7.2 1.42,15.01 2.17,23.69l0.08 0.83 2.15 26.37 0.23 2.83 0.1 1.42 2.46 32.92 0.13 2.02 2.55 37.14 0.17 2.44 0.34 5.17 2.64 41.13 0.21 3.41 0.22 3.4 0.21 3.41 0.21 3.38 0.21 3.4 0.21 3.37 0.41 6.75 0.22 3.36 0.41 6.72 0.2 3.34 0.21 3.34 0.2 3.34 0.2 3.33 0.1 1.46 0.11 1.86 0.2 3.32 0.21 3.31 0.2 3.31 0.2 3.3 0.2 3.3 0.2 3.29 0.39 6.57 0.2 3.28 0.2 3.27 0.19 3.25 0.2 3.26 0.19 3.26 0.21 3.24 0.16 2.87 0.03 0.37 0.19 3.24 0.19 3.22 0.2 3.23 0.19 3.21 0.19 3.22 0.19 3.2 0.19 3.21 0.19 3.19 0.18 3.19 0.19 3.19 0.19 3.18 0.19 3.17 0.18 3.16 0.19 3.17 0.37 6.31 0.18 3.14 0.18 3.14 0.19 3.13 0.18 3.13 0.18 3.13 0.18 3.11 0.18 3.12 0.18 3.1 0.18 3.1 0.18 3.1 0.18 3.08 0.18 3.09 0.18 3.08 0.1 1.81 0.22 3.64 0.03 0.69 0.35 6.02 0 0.1 83.65 0 0.67 -13.02 2.95 -55.89c0.77,-14.23 1.52,-27.44 2.26,-39.9l0.1 -1.81 0.03 -0.46 0.05 -0.6c0.76,-12.52 1.52,-24.22 2.28,-34.98l0.05 -0.78c0.74,-10.53 1.49,-20.26 2.23,-29.15l0.06 -0.64 0.08 -0.99c0.74,-8.84 1.5,-16.97 2.24,-24.23l0.03 -0.14c0.75,-7.32 1.49,-13.82 2.23,-19.59l0.11 -0.93c0.73,-5.58 1.47,-10.43 2.2,-14.58l0.12 -0.68c0.72,-4.02 1.44,-7.34 2.16,-10.03l0.19 -0.72c0.68,-2.48 1.36,-4.31 2.05,-5.61l0.26 -0.5c0.67,-1.13 1.35,-1.69 2.01,-1.74l0.29 -0.02c0.65,0.09 1.32,0.72 1.98,1.82l0.3 0.51c0.65,1.24 1.29,2.95 1.94,5.1l0.36 1.21c0.63,2.28 1.27,5.01 1.9,8.15l0.35 1.73c0.61,3.16 1.22,6.72 1.82,10.6l0.55 3.62c0.57,3.86 1.12,7.98 1.69,12.44l0.52 4.1c0.58,4.76 1.14,9.79 1.72,15.14l0.47 4.31 1.67 16.8 0.81 8.83 1.41 16.01 0.7 8.37 0.04 0.48 0.74 9.16 0.74 9.42 0.74 9.69 1.48 20.11 0.23 3.24 0.5 7.18 1.41 20.64 0.06 0.89 0.21 3.07 0.52 8.02 0.73 11.29 0.73 11.49 0.73 11.7 0.08 1.42 0.65 10.45 94.08 0 0.01 -0.31 1.3 -27.21 0.78 -15.31 1.3 -23.58 0.65 -10.78 1.39 -21.71 0.63 -8.99 1.39 -18.44 0.57 -6.98c0.5,-5.83 1,-11.26 1.49,-16.36l0.67 -6.54c0.5,-4.73 1.01,-9.15 1.5,-13.18l0.56 -4.32c0.5,-3.74 0.99,-7.09 1.48,-10.18l0.72 -4.22c0.48,-2.64 0.95,-5.01 1.43,-7.09l0.76 -3.09c0.48,-1.79 0.96,-3.33 1.44,-4.59l0.67 -1.61c0.51,-1.11 1.03,-1.92 1.55,-2.44 0.2,-0.19 0.4,-0.39 0.6,-0.51 0.55,-0.32 1.1,-0.34 1.66,-0.03 0.19,0.11 0.4,0.29 0.6,0.48 0.52,0.5 1.07,1.25 1.6,2.29l0.63 1.34c0.55,1.28 1.09,2.8 1.64,4.6l0.5 1.72c0.6,2.11 1.19,4.52 1.78,7.23l0.39 1.77c0.64,3.02 1.27,6.38 1.91,10.04l0.39 2.25c0.65,3.85 1.29,7.98 1.94,12.45l0.33 2.25c0.6,4.2 1.21,8.72 1.81,13.43l0.67 5.36 1.6 13.52 0.58 5.14 1.8 16.82 0.2 1.86 0.26 2.51 1.64 16.65 0.4 4.16 0.16 1.74 1.9 20.83 0.22 2.53 0.59 6.81 1.65 19.3 0.06 0.66 0.76 9.3 0.8 10.03 0.72 8.93 0.12 1.47 71.94 0 -0.07 -3.83 -0.08 -3.71 -0.07 -3.62 -0.03 -1.16 -0.04 -2.35 -0.07 -3.41 -0.06 -3.3 -0.04 -2.51 -0.01 -0.67 -0.06 -3.08 -0.05 -2.96 -0.04 -2.86 -0.01 -0.7 -0.03 -2.04 -0.04 -2.64 -0.03 -2.51 -0.02 -1.75 0 -0.66 -0.02 -2.29 -0.01 -2.18 -0.01 -2.05 0 -1.94 0.01 -1.82 0.01 -1.71 0 -1.06 0.01 -0.51 0.03 -1.46 0.03 -1.34 0.09 -2.31 0.05 -0.97 0.18 -1.96 0.02 -0.2 0.1 -0.46c0.05,-0.26 0.11,-0.43 0.18,-0.52 0.05,-0.08 0.11,-0.1 0.17,-0.08 0.07,0.02 0.14,0.11 0.24,0.3l0.25 0.69 0.32 1.24 0.01 0.07 0.18 0.85 0.05 0.27 0.34 1.86 0.21 1.27 0.23 1.41 0.16 1.05 0.07 0.49 0.24 1.69 0.27 1.83 0.26 1.98 0.05 0.36 0.24 1.75 0.28 2.27 0.31 2.4 0.21 1.64 0.11 0.91 0.33 2.69 0.34 2.85 0.36 2.99 0.04 0.37 0.33 2.78 0.38 3.29 0.4 3.45 0.24 2.08 0.17 1.51 0.43 3.75 0.43 3.9 0.37 3.28 0.09 0.77 0.02 0.21 0.44 4 0.49 4.37 104.48 0 -3394.91 -4971.13c66.62,1232.98 160.39,3185.91 234.92,3942.09 64.17,-808.18 110.69,-1614.62 158.89,-2423.73 62.73,950 129.52,1892.9 215.74,2841.27 63.42,-816.29 105.93,-1625.98 141.88,-2443.73 70.95,906.35 139.53,1810.87 221.91,2716.39 59.43,-808.74 96.32,-1598.38 115.65,-2408.98l4.08 42.92 0.03 0.39 4.03 42.53 0.08 0.79 3.96 42.13 0.11 1.18 3.92 41.74 0.15 1.57 3.86 41.36 0.19 1.95 3.81 40.97 0.22 2.35 3.76 40.58 0.26 2.74 3.71 40.18 0.3 3.14 3.65 39.79 0.33 3.53 3.62 39.39 0.36 3.93 3.57 39.01 0.39 4.31 3.53 38.61 0.43 4.71 3.47 38.23 0.46 5.1 3.44 37.83 0.5 5.49 3.38 37.44 0.53 5.88 3.34 37.06 0.57 6.27 3.3 36.66 0.61 6.67 3.25 36.26 0.63 7.06 3.21 35.87 0.67 7.46 3.17 35.48 0.71 7.85 3.13 35.09 0.73 8.23 3.1 34.71 0.76 8.62 3.06 34.32 0.79 9.02 3.01 33.91 0.84 9.41 2.97 33.53 0.87 9.8 2.94 33.13 0.9 10.21 2.89 32.74 0.93 10.59 2.87 32.35 0.96 10.97 2.83 31.96 1 11.38 2.78 31.57 1.04 11.76 2.75 31.17 1.07 12.17 2.71 30.78 1.1 12.54 2.68 30.4 1.14 12.94 2.65 30 1.17 13.33 2.6 29.61 1.22 13.73 2.57 29.2 1.23 14.13 2.54 28.82 1.28 14.51 2.51 28.43 1.31 14.91 2.47 28.03 1.35 15.29 2.44 27.65 1.39 15.69 2.4 27.25 1.41 16.08 2.38 26.86 1.45 16.48 2.35 26.47 1.49 16.85 2.31 26.08 1.52 17.26 2.28 25.68 1.57 17.65 2.24 25.29 1.6 18.04 2.22 24.9 1.64 18.43 2.17 24.51 1.68 18.82 2.15 24.12 1.72 19.22 2.12 23.72 1.75 19.6 2.09 23.33 1.79 20 2.06 22.94 1.83 20.39 2.03 22.55 1.87 20.78 2 22.15 1.92 21.17 1.96 21.77 1.95 21.56 1.93 21.37 2 21.96 1.91 20.98 2.04 22.34 1.87 20.59 2.07 22.74 1.85 20.2 2.12 23.13 1.82 19.79 2.15 23.52 1.79 19.42 2.21 23.91 1.76 19.02 2.24 24.3 1.73 18.63 2.3 24.69 0.71 7.66 0.98 10.53 0 0.05zm-6439.81 2238.11l10014.22 0c518.49,0 942.69,-424.21 942.69,-942.69 0,-518.49 -424.2,-942.69 -942.69,-942.69l-66.71 0c-8.33,-43.55 -26.2,-86.77 -54.36,-128.01l-4230.38 -6194.5 4159.39 -6221.2c22.52,-33.69 38.2,-68.63 47.51,-103.96l144.55 0c518.49,0 942.69,-424.21 942.69,-942.69 0,-518.49 -424.2,-942.7 -942.69,-942.7l-10014.22 0c-518.49,0 -942.7,424.21 -942.7,942.7 0,518.48 424.21,942.69 942.7,942.69l131.55 0c5.35,19.12 12.46,37.77 21.23,55.84 9.75,26.75 23.26,53.14 40.76,78.76l4223.39 6184.27 -4152.05 6190.8 -0.19 0.27c-31.01,42.05 -52.48,88.51 -62.18,137.73l-202.51 0c-518.49,0 -942.7,424.2 -942.7,942.69 0,518.48 424.21,942.69 942.7,942.69zm113.97 -16247.56l4618.38 0c110.67,0 201.22,90.55 201.22,201.22l0 0.01c0,110.67 -90.55,201.21 -201.22,201.21l-4618.38 0c-110.67,0 -201.22,-90.54 -201.22,-201.21l0 -0.01c0,-110.67 90.55,-201.22 201.22,-201.22z"/>
   </g>
   <path class="fil2 str0" d="M12054.13 15734.12l0 0c822.26,-0.01 1489.08,153.88 1489.08,343.63l0 0.01c0,189.74 -666.82,343.64 -1489.08,343.64l0 0c-822.26,0 -1489.09,-153.9 -1489.09,-343.65l-0.01 0.01c0.01,-189.76 666.84,-343.65 1489.1,-343.65z"/>
  </g>
 </g>
</svg>
