<?xml version="1.0" encoding="UTF-8"?>
<!DOCTYPE svg PUBLIC "-//W3C//DTD SVG 1.1//EN" "http://www.w3.org/Graphics/SVG/1.1/DTD/svg11.dtd">
<!-- Creator: CorelDRAW -->
<svg xmlns="http://www.w3.org/2000/svg" xml:space="preserve" width="173.397mm" height="173.397mm" version="1.1" style="shape-rendering:geometricPrecision; text-rendering:geometricPrecision; image-rendering:optimizeQuality; fill-rule:evenodd; clip-rule:evenodd"
viewBox="0 0 17339.72 17339.72"
 xmlns:xlink="http://www.w3.org/1999/xlink"
 xmlns:xodm="http://www.corel.com/coreldraw/odm/2003">
 <defs>
  <style type="text/css">
   <![CDATA[
    .str0 {stroke:#2B2A29;stroke-width:16.93;stroke-miterlimit:22.9256}
    .fil0 {fill:#2B2A29}
   ]]>
  </style>
 </defs>
 <g id="Слой_x0020_1">
  <metadata id="CorelCorpID_0Corel-Layer"/>
  <g id="_3040896024016">
   <g id="_3076640863840">
    <path class="fil0 str0" d="M2576.54 3161.71l396.01 -2522.38c40.78,-259.74 284.37,-437.2 544.07,-396.42 259.73,40.73 437.2,284.37 396.42,544.06l-201.27 1282.09c3283.66,-2187.4 7983.95,-1639.53 10707.93,1335.54 2989.62,3265.16 2606.66,8472.46 -658.5,11462.12 -3265.21,2989.62 -8563.69,2743.44 -11553.35,-521.77 -82.53,-85.62 -133.26,-201.98 -133.26,-330.26 0,-145.97 65.71,-276.55 169.14,-363.88 82.86,-69.93 189.93,-112.14 306.84,-112.14 156.51,0 295.37,75.54 382.12,192.11 4.97,6.69 -4.6,-6.94 0,0 310.01,330.42 645.62,624.88 1000.97,883.23 208.25,-152.91 466.36,-317.91 735.59,-401.61 -137.19,131.8 -404.41,378.11 -539.72,538.84 107.66,72.86 216.87,142.71 327.66,209.22 192.32,-244.31 451.47,-507.1 713.01,-610.62 -213.61,174.62 -309.14,457.49 -442.56,765.29 96.36,52.28 193.61,102.55 291.86,150.24 240.58,-337.54 416.58,-626.55 825.18,-830.2 -250.5,360.62 -463.39,610.15 -575.48,945.26 125.72,55.17 252.62,107.03 380.74,154.84 251.16,-370.16 453.64,-743.2 838.77,-997.38 -264.09,324.57 -423.65,652.82 -569.63,1091.44 97.04,31.92 194.58,61.99 292.66,89.76 243.26,-407.59 552.94,-889.21 931.63,-1144.98 -288.06,300.48 -517.64,792.43 -695.78,1207.43 109.34,27.1 219.13,51.61 329.38,73.61 251.17,-382.29 489.78,-816.19 811.92,-1118.25 -236.19,342.76 -396.84,792.51 -563.68,1163.67 114.93,18.87 230.21,34.93 345.69,48.27 219.58,-353.47 403.74,-761.52 632.07,-1101.44 -121.17,342.89 -201.18,768.26 -312.4,1131.14 124.6,8.9 249.37,14.76 374.09,17.27 136.44,-363.34 288.1,-774.82 420.06,-1124.02 -40.32,347.07 -79.97,760.05 -120.09,1123.77 120.25,-2.51 240.42,-7.95 360.29,-16.44 91.73,-369.61 189.76,-791.55 278.81,-1139.5 18.7,329.63 30.62,747.59 46.89,1109.14 125.52,-14.6 250.58,-32.54 375.05,-53.75 41.62,-355.69 82.06,-762.73 124.47,-1082.41 53.33,303.82 115.78,687.03 173.04,1025.36 125.1,-26.85 249.44,-57.22 372.91,-90.89 -1.88,-344.56 -28.61,-722.08 -111.21,-1010.88 149.53,242.75 255.18,608.1 334.31,946.18 148.61,-45.88 295.71,-96.83 441.14,-152.75 -38.15,-332.85 -142.25,-671.39 -250.83,-909.5 149.74,207.29 329.29,518.26 463.76,823.47 135.06,-57.22 268.52,-118.66 400.07,-184.83 -73.83,-275.47 -201.4,-552.56 -260.03,-667.83 109.75,82.52 300.93,320.72 456.06,564.81 108.04,-58.93 214.65,-120.96 319.76,-186.08 -89.67,-138.82 -233.93,-277.64 -346.61,-377.65 130.25,56.51 311.44,201.31 434.53,322.86 451.67,-289.77 873.61,-637.93 1254.35,-1044.98 2715.95,-2903.46 3131.16,-7329.83 202.35,-10071 -2670.02,-2498.92 -6054.94,-2616.91 -9140.92,-848.4l1349.63 213.19c259.7,40.78 437.2,284.37 396.42,544.11 -40.78,259.65 -284.37,437.16 -544.11,396.38l-2521.8 -398.39c-259.69,-40.78 -437.2,-284.37 -396.42,-544.07zm4773.32 6608.55c-254.68,-79.76 -276.05,-382.66 -276.05,-382.66 0,0 -29.99,312.35 276.05,382.66zm497.22 -161.36c-583.34,-74.29 -523.19,-725.3 -523.19,-725.3 0,0 -210.81,775.61 523.19,725.3zm1037.36 -6747.03c1428.02,147.93 2464.92,957.89 2464.92,957.89 0,0 -1197.43,-766.29 -2464.92,-957.89zm-140.57 -363.09c3130.82,119.2 4628.14,2575.16 4628.14,2575.16 0,0 -1582.31,-2320.4 -4628.14,-2575.16zm-109.42 -375.18c3769.67,-323.4 5584.7,3443.26 5584.7,3443.26 0,0 -2138.05,-3614.79 -5584.7,-3443.26zm-1109.38 6826.75l0 -2553.33c0,-262.88 213.1,-475.98 475.97,-475.98 262.88,0 476.02,213.1 476.02,475.98l0 2077.77 3187 1611.05c188.42,112.51 450.63,358.11 283.91,668.12 -130.46,215.74 -377.02,231.38 -592.8,147.98l-3354.13 -1475.61c-359.82,-136.77 -443.31,-206.79 -475.97,-475.98z"/>
   </g>
  </g>
 </g>
</svg>
