<?xml version="1.0" encoding="UTF-8"?>
<!DOCTYPE svg PUBLIC "-//W3C//DTD SVG 1.1//EN" "http://www.w3.org/Graphics/SVG/1.1/DTD/svg11.dtd">
<!-- Creator: CorelDRAW -->
<svg xmlns="http://www.w3.org/2000/svg" xml:space="preserve" width="173.397mm" height="173.397mm" version="1.1" style="shape-rendering:geometricPrecision; text-rendering:geometricPrecision; image-rendering:optimizeQuality; fill-rule:evenodd; clip-rule:evenodd"
viewBox="0 0 17339.72 17339.72"
 xmlns:xlink="http://www.w3.org/1999/xlink"
 xmlns:xodm="http://www.corel.com/coreldraw/odm/2003">
 <defs>
  <style type="text/css">
   <![CDATA[
    .fil0 {fill:#2B2A29;fill-rule:nonzero}
   ]]>
  </style>
 </defs>
 <g id="Слой_x0020_1">
  <metadata id="CorelCorpID_0Corel-Layer"/>
  <g id="_3076861754976">
   <g id="_3041186977248">
    <g id="_231a191aff">
     <g>
      <path class="fil0" d="M8979.27 450.35c201.01,-168.61 492.35,-204.07 735.45,-115.27 308.33,122.76 479.55,439.24 558,745.58 153.17,-45.39 313.64,-94.55 474.73,-63.7 284.08,48.03 511.51,274.14 619.29,533.55 84.62,188.87 101.15,397.6 131.56,599.7 77.6,578.51 160.43,1156.14 233.61,1735.08 98.97,768.04 185.37,1537.87 281.67,2306.38 115.46,-27.78 229.84,-65.68 349.76,-69.64 184.68,-0.7 368.23,81.32 489.67,220.6 107.78,120.74 162.22,285.4 156.05,446.26 -9.9,145.92 -68.33,282.1 -118.34,417.85 -134.9,336.34 -241.98,685.87 -289.82,1045.76 -60.6,398.22 -13.23,801.33 18.74,1199.79 55.75,556.91 92.34,1117.57 56.41,1676.92 -61.03,734.99 -253,1463.38 -597.68,2117.48 -161.75,331.26 -371.14,636.91 -523.42,972.78 -56.88,115.27 -42.1,246.41 -43.65,370.48 -1.09,522.11 -1.09,1044.4 -1.09,1566.51 10.36,75.38 -59.51,118.8 -110.65,159.11 -430.19,316.28 -954.27,474.3 -1476.57,555.16 -131.37,17.42 -264.48,54.24 -397.37,31.54 -96.53,-18.31 -194.61,-7.06 -291.8,-5.98 -110.65,3.11 -221.03,-3.72 -331.45,-5.93 208.5,-24.91 412.11,-81.32 606.3,-160.24 0.85,-33.71 1.74,-67.43 2.4,-100.72 -218.2,15.68 -436.59,34.61 -655.64,25.15 222.81,-29.34 437.91,-96.34 650.37,-166.84 -0.24,-37.47 -0.47,-74.49 -0.66,-111.5 -201.91,16.72 -403.54,50.67 -606.72,35.23 206.05,-50.44 408.81,-112.17 606.48,-189.53 0.43,-33.95 0.9,-67.66 1.56,-101.15 -230.73,23.82 -461.08,61.5 -694.02,49.59 231.43,-47.61 456.65,-119.66 680.13,-195.93 1.08,-35.5 2.21,-70.96 3.29,-106 -241.98,19.83 -482.84,55.75 -726.37,56.41 249.9,-42.33 487.26,-130.9 722.18,-223.01 0.47,-37.71 1.13,-75.19 1.79,-112.39 -225.46,36.12 -451.38,72.7 -680.13,76.23 224.56,-67.43 446.06,-144.56 669.54,-215.33 2.64,-42.32 5.08,-84.85 7.49,-126.94 -220.14,30.84 -439.66,83.76 -663.37,74.06 104.02,-46.28 217.07,-65.22 325.28,-98.74 108.01,-33.71 213.35,-76.04 317.37,-120.54 4.61,-39.89 9.7,-79.77 14.55,-119.23 -224.33,27.78 -446.72,75.58 -673.5,80.86 -70.76,-298.17 -110.42,-604.28 -204.31,-896.74 -100.72,-347.13 -299.94,-658.95 -371.99,-1015.54 -57.31,-230.77 -57.31,-470.07 -45.63,-706.12 27.08,-388.33 119.89,-771.57 269.76,-1130.57 86.37,-205.86 204.08,-396.05 318.22,-587.36 -270.84,105.14 -524.31,248.15 -772,398.02 -85.08,52.46 -162.21,115.93 -243.1,174.13 254.78,-336.11 544.14,-645.75 866.78,-917.49 552.72,-454.68 1177.52,-820.08 1838.67,-1092.67 113.76,-50.71 238.03,-76.94 347.13,-137.73 38.56,-19.4 31.97,-69.22 38.37,-104.91 40.54,-542.82 76.24,-1086.07 141.03,-1626.68 -116.12,-50.05 -244.19,-89.04 -371.33,-63.48 -108.25,13.23 -202.76,74.49 -308.8,93.89 -79.11,-20.29 -149.18,-64.36 -223.67,-96.33 -230.96,-107.74 -504.68,-134.2 -746,-44.5 -201.02,74.26 -359.7,223.24 -509.54,370.91 -114.37,-44.74 -227,-98.51 -349.76,-115.04 -195.5,-26.46 -404.62,5.94 -567.3,122.29 -175.41,115.08 -281.21,303.71 -362.53,491.69 -215.76,-55.99 -445.17,-108.21 -664.88,-38.76 -229.22,63.24 -408.2,243.3 -510,453.55 -63.24,134.43 -124.31,272.4 -150.96,419.4 50.7,-50.28 94.78,-106.03 139.51,-161.32 -85.08,163.3 -201.86,317.56 -225.68,505.11 81.32,-110.19 163.3,-219.95 244.85,-329.94 -54.01,94.55 -100.95,193.1 -146.11,292.27 -65.46,131.79 -132.89,266 -152.95,413.66 76.24,-112.63 143.48,-232.09 233.14,-334.98 -56.41,133.54 -112.59,267.08 -173,399.11 -41.4,91.22 -73.6,187.32 -84.62,287.61 86.41,-165.51 173.66,-330.36 277.91,-485.51 -67.43,135.98 -107.97,282.52 -166.4,422.23 -62.58,154.5 -108.21,315.62 -133.97,480.48 54.43,-175.87 141.69,-338.09 226.54,-500.53 6.4,3.76 19.4,11.48 25.8,15.44 -98.51,233.41 -187.78,477.6 -187.35,734.56 37.71,-120.12 50.04,-248.39 105.37,-362.53 37.67,-77.17 86.83,-147.66 137.73,-216.22 -97.85,219.52 -185.8,446.95 -204.31,689.17 48.07,-103.83 83.54,-214.9 156.28,-305.03 -50.47,202.99 -143.05,396.47 -152.09,608.7 72.09,-171.45 122.1,-357.25 235.82,-507.75 -139.05,295.95 -218.82,621.27 -217.97,948.76 8.61,-81.78 20.95,-163.33 45.2,-241.98 49.58,-165.74 92.77,-335.21 175.21,-488.39 -98.51,389.85 -174.36,790.98 -142.81,1194.94 11.91,-103.12 18.74,-206.71 38.1,-308.56 48.3,-231.39 79.34,-468.29 168.19,-688.89 -69.88,348.63 -111.55,704.1 -98.75,1060.03 5.75,452.46 163.07,907.33 463.91,1248.71 163.3,199.46 379.52,357.91 626.12,436.83 232.95,83.3 485.09,50.9 723.31,12.57 -27.78,157.99 -55.75,316.24 -91.44,472.95 -57.97,248.34 -88.62,501.81 -135.99,752.17 -115.5,-39.03 -230.54,-80.23 -349.53,-107.54 11.02,54 1.08,128.03 59.28,158.21 108.21,65.92 231.86,103.36 336.96,175.68 -137.96,-8.38 -268.44,-57.11 -396.47,-105.14 3.95,57.96 1.31,117.48 16.1,174.32 76.66,65.02 175.21,96.99 256.3,156.28 -93.9,-7.96 -186,-28.25 -278.15,-46.29 4.85,51.99 -0.19,107.31 19.17,157.13 88.61,96.06 218.2,135.52 331.68,193.72 -117.67,-26.23 -234.92,-54.9 -350.61,-88.62 2.87,63.24 5.27,126.72 8.38,190.42 84.85,47.42 171.02,92.15 254.78,141.27 -88.19,-17.19 -174.78,-40.78 -261.84,-62.58 -0.43,68.98 0.46,137.96 3.76,206.95 85.51,45.85 171.68,90.78 257.38,136.84 -90.78,-19.17 -180.91,-41.4 -271.5,-61.27 -1.32,66.12 -1.98,132.46 -0.9,199.04 61.07,43.18 123.23,85.04 185.57,126.48 -75.57,-18.28 -157.98,-46.95 -228.52,2.87 -175.21,-71.39 -342.5,-160.86 -505.57,-256.53 -77.79,-51.14 -163.3,-97.62 -220.18,-173.24 -7.91,-31.07 -7.49,-63.66 -8.15,-95.21 1.55,-353.06 0,-706.08 1.09,-1059.14 0.66,-112.86 -4.62,-228.99 -50.01,-333.9 -68.09,-159.11 -166.17,-302.81 -255.87,-450.25 -253.01,-401.55 -503.8,-810.14 -662.25,-1259.96 -296.64,-754.15 -356.16,-1581.29 -284.54,-2382.62 37.71,-439.42 102.47,-876.68 201.01,-1306.67 98.51,-477.34 268.64,-935.31 402.84,-1402.98 111.74,-385.69 240.04,-770.25 281.67,-1171.58 48.27,-558.03 73.84,-1117.57 101.81,-1676.69 -0.66,-222.16 21.84,-443 30.88,-664.69 24.91,-272.63 50.91,-557.79 192.17,-798.92 111.5,-202.96 308.33,-363.42 539.06,-405.29 129.82,-27.12 262.27,2.21 387.2,38.37 -22.66,-421.19 -35.03,-843.66 -16.53,-1265.27 16.34,-263.13 94.36,-532.66 277.91,-729.02 102.04,-110.88 234.3,-195.5 380.61,-233.83 102.04,-23.16 207.41,-12.81 311.01,-10.36 50.67,-226.58 156.47,-449.4 344.87,-593.07l0 0zm35.69 541.7c-106.65,272.87 -104.87,571.03 -104.44,859.53 0.66,287.14 27.31,575.64 91.25,855.77 20.72,103.35 75.81,194.8 106.66,294.63 -3.3,73.17 -36.36,141.96 -39.23,215.56 -8.38,154.49 3.3,309.18 15.87,463.25 13,368.69 62.82,734.98 108.87,1100.81 13.46,134.01 62.58,262.7 69.64,397.14 -23.12,109.56 -60.83,217.3 -59.05,330.83 -4.42,516.36 -9.27,1032.95 -9.04,1549.31 200.31,-79.34 403.5,-155.15 591.94,-261.38 -144.99,1.98 -288.46,26.23 -427.98,65.45 123.65,-112.63 275.47,-186.89 404.62,-292.22 -90.36,24.01 -179.59,52.22 -270.18,75.58 59.71,-65.69 120.97,-136.18 138.85,-226.12 59.71,-353.49 76.47,-712.52 119.89,-1067.99 10.36,354.81 1.32,710.08 -5.32,1064.93 31.08,-25.57 64.37,-49.16 89.7,-80.66 34.61,-114.42 20.06,-236.05 29.53,-353.53 20.52,-246.37 22.74,-493.9 18.74,-740.93 -57.07,29.96 -114.14,60.18 -172.53,87.49 79.76,-111.97 191.27,-196.16 313.79,-256.29 -191.93,7.02 -384.76,1.08 -575.41,27.97 18.97,-102.7 32.4,-210.01 86.6,-301.5 41.24,-66.11 102.93,-115.27 156.94,-170.36 -65.46,12.14 -130.48,26.69 -195.51,40.35 55.33,-83.53 116.59,-163.11 176.77,-243.11 -55.76,13.04 -110.85,28.01 -166.41,41.44 48.07,-95.87 116.82,-178.75 173.23,-269.3 -62.58,13.89 -124.07,31.5 -185.99,47.6 62.58,-96.52 148.52,-175.87 205.39,-276.35 -61.72,15.87 -121.67,38.1 -181.61,59.28 73.41,-98.55 197.48,-188.25 178.32,-326.17 -16.11,-206.53 -24.68,-414.79 -65.92,-618.4 -28.21,29.06 -58.16,57.07 -80.43,91.21 -8.81,71.43 5.08,143.05 11.68,214.2 18.5,164.66 -3.3,331.69 24.91,495.45 -11.45,13 -22.7,25.8 -33.72,38.8 -3.3,-176.76 4.85,-353.49 -0.23,-530.06 -1.09,-83.96 -25.14,-167.91 -14.09,-251.45 55.76,-91.25 150.97,-147.66 230.97,-215.32 -172.15,-11.45 -344.02,2.21 -515.7,13.69 13.42,-75.15 24.67,-151.19 51.99,-222.82 32.62,-83.76 95.44,-149.87 149.21,-220.17 -49.39,3.29 -98.31,7.25 -147.24,10.35 52.23,-75.38 110.42,-146.57 163.77,-221.26 -55.56,2.21 -110.65,8.15 -165.74,13 48.26,-70.3 104.01,-134.67 159.57,-199.23 -55.32,-1.32 -110.65,-0.43 -165.74,0.89 63.04,-68.79 126.52,-137.54 193.48,-202.56 -51.1,-12.57 -102.04,-25.76 -152.47,-40.31 54.2,-56.88 109.76,-112.63 161.98,-171.49 -58.43,-3.72 -116.82,-6.17 -175.21,-9.47 54.43,-64.32 114.37,-123.65 172.1,-184.67 -56.41,-10.6 -113.05,-19.4 -169.47,-28.64 64.14,-61.07 131.57,-118.8 194.15,-181.61 -62.35,-9.93 -125.16,-17.19 -187.98,-23.78 57.31,-41.01 116.36,-79.15 175.64,-117.48 0,-11.91 0,-35.93 0,-48.04 -40.12,-11.25 -80.19,-22.69 -119.88,-34.6 43.22,-18.08 87.06,-34.84 130.47,-52.69 -16.1,-4.85 -48.49,-14.74 -64.6,-19.59 26.7,-54.48 68.56,-107.12 68.79,-170.17 -35.5,-103.55 -170.59,-148.99 -268.01,-108.21 -122.53,47.61 -200.55,165.32 -246.18,283.42l0 0zm1311.34 497.43c-185.15,169.04 -226.35,432.83 -239.78,670.85 -14.78,359 -4.42,723.08 83.07,1073.31 20.72,85.94 61.5,165.47 83.3,250.98 -5.04,67.24 -31.08,130.95 -37.67,198.14 -12.34,116.36 -4.62,233.84 -5.09,350.66 3.54,394.5 8.38,795.59 120.12,1177.09 23.79,65.45 -23.12,124.08 -45.16,182.66 -60.41,133.12 -46.94,282.99 -46.52,425.15 15.21,414.56 66.12,826.67 87.73,1240.76 152.28,-70.5 299.05,-153.8 437.44,-249.01 -107.31,1.98 -213.31,19.4 -318.88,37.91 89.04,-86.64 188.64,-161.13 290.68,-232.09 -61.03,3.99 -121.64,9.93 -182.04,17.42 119.46,-120.12 108.67,-296.65 130.05,-451.8 24.91,-165.94 30.84,-333.9 52.45,-500.03 26,268.4 9.04,537.93 8.81,806.8 36.35,-27.74 94.55,-46.05 97.85,-99.59 32.39,-292.03 33.05,-586.47 38.33,-880.02 1.36,-50.24 -12.76,-98.5 -28.87,-145.22 119.89,-88.81 251.49,-160.47 388.1,-220.18 -240.2,3.53 -477.56,42.1 -717.14,55.99 23.82,-145.92 115.73,-261.61 215.33,-364.51 -49.35,10.13 -98.28,21.81 -147.43,31.93 48.69,-68.09 103.35,-131.79 150.07,-201.44 -46.29,14.55 -91.88,31.08 -137.74,46.29 51.8,-82.87 143.9,-152.71 143.24,-258.74 4.2,-181.81 23.83,-363.42 10.17,-545.23 -7.72,-96.96 -8.85,-194.15 -11.06,-291.33 -31.27,1.97 -62.35,3.95 -93.42,5.93 107.55,-104.02 238.68,-177.42 369.59,-247.96 -207.81,0 -416.31,5.32 -622.17,36.63 26.23,-143.47 101.19,-269.34 193.29,-379.99 -43.64,13.7 -87.06,27.59 -130.24,41.67 37.48,-78.02 91.45,-145.88 153.37,-205.82 -49.12,4.38 -98.28,8.57 -147.43,13 49.15,-70.77 102.5,-138.4 154.06,-207.38 -46.52,3.3 -92.8,7.02 -139.05,9.89 51.33,-77.55 107.74,-151.39 162.18,-227 -55.1,7.95 -109.76,17.65 -164.62,25.99 54.66,-74.45 118.8,-141.26 187.97,-202.52 -54.63,-5.28 -109.29,-10.36 -163.73,-15.41 63.71,-50.7 126.29,-103.16 187.55,-156.93 -55.75,-6.37 -111.31,-12.11 -166.83,-18.51 60.84,-46.71 121.87,-92.77 182.04,-140.18 -53.34,-8.8 -106.65,-17.18 -159.77,-25.33 60.37,-40.31 122.29,-78.02 182.7,-118.1 -45.62,-15.02 -91.48,-28.67 -137.11,-42.33 46.09,-26 92.8,-51.37 139.52,-76.7 -14.98,-3.77 -44.74,-11.02 -59.52,-14.79 26.89,-66.96 79.34,-152.05 13.23,-213.73 -99.4,-102.51 -266.89,-52.03 -360.97,32.82l0 0zm-2092.8 22.93c-178.32,152.28 -222.16,400.66 -241.99,622.36 -14.55,324.42 -18.08,650.6 17.62,973.9 9.93,154.49 41.2,306.54 88.81,453.74 36.82,97.66 -26.43,193.95 -24.21,292.93 -6.64,321.09 26.88,641.33 52.64,961.1 21.38,186 31.74,374.21 79.81,555.82 11.87,52.45 29.53,104.68 29.72,158.88 -8.34,50.71 -33.05,96.99 -48.46,145.68 -46.28,130.48 -41.43,270.85 -55.32,407.07 -40.55,442.1 -73.18,885.29 -142.59,1324.1 202.06,-75.81 416.31,-120.35 609.79,-218.63 -121.63,3.49 -241.09,27.55 -362.29,34.8 99.82,-88.38 223.9,-139.94 338.51,-205.39 -105.8,7.72 -210.25,24.44 -316.05,30.84 134.01,-92.76 265.81,-188.4 402.45,-277.44 -124.31,27.97 -245.74,66.77 -363.22,116.58 52.68,-60.17 121.67,-100.71 185.14,-147.66 46.05,-33.29 56.64,-93 68.09,-144.79 43.22,-258.75 82.87,-518.15 112.86,-778.64 5.05,-45.16 -7.95,-89.27 -18.31,-132.46 93,-85.51 191.97,-165.08 301.69,-228.55 -179.59,1.78 -358.57,11.25 -537.5,24.9 27.78,-116.12 74.72,-226.54 103.35,-342.47 20.06,-77.79 78.69,-135.98 123.19,-200.12 -51.99,18.74 -103.59,38.8 -155.35,57.54 55.99,-90.16 125.16,-171.02 183.59,-259.63 -51.6,16.99 -101.61,37.9 -150.53,60.83 14.08,-44.31 29.95,-89.23 29.52,-136.41 2.21,-196.59 -11.02,-394.07 14.74,-589.77 17,-117.44 -11.87,-233.6 -18.93,-349.76 38.8,-92.11 128.03,-150.93 194.38,-222.78 -135.99,-0.47 -271.08,15.87 -406.6,25.99 29.95,-117.24 99.59,-216.84 182.93,-302.35 -41.44,4.62 -82.87,9.66 -124.12,13.85 39.69,-62.81 82.22,-123.84 124.97,-184.68 -37.01,-0.42 -74.02,-1.32 -111.08,-2.21 41.01,-60.37 83.77,-119.22 126.29,-178.51 -40.54,4.66 -81.09,9.28 -121.44,13.66 34.61,-61.26 72.75,-120.08 111.55,-178.7 -35.93,-2.45 -71.66,-4.66 -107.12,-7.06 37.48,-61.07 78.45,-119.89 119.46,-178.75 -38.57,-1.74 -77.13,-3.1 -115.27,-5.08 36.35,-54.43 75.15,-107.31 112.39,-161.09 -38.13,-11.91 -76.04,-23.78 -113.95,-35.27 38.14,-41.86 78.45,-81.74 120.55,-119.88 -1.98,-11.91 -5.94,-35.46 -7.91,-47.18 -31.74,-6.6 -63.05,-13.85 -94.32,-22.04 43.41,-48.26 87.91,-95.83 127.14,-147.62 -34.14,-11.91 -68.09,-23.59 -102.04,-35.27 44.07,-50.48 84.42,-104.25 117.67,-162.45 -27.74,-12.1 -55.28,-24.21 -82.64,-36.35 33.06,-62.16 103.17,-131.56 63.28,-206.72 -57.53,-116.58 -233.4,-102.27 -320.89,-28.86l0 0zm2581.84 2104.9c20.02,192.17 77.33,379.06 87.49,573.01 22.23,-206.95 20.92,-415.45 15.64,-623.06 -34.61,15.21 -77.56,20.53 -103.13,50.05l0 0zm-3530.61 14.32c-115.27,42.33 -196.16,144.13 -253.47,248.62 -96.52,183.36 -114.6,393.6 -136.41,595.89 -27.31,310.54 -42.75,625.27 9.04,934.26 24.25,117.44 -29.1,229.41 -37.01,345.11 -10.13,153.17 -21.61,306.34 -23.36,460.18 -2.44,367.38 -35.27,735.41 -112.4,1095.11 -51.6,267.98 -106.23,535.53 -184.25,797.34 215.76,-118.11 447.61,-203.42 662.24,-323.08 -97.84,21.81 -194.8,48.93 -294.63,61.93 98.51,-103.36 217.74,-182.7 333.86,-264.26 -89.47,18.08 -177.62,41.21 -266.85,60.84 97.84,-114.84 214.63,-211.14 333.19,-303.71 -95.21,15.87 -189.06,37.24 -282.52,60.83 106.46,-88.38 212.88,-177.19 317.36,-267.78 -71.62,-1.75 -142.38,9.04 -212.45,22.08 108.86,-90.6 231.19,-162.88 358.14,-225.26 -78.68,-2.64 -157.6,-3.07 -236.28,-7.92 106.69,-72.75 226.77,-121.67 346.7,-167.72 -118.14,-6.6 -236.28,-5.94 -354.42,-3.77 114.61,-312.28 174.78,-642.18 187.78,-974.1 -30.18,11.26 -60.17,22.7 -89.93,33.95 47.84,-100.48 121.9,-184.91 211.6,-250.13 -149.45,-11.91 -299.09,-21.61 -446.72,-46.52 50.44,-130.47 135.1,-248.58 148.52,-391.62 47.37,-17 94.98,-33.72 142.39,-50.25 -43.22,-8.14 -86.64,-14.97 -129.82,-22.27 1.98,-25.76 4.85,-51.33 8.58,-76.7 48.73,-19.83 97.88,-38.99 147,-58.39 -39.46,-9.89 -78.68,-20.49 -117.67,-30.42 41.43,-52.03 84.85,-102.04 124.97,-154.92 -51.14,2.41 -101.85,7.92 -152.29,14.98 83.73,-57.07 164.39,-119 239.77,-186.66 -69.64,-4.19 -139.28,-4.62 -208.69,-4.42 79.34,-53.35 157.33,-109.1 231.16,-170.36 -63.01,-5.05 -126.06,-7.26 -189.1,-8.38 69.87,-39.23 138.62,-80.63 204.54,-126.06 -48.5,-15.87 -97.85,-28.21 -147.24,-40.31 65.03,-35.73 137.31,-53.58 210.91,-61.07 -42.06,-10.78 -83.96,-22.23 -125.59,-34.14 -0.47,-12.34 -1.13,-36.82 -1.32,-49.16 30.61,-4.61 61.46,-9.27 92.34,-13.65 -20.29,-30.89 -39.92,-61.93 -59.09,-93.24 36.59,-10.36 73.41,-20.25 110.42,-29.29 -27.97,-20.52 -55.75,-41.24 -83.3,-62.15 4.85,-56.88 30.84,-125.86 -13.23,-173.9 -63.01,-74.25 -173.66,-85.08 -262.47,-59.51l0 0zm1280.22 96.1c-11.45,34.38 -7.06,71.39 -4.62,106.89 35.69,273.49 7.72,550.08 25.14,824.69 33.72,-35.27 90.13,-62.16 90.79,-117.68 21.38,-146.34 14.74,-294.67 16.95,-442.1 -1.98,-151.19 5.74,-303.05 -13.42,-453.35 -39.89,24.91 -80.66,49.16 -114.84,81.55l0 0zm2374.66 1647.4c16.53,245.94 57.31,489.24 83.77,734.1 7.49,-252.77 35.69,-504.92 26.65,-758.12 -37.01,7.92 -73.83,15.87 -110.42,24.02l0 0zm-2249.04 375.29c6.41,297.31 -26.65,593.3 -43.18,889.72 39.65,-32.4 95.87,-59.05 101.15,-116.82 29.99,-194.15 29.29,-391.63 47.8,-586.86 8.84,-100.29 9.5,-201.01 7.72,-301.5 -43.61,30.61 -122.95,48.27 -113.49,115.46l0 0zm3074.2 1055.89c-166.64,188.87 -301.27,412.58 -350,662.28 -83.53,429.96 -72.51,870.08 -116.12,1304.46 -6.83,250.13 -38.8,498.52 -54.43,748.22 -23.17,190.62 -23.59,384.14 -60.84,573.01 -71.43,-64.37 -134.67,-138.86 -216.88,-189.76 -188.87,-119.46 -436.13,-118.14 -639.12,-37.01 -227.66,93.19 -383.01,291.33 -544.99,466.77 -185.34,191.08 -346.47,403.31 -512.87,610.45 -252.34,334.55 -469.65,700.61 -600.32,1100.43 -122.33,382.35 -169.71,795.59 -89.47,1191.83 29.95,141.5 65.22,285.63 141.03,410.79 112.63,189.76 304.37,327.07 515.27,387.24 325.52,93.43 682.11,3.73 958.9,-180.48 271.97,-176.77 463.94,-448.93 614.01,-731.27 219.48,-405.94 412.35,-840.55 452.23,-1305.59 29.76,-280.08 11.02,-562.61 10.13,-843.62 29.76,195.93 61.07,391.39 81.98,588.45 11.91,125.16 3.1,251.68 22.5,376.42 22.46,-58.2 39.88,-118.38 45.63,-180.53 24.25,-335.64 3.06,-673.92 -68.56,-1002.73 112.82,275.04 172.57,568.15 204.97,862.79 8.15,-148.33 28.63,-297.08 11.45,-445.4 -17.62,-233.84 -87.26,-458.83 -145.89,-684.52 107.13,219.72 211.8,444.74 252.11,687.85 -0.23,-156.04 -24.01,-310.3 -29.95,-466.15 -8.18,-157.33 -85.51,-297.51 -138.2,-442.73 89.94,101.15 144.37,226.97 227.24,333.43 18.51,-141.49 -53.11,-267.78 -96.1,-397.13 76.9,94.55 138.82,200.12 196.12,307.43 -33.25,-207.37 -117.01,-400.86 -195.23,-594.38 101.81,130.05 173.66,279.22 254.52,422.27 -45.16,-231.43 -151.86,-442.99 -234.46,-662.05 96.72,132.46 180.92,273.06 262.24,415.22 -56.42,-235.15 -151.63,-457.31 -238.92,-681.87 111.74,138.16 190.65,298.39 259.21,461.46 -50.05,-187.32 -75.39,-380.61 -132.69,-565.95 -24.68,-83.95 -55.09,-165.74 -81.55,-248.81 107.12,162.64 168.61,348.45 235.81,529.79 -23.78,-102.66 -50.44,-204.51 -67.2,-308.52 -21.14,-152.28 -98.27,-287.61 -161.55,-425.11 73.64,94.74 142.39,193.06 207.84,293.78 -42.1,-167.07 -100.95,-328.86 -172.15,-485.52 63.05,61.92 119.23,130.24 175.21,198.8 -37.01,-120.82 -87.25,-236.94 -126.48,-356.83 49.12,44.51 96.3,91.45 142.16,139.72 -53.35,-110.42 -97.66,-224.57 -136.88,-340.26 -14.32,-58.43 -85.75,-56.45 -131.33,-75.39 82.17,-70.96 158.87,-147.89 233.79,-226.34 -59.71,11.02 -118.52,25.14 -177.38,39.22 85.94,-75.58 169.47,-154.26 242.87,-242.18 -59.74,14.09 -118.37,31.51 -177.65,46.91 78.45,-93.19 169.7,-174.32 251.68,-264.02 -59.52,11.91 -117.67,29.33 -174.55,50.05 76.28,-76.7 154.49,-150.77 236.47,-221.07 -48.46,-0.19 -96.72,0.66 -144.99,1.32 77.13,-60.8 156.9,-118.53 232.29,-181.58 -39.23,-6.16 -78.02,-12.57 -116.82,-19.16 80,-70.11 169.47,-128.5 249.7,-198.38 -80.23,-3.29 -156.7,20.06 -227.67,55.33 54.01,-61.03 104.25,-127.14 171.03,-174.98 72.08,-53.58 156.04,-86.83 235.62,-127.37 -74.3,-81.32 -183.6,-50.48 -276.83,-31.31 71.2,-53.12 146.77,-99.83 221.27,-147.9 -65.69,-39.88 -137.31,-85.28 -217.97,-72.28 -196.82,21.18 -362.53,147.67 -489.24,292.46z"/>
     </g>
     <path class="fil0" d="M9640 8273.88c193.48,-150.54 362.76,-328.15 519.46,-516.17 -141.49,401.99 -329.04,791.44 -586.23,1132.82 -429.53,564.86 -1035.6,975.66 -1689.26,1239.25 -413.24,162.83 -845.64,270.38 -1282.66,345.77 -56.65,9.04 -113.49,13.65 -170.6,18.08 213.35,-98.08 407.07,-231.2 613.12,-342.51 358.81,-189.96 707.21,-399.54 1043.32,-627.44 -292.65,135.98 -589.53,268.44 -902.71,349.1 394.07,-208.69 800.44,-394.5 1184.81,-621.27 183.13,-107.78 369.82,-211.56 540.61,-338.51 -365.63,197.91 -742.48,375.33 -1134.1,515.27 -165.98,61.93 -330.13,128.04 -499.64,180.49 492.81,-243.77 983.37,-492.11 1464.93,-757.49 308.52,-177.62 625.46,-346.66 898.95,-577.39z"/>
     <path class="fil0" d="M8990.09 8483.7c277.68,-171.91 539.49,-367.84 800.02,-564.43 -243.54,264.25 -514.19,506.66 -817.44,700.61 -454.67,301.03 -963.97,508.45 -1481.22,674.62 229.41,-123.42 469.22,-225.92 694.63,-356.59 272.87,-142.59 537.78,-299.52 804.01,-454.21z"/>
     <path class="fil0" d="M7843.85 8700.97c405.09,-230.73 820.73,-444.08 1211.7,-699.06 -338.75,329.27 -762.54,559.11 -1211.7,699.06z"/>
     <path class="fil0" d="M8471.06 8561.49c261.61,-128.03 505.57,-288.27 760.13,-429.11 -422.05,422.71 -980.08,670.86 -1539.43,855.34 261.38,-139.28 525.21,-273.95 779.3,-426.23z"/>
     <path class="fil0" d="M11163.56 11236.53c0,118.8 2.17,237.6 12.99,355.93 21.61,377.54 -74.49,752.64 -234.07,1092.67 -164.38,355.08 -354.61,715.16 -661.15,968.63 -206.06,175.64 -469.18,278.8 -738.09,301.69 -298.63,20.49 -617.51,-112.82 -775.77,-374.44 87.3,75.15 172.81,158.92 284.31,197.02 292.7,104.48 619.53,47.41 893.02,-86.17 243.76,-117.91 430.19,-323.07 582.04,-542.59 99.4,-147.2 190.66,-300.14 267.13,-460.61 113.25,-226.78 223.24,-457.97 283.38,-705.66 66.34,-243.11 65.49,-497 86.21,-746.47z"/>
     <path class="fil0" d="M6438.01 11789.94c10.12,-149.45 45.62,-295.09 78.87,-440.35 -49.12,299.09 -33.71,604.74 5.98,904.26 18.27,139.05 50.01,276.82 97.84,409.05 143.48,382.35 397.37,740.26 767.62,930.02 251.68,138.39 545.66,158.03 826.44,134.67 -114.38,78.22 -257.19,89.23 -390.97,103.55 -277.91,21.19 -548.76,-92.34 -759.24,-268.21 -283.42,-243.3 -496.96,-571.45 -587.09,-935.3 -66.57,-273.72 -62.81,-558.92 -39.45,-837.69z"/>
     <path class="fil0" d="M10807.16 12218.16c112.63,-277.91 192.4,-570.61 223.94,-869.23 5.7,330.13 -57.97,658.51 -170.83,968.16 -135.09,365.4 -312.71,720.01 -566.18,1018.21 -163.49,195.23 -397.99,330.99 -650.13,369.79 -203.62,37.05 -424.45,35.26 -611.34,-64.14 -185.57,-87.72 -318.03,-263.12 -374.87,-457.97 49.12,136.22 126.48,265.57 249.9,346.7 192.4,138.39 445.4,151.16 670,99.83 158.22,-30.85 303.01,-108.44 432.83,-201.87 191.31,-133.58 320.43,-333 448.27,-523.65 148.33,-210.68 247.49,-450.25 348.41,-685.83z"/>
     <path class="fil0" d="M6592.5 11977.03c-13.66,-128.46 -11.91,-258.28 1.74,-386.55 5.32,348.64 52.46,702.83 180.73,1029 152.51,340.26 382.58,673.26 731.45,833.92 195.04,94.79 416.3,94.36 628.34,89.05 -183.79,48.69 -381.04,76.47 -567.08,24.01 -189.29,-50.01 -349.53,-171.25 -493.19,-299.71 -178.09,-179.64 -300.84,-407.73 -385.7,-644.44 -73.59,-206.91 -78.91,-428.64 -96.29,-645.28z"/>
     <path class="fil0" d="M6768.37 12100.68c78.45,287.18 178.28,579.6 378.82,806.41 87.3,98.7 205.2,163.73 327.3,209.78 139.05,56.88 292.65,34.18 438.57,29.76 -190.22,24.48 -390.3,37.48 -570.36,-41.2 -150.11,-54.2 -272.87,-168.58 -346.9,-308.99 -127.6,-212.03 -181.38,-455.76 -227.43,-695.76z"/>
     <path class="fil0" d="M10106.54 13016.81c264.06,-217.07 370.91,-553.61 538.21,-839.43 -8.61,57.73 -20.49,115.27 -40.12,170.36 -71.85,196.12 -155.15,389.65 -273.48,562.65 -113.95,161.75 -219.95,337.39 -389.46,447.61 -213.54,163.5 -501.58,156.24 -755.04,121.4 163.1,2.02 330.83,1.78 484.43,-61.26 186.23,-74.69 363.84,-191.28 480.9,-357.02 -164.43,76.94 -314.73,186.66 -493.24,231.62 -131.33,40.35 -270.42,24.91 -405.28,16.1 309.41,19.83 614.86,-98.97 853.08,-292.03z"/>
     <path class="fil0" d="M9853.78 12962.84c250.13,-186.69 423.16,-455.76 566.83,-728.62 -56.18,131.79 -102.04,268.87 -175.87,392.75 -103.78,189.1 -273.29,342.04 -473.6,422.7 -101.62,40.12 -208.7,62.35 -315.39,84.39 139.75,-37.91 281.67,-81.55 398.03,-171.22z"/>
    </g>
   </g>
  </g>
 </g>
</svg>
