<?xml version="1.0" encoding="UTF-8"?>
<!DOCTYPE svg PUBLIC "-//W3C//DTD SVG 1.1//EN" "http://www.w3.org/Graphics/SVG/1.1/DTD/svg11.dtd">
<!-- Creator: CorelDRAW -->
<svg xmlns="http://www.w3.org/2000/svg" xml:space="preserve" width="173.397mm" height="173.397mm" version="1.1" style="shape-rendering:geometricPrecision; text-rendering:geometricPrecision; image-rendering:optimizeQuality; fill-rule:evenodd; clip-rule:evenodd"
viewBox="0 0 17339.72 17339.72"
 xmlns:xlink="http://www.w3.org/1999/xlink"
 xmlns:xodm="http://www.corel.com/coreldraw/odm/2003">
 <defs>
  <style type="text/css">
   <![CDATA[
    .fil0 {fill:#FDD835;fill-rule:nonzero}
   ]]>
  </style>
 </defs>
 <g id="Слой_x0020_1">
  <metadata id="CorelCorpID_0Corel-Layer"/>
  <g id="_3076861767024">
   <g id="__x0023_fdd835ff">
    <g>
     <path class="fil0" d="M8679.2 598.62c182.35,-29.88 355.48,61.28 532.45,87.34 601.42,82.75 1113.18,452.78 1571.31,826.65 461.2,481.12 783.74,1084.82 965.31,1723.77 255.89,1050.33 -33.7,2191.85 -691.81,3039.96 -481.87,573.82 -1150.7,1014.34 -1905.32,1107.03 -262.79,83.5 -538.59,147.87 -802.91,29.12 -847.32,-148.63 -1631.82,-634.35 -2121.38,-1343.77 -164.7,-301.86 -330.18,-606 -454.29,-927.78 -262.01,-990.59 -183.88,-2113.71 386.12,-2986.34 308.75,-523.24 760.74,-975.25 1322.32,-1220.41 366.2,-211.46 794.46,-242.1 1198.2,-335.57l0 0zm-1980.42 4690.95c-265.08,142.51 -167.76,502.57 -143.27,746.21 401.46,159.34 828.19,213.74 1252.63,275.02 124.87,15.33 209.13,-91.17 294.17,-162.42 19.16,-206.07 37.55,-418.29 -29.1,-618.25 -451.25,-108.02 -908.63,-244.38 -1374.43,-240.56l0 0zm2607.88 235.19c-32.95,226.01 -32.95,455.86 1.52,681.87 288.07,39.06 579.97,36.76 868.78,8.42 225.24,-49.8 444.37,-129.47 674.19,-159.36 29.89,-261.25 49.04,-544.72 -87.34,-782.21 -502.57,-16.85 -958.41,232.91 -1457.15,251.28z"/>
    </g>
    <path class="fil0" d="M4486.23 6597.33c231.37,-156.27 419.83,-366.97 651.98,-521.72 194.59,1.54 219.86,255.89 335.55,373.09 275.04,285.77 430.56,678.02 779.91,889.48 679.54,537.81 1512.31,941.55 2398.73,891.75 537.81,45.22 1061.06,-102.65 1562.87,-278.1 432.09,-203.01 816.68,-493.39 1177.52,-802.89 285.01,-288.05 511.78,-628.23 729.36,-968.38 468.86,193.07 795.98,616.74 1155.31,959.19 452.77,404.52 784.49,917.82 1112.4,1422.69 522.48,936.18 972.97,1932.9 1146.12,2996.28 140.96,430.56 177.73,886.39 206.85,1336.1 32.16,242.1 209.13,494.17 69.71,733.96 -117.23,363.91 -514.08,547.76 -875.68,533.21 -387.65,-20.69 -763.82,107.26 -1151.47,78.92 -411.4,-27.58 -814.38,85.81 -1225.02,65.87 -1176.77,-13.79 -2354.29,13.03 -3530.28,-12.25 -37.54,-918.57 -4.6,-1840.21 -15.33,-2759.57 3.82,-386.88 -19.91,-775.31 18.4,-1161.43 262.77,-4.58 468.08,194.6 668.05,340.17 256.65,225.22 386.88,554.67 533.21,855.75 164.72,334.02 110.32,711.72 147.11,1070.26 363.91,75.08 737,33.71 1106.27,42.14 862.66,-8.43 1726.07,16.09 2588.7,-12.25 15.34,-240.56 18.4,-481.9 -1.52,-721.69 -136.38,-32.19 -318.71,-36.77 -350.87,-207.62 -327.9,-1067.2 -761.54,-2117.55 -1389.75,-3045.32 -239.79,-313.35 -704.07,-53.64 -825.88,244.38 68.95,333.27 347.81,562.34 504.11,852.69 301.08,550.09 601.4,1113.94 733.94,1732.22 29.12,111.84 72.79,219.1 116.44,326.35 -67.41,45.98 -142.48,68.2 -223.7,68.2 -502.57,21.43 -1025.84,22.21 -1493.92,-190 -124.89,-526.33 -304.16,-1065.69 -681.86,-1467.91 -288.05,-285.74 -629.74,-527.84 -1016.63,-657.32 -621.34,-160.12 -1293.21,-157.81 -1896.91,71.25 -274.27,144.79 -535.52,320.24 -771.49,520.97 -373.86,499.5 -742.37,1068.72 -727.04,1717.64 -491.86,13.79 -985.24,14.55 -1477.08,-0.78 -16.85,-163.18 1.54,-326.36 60.52,-478.81 143.27,-406.82 306.45,-805.95 494.15,-1194.38 229.06,-425.97 521.72,-817.46 739.3,-1248.78 -33.71,-309.51 -473.45,-564.63 -750.03,-379.24 -539.34,733.96 -899.42,1579.74 -1254.91,2414.06 -121.8,275.02 -160.11,576.12 -201.48,871.84 -137.12,18.37 -272.74,41.37 -409.1,62.83 -59.77,232.13 -45.98,472.68 -26.82,709.42 1189.01,43.67 2378.81,-17.64 3568.58,-6.91 10.73,-252.8 -11.49,-512.54 76.62,-754.61 107.26,-325.6 155.51,-679.56 350.87,-969.92 229.07,-316.41 556.21,-560.03 929.31,-681.84 119.51,983.68 42.91,1976.57 63.58,2964.12 -2.3,358.55 14.55,717.85 -12.24,1075.63 -1689.31,19.92 -3379.37,2.28 -5068.65,8.43 -452.01,-38.31 -910.15,-65.89 -1350.67,-178.51 -272.75,-170.85 -388.43,-515.6 -354.7,-827.41 -45.22,-445.89 145.54,-863.42 156.27,-1303.94 16.85,-325.6 101.13,-642.01 198.43,-951.52 183.87,-949.98 638.95,-1819.54 1115.48,-2651.53 471.14,-644.31 924.7,-1328.46 1587.38,-1794.26z"/>
    <path class="fil0" d="M4749.79 15137.27c380,-49.82 763.82,-27.58 1145.34,-29.88 2094.56,-0.78 4188.38,1.52 6282.18,-1.54 106.48,3.06 212.98,8.42 319.47,16.85 45.96,380 -77.37,750.03 -127.19,1123.13 -22.22,181.57 -220.64,221.42 -367.73,254.36 -295.72,52.1 -597.58,40.59 -896.36,42.13 -1762.08,-2.3 -3523.37,-0.76 -5285.45,-0.76 -299.56,-1.54 -606.76,-15.33 -884.11,-138.68 -88.86,-417.53 -148.63,-840.42 -186.15,-1265.61z"/>
   </g>
  </g>
 </g>
</svg>
