<?xml version="1.0" encoding="UTF-8"?>
<!DOCTYPE svg PUBLIC "-//W3C//DTD SVG 1.1//EN" "http://www.w3.org/Graphics/SVG/1.1/DTD/svg11.dtd">
<!-- Creator: CorelDRAW -->
<svg xmlns="http://www.w3.org/2000/svg" xml:space="preserve" width="173.397mm" height="173.397mm" version="1.1" style="shape-rendering:geometricPrecision; text-rendering:geometricPrecision; image-rendering:optimizeQuality; fill-rule:evenodd; clip-rule:evenodd"
viewBox="0 0 17339.72 17339.72"
 xmlns:xlink="http://www.w3.org/1999/xlink"
 xmlns:xodm="http://www.corel.com/coreldraw/odm/2003">
 <defs>
  <style type="text/css">
   <![CDATA[
    .str0 {stroke:#2B2A29;stroke-width:16.93;stroke-miterlimit:22.9256}
    .fil2 {fill:#2B2A29}
    .fil1 {fill:#FEFEFE}
    .fil0 {fill:#2B2A29;fill-rule:nonzero}
   ]]>
  </style>
 </defs>
 <g id="Слой_x0020_1">
  <metadata id="CorelCorpID_0Corel-Layer"/>
  <g id="_3076856356384">
   <g>
    <path class="fil0" d="M11310.59 1789.2c566.08,181.63 1010.45,597.17 1419.23,1011.8 904.12,951.89 1706.8,1993.89 2523.48,3020.59 420.05,556.16 868.94,1093.39 1245.27,1681.55 132.96,217.24 267.26,461.97 233.46,726.08 -33.36,241.12 -134.31,466.02 -225.79,689.57 -212.73,478.64 -459.26,941.5 -722.02,1394.45 -375.89,625.14 -749.96,1252.94 -1175.43,1846.52 -703.53,1031.2 -1567.07,1999.75 -2683.45,2591.97 -893.73,471.88 -1906.45,689.57 -2912.87,708.95 -1192.09,40.1 -2416.64,-196.06 -3455.96,-797.29 -771.58,-446.2 -1428.25,-1069.06 -1973.6,-1769.89 -810.81,-1035.26 -1898.89,-2807.25 -2530.31,-3958.79l109.46 -1455.72c161.8,-221.3 595.97,-846.59 765.44,-1062.47 767.08,-985.69 1534.17,-1972.71 2365.71,-2905.66 337.58,-396.62 687.31,-784.22 1070.86,-1137.11 282.14,-256.45 616.1,-458.81 984.78,-560.68 -240.22,165.87 -484.06,330.82 -679.65,550.32 -365.98,404.27 -641.81,879.75 -900.5,1357.05 397.96,-429.52 807.19,-862.65 1305.22,-1177.68 314.59,-203.71 699.48,-302.87 1071.32,-229.85 502.07,93.29 889.67,483.14 1393.1,571.02 274.47,41.03 561.57,27.95 823.43,-68.95 311.88,-109.53 582.76,-307.37 890.56,-427.72 380.4,-149.63 831.55,-129.79 1184.91,83.84 556.6,328.55 1000.99,805.85 1460.26,1252.49 -238.87,-464.67 -522.81,-909.96 -868.95,-1302.97 -209.58,-242.92 -474.14,-426.81 -717.96,-631.42l0 0zm-4679.16 3694.82c-25.24,313.68 -28.84,630.53 -8.1,944.66 8.55,182.98 118.08,356.95 283.03,437.63 194.69,94.19 416.44,88.79 626.93,109.06 286.18,13.07 589.5,29.3 858.12,-88.32 149.17,-64.45 233.91,-219.95 238.41,-378.14 21.2,-346.14 5.87,-693.64 2.71,-1040.22 -356.04,-51.82 -705.79,-141.06 -1062.75,-187.04 -327.66,-42.81 -643.14,74.37 -938.35,202.37l0 0zm2439.63 -59.5c-35.14,333.97 -35.14,671.54 -13.52,1005.96 11.72,189.75 82.48,409.69 278.08,480.44 301.07,106.37 628.28,75.28 940.61,54.54 222.64,-23.89 477.28,-36.51 641.34,-210.02 157.29,-157.76 103.21,-398.87 112.24,-598.99 -14.89,-203.71 55.43,-412.38 -4.52,-611.6 -121.24,-120.78 -296.11,-165.4 -454.75,-216.33 -498.92,-152.33 -997.84,89.69 -1499.48,96l0 0zm-5155.98 1720.77c243.38,-73.46 473.23,-184.33 701.28,-295.65 266.81,-130.71 531.83,-280.79 731.03,-506.6 105.92,137.47 212.74,304.23 395.27,342.09 148.27,30.2 330.81,49.12 452.95,-58.6 40.11,-302.87 -9.47,-610.69 4.51,-915.8 -766.19,470.53 -1555.37,908.6 -2285.04,1434.56l0 0zm7545.58 -1392.21c4.06,240.23 0.91,480.9 -6.31,721.57 5.42,55.89 -11.27,135.66 46.43,170.36 159.1,106.37 371.37,77.07 541.29,13.53 139.72,-50.48 179.82,-207.77 239.77,-327.22 405.17,415.11 962.23,612.06 1481.9,838.31 -471.88,-368.67 -997.85,-660.72 -1518.85,-952.77 -253.31,-167.67 -514.25,-324.06 -784.23,-463.78l0 0zm-9259.59 2667.24c146.93,266.36 347.48,498.47 493.97,764.83 58.14,-29.74 116.27,-59.04 173.97,-88.79 -12.63,136.56 -22.1,273.58 -13.53,410.14 96.01,-53.64 191.56,-108.62 289.35,-158.65 -36.96,167.67 -77.97,334.42 -97.79,505.69 121.68,-106.82 242.02,-215 367.31,-317.74 -81.13,203.26 -159.1,411.49 -161.81,633.68 121.69,-132.51 246.09,-263.67 395.27,-365.52 -76.17,225.34 -188.39,447.99 -163.16,693.63 132.51,-168.57 276.29,-333.07 471.89,-430.87 -96.44,266.36 -261.85,537.22 -171.26,830.18 109.07,-237.97 266.36,-454.75 490.35,-595.82 -55.89,198.75 -146.02,386.25 -189.29,588.62 -27.49,123.94 27.05,243.82 62.2,361 82.93,-265.47 216.78,-520.11 438.97,-694.08 -44.61,350.64 -216.33,711.21 -66.69,1059.59 68.96,-307.36 194.25,-608.89 424.1,-831.53 -63.09,377.69 -186.13,776.1 -26.15,1147.93 27.96,-338.93 162.72,-663.44 382.65,-922.58 -16.22,231.65 -80.67,458.36 -81.57,691.38 -0.45,159.98 50.03,313.68 102.75,462.85 46.43,-356.04 147.84,-706.68 341.18,-1012.26 -4.5,416 -136.1,861.29 77.08,1249.78 41,-356.5 118.08,-711.64 290.69,-1029.83 -6.75,429.5 -82.48,884.26 124.85,1283.58 53.18,-385.8 96.45,-776.56 242.48,-1141.62 41.46,302.87 -1.36,608.44 26.14,911.76 11.27,138.82 92.39,255.55 164.06,369.57 19.82,-375.88 55.42,-758.07 201,-1109.17 64,401.58 -63.1,861.74 201.91,1209.68 19.83,-378.58 73.46,-754.91 197.41,-1114.57 56.79,429.96 -21.18,896.43 219.04,1283.58 31.1,-378.14 38.31,-772.94 210.02,-1119.98 32,394.36 0.45,812.15 191.1,1174.06 64.45,-388.94 97.8,-784.66 218.59,-1161.9 53.17,396.16 29.74,809.91 178.02,1188.05 142.87,-352.46 107.73,-744.55 216.79,-1106.46 115.82,361 91.49,749.05 171.27,1118.18 20.28,5.85 60.39,16.67 80.22,22.54 57.69,-404.74 81.13,-813.53 150.54,-1216 86.53,395.27 125.73,799.1 175.77,1200.22 21.62,2.71 65.34,7.66 87.43,9.91 65.81,-401.12 84.73,-807.66 138.36,-1210.58 77.08,386.25 147.38,775.21 181.64,1167.77 21.64,-0.46 65.34,-1.35 87.43,-1.81 100.5,-382.19 76.62,-780.61 136.12,-1169.11 103.21,370.03 153.23,751.31 221.74,1128.56 17.12,-6.32 51.83,-19.38 69.39,-25.7 64.46,-393.91 101.43,-791.87 105.47,-1191.19 149.19,354.69 155.96,742.29 242.04,1111.87 216.77,-378.6 149.18,-830.64 164.5,-1247.53 142.87,361.46 200.11,748.6 228.5,1133.95 18.93,-7.66 55.88,-22.53 74.82,-30.2 105.91,-405.18 104.55,-824.77 102.31,-1240.78 164.49,375.89 223.55,786.47 227.15,1194.37 260.51,-379.05 150.98,-856.33 171.72,-1285.4 173.52,339.38 245.18,722.02 238.86,1101.51 282.14,-368.68 149.63,-854.08 116.74,-1276.84 196.95,310.08 273.11,672.9 330.81,1030.3 79.33,-178.93 134.31,-373.18 122.58,-570.58 -12.16,-215.43 -65.34,-425.91 -89.24,-640.44 209.59,272.67 320.45,602.13 383.11,936.1 187.93,-363.71 50.93,-780.16 -30.65,-1153.78 220.38,263.2 365.51,580.04 440.33,914.01 168.11,-360.11 -5.41,-740.96 -72.57,-1101.96 216.35,222.64 351.55,503.87 478.65,783.32 99.61,-339.38 -38.77,-675.61 -130.26,-998.76 209.58,181.64 361.47,414.19 500.74,650.81 94.19,-307.37 -66.26,-598.07 -151.44,-884.72 197.85,146.48 347.94,343.89 518.75,518.76 32.9,-284.4 -125.3,-532.74 -237.07,-780.16 207.32,113.58 397.97,257.8 546.7,443.48 0.45,-249.69 -114.93,-470.52 -228.06,-684.61 169.47,79.32 315.5,196.96 468.29,303.77 -29.3,-198.75 -111.33,-382.19 -194.26,-563.37 139.27,78.43 276.27,161.36 418.7,233.91 -30.19,-169.45 -79.77,-334.42 -144.67,-493.51 109.97,65.36 221.28,127.99 334.86,186.14 -1.8,-136.56 -9.91,-272.68 -20.27,-408.78 57.68,32.45 114.92,64.9 173.07,97.35 150.07,-252.85 318.19,-493.52 479.53,-738.69 -582.3,144.67 -1152.43,338.46 -1699.57,584.54 -1114.34,496.63 -1863.06,1239.08 -3211.23,1567.09 -1335.43,358.75 -2766.38,263.65 -4079.73,-140.63 -414.71,-148.41 -1210.41,-648.48 -2239.96,-1183.52 -649.47,-357.42 -1345.79,-625.58 -2061.05,-818.02z"/>
   </g>
   <path class="fil1 str0" d="M5284.9 9720.15c0,0 3158,1056.97 6640,42.9 1316.29,-383.34 700.31,-615.35 -571.8,-658.79 -765.58,-26.15 -1754.94,70.06 -2743.04,80.93 -717.42,7.88 -1415.15,-89.99 -2011.5,-113.07 -800.55,-31.01 -1406.75,14.06 -1521.01,71.72 -473.74,239.1 207.35,576.31 207.35,576.31z"/>
   <path class="fil0" d="M7200.19 1779.81c210.94,-32.9 427.27,-63.55 639.1,-19.38 327.2,49.13 612.94,251.49 945.11,275.82 328.56,-17.58 618.35,-196.95 937.45,-259.6 241.13,-62.19 492.62,-50.93 736.89,-14.87 -244.73,84.28 -484.95,184.79 -701.73,328.56 -338.03,213.18 -729.68,430.42 -1143.87,338.47 -525.98,-89.68 -897.34,-528.67 -1412.95,-649z"/>
   <path class="fil2" d="M1163.26 7477.67c0,0 -681.2,733.46 -108.57,1460.87 572.62,727.41 463.19,-1305.78 463.19,-1305.78l-354.62 -155.09z"/>
  </g>
 </g>
</svg>
