<?xml version="1.0" encoding="UTF-8"?>
<!DOCTYPE svg PUBLIC "-//W3C//DTD SVG 1.1//EN" "http://www.w3.org/Graphics/SVG/1.1/DTD/svg11.dtd">
<!-- Creator: CorelDRAW -->
<svg xmlns="http://www.w3.org/2000/svg" xml:space="preserve" width="173.397mm" height="173.397mm" version="1.1" style="shape-rendering:geometricPrecision; text-rendering:geometricPrecision; image-rendering:optimizeQuality; fill-rule:evenodd; clip-rule:evenodd"
viewBox="0 0 17339.72 17339.72"
 xmlns:xlink="http://www.w3.org/1999/xlink"
 xmlns:xodm="http://www.corel.com/coreldraw/odm/2003">
 <defs>
  <style type="text/css">
   <![CDATA[
    .str0 {stroke:#2B2A29;stroke-width:16.93;stroke-miterlimit:22.9256}
    .str1 {stroke:#2B2A29;stroke-width:211.67;stroke-miterlimit:22.9256;stroke-dasharray:2116.700000 1058.350000}
    .fil1 {fill:none}
    .fil0 {fill:#2B2A29}
   ]]>
  </style>
 </defs>
 <g id="Слой_x0020_1">
  <metadata id="CorelCorpID_0Corel-Layer"/>
  <g id="_3076851659696">
   <path class="fil0 str0" d="M4859.16 7794.76c1290.24,0 2336.2,1045.96 2336.2,2336.21 0,330.45 -68.76,644.79 -192.5,929.73l0.23 -0.12 -4.11 8.97c-10.69,24.35 -21.66,48.55 -33.16,72.47l-2107.77 4605.35 -2096.38 -4586.78c-19.94,-40.54 -38.84,-81.69 -56.46,-123.52l-0.57 -1.26 0.07 0.05c-117.06,-278.3 -181.76,-584.04 -181.76,-904.89 0,-1290.25 1045.96,-2336.21 2336.21,-2336.21zm0 4129.52c990.42,0 1793.31,-802.88 1793.31,-1793.31 0,-990.43 -802.89,-1793.31 -1793.31,-1793.31 -990.43,0 -1793.32,802.88 -1793.32,1793.31 0,990.43 802.89,1793.31 1793.32,1793.31z"/>
   <path class="fil0 str0" d="M13563.31 1246.76c487.52,0 882.74,395.21 882.74,882.74 0,124.86 -25.98,243.64 -72.74,351.3l0.09 -0.04 -1.55 3.39c-4.04,9.19 -8.19,18.34 -12.53,27.38l-796.43 1740.15 -792.13 -1733.14c-7.53,-15.31 -14.67,-30.86 -21.33,-46.67l-0.22 -0.47 0.03 0.01c-44.24,-105.15 -68.68,-220.68 -68.68,-341.91 0,-487.53 395.21,-882.74 882.75,-882.74zm0 1560.35c374.23,0 677.6,-303.38 677.6,-677.61 0,-374.24 -303.37,-677.61 -677.6,-677.61 -374.24,0 -677.61,303.37 -677.61,677.61 0,374.23 303.37,677.61 677.61,677.61z"/>
   <line class="fil1 str1" x1="4858.05" y1="15747.37" x2="13529.54" y2= "4290.33" />
   <path class="fil0 str0" d="M5444.73 11735.73c-226.87,90.34 -1624.07,283.88 -2155.39,-1016.43 -531.32,-1300.31 884.29,-2166.53 884.29,-2166.53 -369.5,346.82 -1068.32,1251.64 -690.82,2086.03 104.8,231.63 316.1,522.44 465.35,661.65 134.59,125.52 375.84,266.32 665.36,349.03 243.1,69.45 515.86,92.32 831.21,86.25z"/>
   <path class="fil0 str0" d="M4979.05 11596.93c-184.85,-6.69 -970.05,-164.68 -1334.08,-1042 -364.02,-877.31 432.26,-1678.74 432.26,-1678.74 -170.52,311.96 -502.03,790.78 -349.04,1407.17 77,310.24 246.27,616.47 342.32,720.4 145.79,157.76 440.42,530.59 908.54,593.17z"/>
   <path class="fil0 str0" d="M4383.93 11046.51c-629.32,-617.77 -450.34,-1402.97 -450.34,-1402.97 0,0 -49.07,718.81 450.34,1402.97z"/>
   <path class="fil0 str0" d="M14155.23 2319.03c-21.87,87 -264.56,544.85 -766.15,423.6 -501.6,-121.24 -455.33,-729.18 -455.33,-729.18 23.88,184.63 143.22,587.33 472.93,654.24 91.54,18.57 223.59,18.14 297.16,3.6 66.32,-13.11 160.13,-54.71 247,-123.19 72.95,-57.48 138.4,-133.82 204.39,-229.07z"/>
   <path class="fil0 str0" d="M14013.77 2427.91c-41.73,53.64 -257.6,253.59 -597.21,173.44 -339.61,-80.15 -407.18,-489.65 -407.18,-489.65 56.27,117.86 127.65,319.55 344.16,406.47 108.98,43.76 236.6,59.16 288.21,52.9 78.34,-9.53 252.74,-17.15 372.02,-143.16z"/>
   <path class="fil0 str0" d="M13721.86 2486.88c-319.33,54.68 -514.77,-167.44 -514.77,-167.44 0,0 203.6,169.15 514.77,167.44z"/>
  </g>
 </g>
</svg>
